<svg width="144" height="144" viewBox="0 0 144 144" fill="none" xmlns="http://www.w3.org/2000/svg">
<path d="M103.452 77.1044H77.104V103.453C90.593 101.272 101.271 90.5931 103.452 77.1044Z" fill="#171449"/>
<path d="M77.104 40.5481V66.8962H103.452C101.271 53.4071 90.5928 42.7289 77.104 40.5481Z" fill="#171449"/>
<path d="M113.761 77.1041C111.437 96.2303 96.2301 111.437 77.104 113.761V144C112.846 141.491 141.491 112.846 144 77.1041H113.761Z" fill="#171449"/>
<path d="M77.104 0.000244141V30.2394C96.2301 32.5631 111.437 47.77 113.761 66.8958H144C141.491 31.154 112.846 2.50956 77.104 0.000244141Z" fill="#171449"/>
<path d="M0 66.8969H30.2392C32.5628 47.7707 47.7698 32.5641 66.8959 30.2404V0.000976562C31.1538 2.51029 2.50931 31.1548 0 66.8969Z" fill="#171449"/>
<path d="M40.5474 66.8962H66.8957V40.5481C53.407 42.7292 42.7285 53.4074 40.5474 66.8962Z" fill="#171449"/>
<path d="M30.2392 77.1041H0C2.50931 112.846 31.1538 141.491 66.8959 144V113.761C47.77 111.437 32.5628 96.2303 30.2392 77.1041Z" fill="#171449"/>
<path d="M40.5474 77.1041C42.7285 90.5929 53.4067 101.271 66.8957 103.452V77.1041H40.5474Z" fill="#171449"/>
</svg>
