<svg width="144" height="144" viewBox="0 0 144 144" fill="none" xmlns="http://www.w3.org/2000/svg">
<path d="M72 0C32.2338 0 0 32.2338 0 72C0 111.766 32.2338 144 72 144C111.766 144 144 111.766 144 72C144 32.2338 111.766 0 72 0ZM43.5012 39.5792L79.8473 64.1562C82.2465 65.8841 83.869 68.4871 84.3639 71.4021C84.8587 74.3171 84.1861 77.3098 82.4915 79.7327C80.7969 82.1556 78.2166 83.814 75.3088 84.3492C72.4009 84.8843 69.3992 84.2532 66.9531 82.5923C65.8784 81.8344 64.9417 80.8978 64.1838 79.8231L39.6069 43.4769C39.2286 42.935 39.0531 42.2772 39.1112 41.6188C39.1693 40.9604 39.4572 40.3435 39.9246 39.8761C40.3919 39.4088 41.0089 39.1208 41.6672 39.0627C42.3256 39.0046 42.9834 39.1801 43.5254 39.5585L43.5012 39.5792ZM72 132.923C38.4231 132.923 11.0769 105.594 11.0769 72C11.0484 63.8061 12.6868 55.6921 15.8925 48.1512C19.0981 40.6104 23.8041 33.8004 29.7242 28.1354C30.1846 27.6764 30.7318 27.3137 31.3338 27.0683C31.9359 26.823 32.5807 26.6999 33.2308 26.7063C33.8809 26.7128 34.5232 26.8485 35.1203 27.1057C35.7173 27.363 36.2572 27.7365 36.7084 28.2045C37.1597 28.6725 37.5132 29.2256 37.7485 29.8317C37.9837 30.4377 38.096 31.0845 38.0787 31.7344C38.0614 32.3843 37.9149 33.0242 37.6478 33.6169C37.3806 34.2096 36.9982 34.7432 36.5227 35.1865C31.5549 39.9414 27.6058 45.6568 24.9155 51.9854C22.2252 58.3139 20.8499 65.1234 20.8731 72C20.8731 100.191 43.8092 123.127 72 123.127C100.191 123.127 123.127 100.191 123.127 72C123.127 45.4604 102.801 23.58 76.8981 21.1154V40.1538C76.8981 41.4529 76.382 42.6987 75.4635 43.6173C74.5449 44.5359 73.299 45.0519 72 45.0519C70.701 45.0519 69.4551 44.5359 68.5365 43.6173C67.618 42.6987 67.1019 41.4529 67.1019 40.1538V15.975C67.1019 14.676 67.618 13.4301 68.5365 12.5115C69.4551 11.593 70.701 11.0769 72 11.0769C105.594 11.0769 132.923 38.4231 132.923 72C132.923 105.577 105.594 132.923 72 132.923Z" fill="#171449"/>
</svg>
