<svg width="115" height="150" viewBox="0 0 115 150" fill="none" xmlns="http://www.w3.org/2000/svg">
<path d="M86.2522 57.1677L92.6433 61.6419C93.1559 62.0007 93.758 62.1902 94.3847 62.1902C95.3767 62.1902 96.3077 61.7055 96.8761 60.8938C97.837 59.521 97.5018 57.6222 96.1297 56.6613L89.7367 52.1865C89.2241 51.8281 88.6223 51.6382 87.9973 51.6382C87.0052 51.6382 86.0735 52.1232 85.5045 52.9355C84.544 54.3083 84.8791 56.2068 86.2522 57.1677Z" fill="#171449"/>
<path d="M20.3973 62.1902C21.0237 62.1902 21.6258 62.0007 22.1387 61.6416L28.5297 57.1677C29.9025 56.2068 30.2377 54.308 29.2774 52.9352C28.7088 52.1232 27.7771 51.6382 26.7854 51.6382C26.1603 51.6382 25.5589 51.8281 25.0453 52.1872L18.6526 56.6613C17.2802 57.6226 16.9453 59.5214 17.9065 60.8942C18.4745 61.7058 19.4056 62.1902 20.3973 62.1902Z" fill="#171449"/>
<path d="M87.9965 31.7476C88.6216 31.7476 89.2234 31.557 89.7366 31.1976L96.1296 26.7231C97.5014 25.7626 97.8359 23.8637 96.8754 22.4906C96.307 21.679 95.376 21.1946 94.3846 21.1946C93.7592 21.1946 93.1568 21.3851 92.6429 21.7445L86.2518 26.2184C84.8794 27.1796 84.5439 29.0784 85.5045 30.4522C86.0731 31.2632 87.0048 31.7476 87.9965 31.7476Z" fill="#171449"/>
<path d="M18.6527 26.7234L25.0444 31.197C25.5583 31.557 26.1601 31.7476 26.7851 31.7476C27.7775 31.7476 28.7092 31.2632 29.2779 30.4509C30.2378 29.0781 29.9023 27.1793 28.5298 26.2184L22.1384 21.7445C21.6249 21.3851 21.0224 21.1946 20.397 21.1946C19.4053 21.1946 18.4743 21.6796 17.9063 22.4906C16.9454 23.8641 17.2802 25.7629 18.6527 26.7234Z" fill="#171449"/>
<path d="M57.3906 12.9388C59.0658 12.9388 60.4297 11.5752 60.4297 9.89875V3.03908C60.4297 1.3636 59.0665 0 57.3906 0C55.7148 0 54.3516 1.36328 54.3516 3.03908V9.89908C54.3516 11.5752 55.7152 12.9388 57.3906 12.9388Z" fill="#171449"/>
<path d="M57.9637 82.6604L63.3093 48.1639L57.6997 49.2475C57.4807 49.2885 57.2557 49.2878 57.0379 49.2452L51.4717 48.1836L56.8523 82.6607L57.9637 82.6604Z" fill="#171449"/>
<path d="M47.3724 87.5829C47.3724 87.754 47.3917 87.921 47.4268 88.0823C46.8162 88.5398 46.4194 89.2659 46.4194 90.0871C46.4194 91.0247 47.7315 91.4333 47.7 92.2705C47.6672 93.1071 44.9875 93.5728 44.9875 95.0951C44.9875 96.6594 47.8617 96.9608 47.8617 97.9276C47.8617 98.8911 46.4194 99.1902 46.4194 100.192C46.4194 101.576 47.5396 102.697 48.9242 102.697H65.8574C67.2424 102.697 68.3626 101.576 68.3626 100.192C68.3626 97.3075 54.9916 97.9276 54.9916 97.9276C54.9916 97.9276 69.7941 97.8925 69.7941 95.0951C69.7941 92.3 54.2068 92.2705 54.2068 92.2705C54.2068 92.2705 68.363 92.2974 68.363 90.0871C68.363 89.2659 67.9661 88.5395 67.3555 88.0823C67.3909 87.921 67.4099 87.754 67.4099 87.5829C67.4099 79.4567 71.2699 73.2355 75.3551 66.6487C79.6581 59.7123 84.107 52.5398 84.107 42.8653C84.107 28.1356 72.1222 16.1508 57.3921 16.1508C42.6624 16.1508 30.6772 28.1356 30.6772 42.8653C30.6772 52.5502 35.1334 59.7461 39.4433 66.7031C43.52 73.2886 47.3724 79.5091 47.3724 87.5829ZM48.1391 44.7166C48.5513 44.3198 49.1315 44.1486 49.6926 44.2588L57.4017 45.7368L65.1015 44.2561C65.6607 44.1509 66.2369 44.324 66.6465 44.7202C67.0554 45.1163 67.2469 45.6863 67.1597 46.2491L61.2042 84.6835C61.072 85.5384 60.3358 86.1691 59.4707 86.1691H55.3536C54.4891 86.1691 53.7532 85.5394 53.6201 84.6854L47.6219 46.251C47.5334 45.686 47.7266 45.1131 48.1391 44.7166Z" fill="#171449"/>
<path d="M46.7286 129.093C46.2074 127.818 45.6244 126.556 44.995 125.341C40.875 117.381 35.2173 112.069 29.7442 106.931C28.2022 105.485 26.2378 103.221 24.1579 100.823C21.1218 97.3255 17.982 93.7086 15.8723 92.3289C13.9607 91.0798 12.3987 91.0453 11.2286 92.2266C9.52263 93.9506 10.026 97.1622 12.8611 102.639C14.7557 106.3 17.5029 110.612 20.4118 115.177C20.8791 115.91 21.3536 116.656 21.8315 117.408C16.6797 111.774 12.8962 106.649 10.5685 102.152C7.89503 96.9877 7.35097 92.9966 9.03793 90.9161C10.229 89.4469 12.4961 89.0812 15.4214 89.888L15.855 90.007L15.7503 89.5689C15.6962 89.3426 10.2907 66.8225 9.14878 62.5602C8.89757 61.6203 8.54732 60.7138 8.10885 59.8671C6.53438 56.825 4.04625 54.9784 2.19204 55.4755C1.29707 55.7163 -0.176725 56.7332 0.0174197 60.8532L2.83219 96.4033C2.97649 97.5643 3.07782 98.7796 3.18539 100.068C3.51366 104.007 3.85374 108.08 5.4656 111.194C6.13593 112.489 6.91283 113.66 7.83994 114.77C9.50952 116.771 14.1529 121.603 19.0695 126.718C23.8552 131.698 28.8043 136.846 30.6116 138.996C32.0293 140.683 33.2562 142.542 34.3633 144.681C35.255 146.404 36.003 148.182 36.6714 149.999H53.969L53.7092 149.116C51.632 142.054 49.3479 135.505 46.7286 129.093Z" fill="#171449"/>
<path d="M112.589 55.4762C110.735 54.9787 108.247 56.8254 106.672 59.8678C106.233 60.7145 105.884 61.621 105.632 62.5609C104.491 66.8232 99.0849 89.3433 99.0308 89.5699L98.9265 90.0078L99.3597 89.8887C102.285 89.082 104.552 89.447 105.744 90.9171C107.431 92.9976 106.886 96.9888 104.213 102.153C101.885 106.65 98.1014 111.774 92.9497 117.409C93.4278 116.657 93.902 115.911 94.3694 115.177C97.2782 110.612 100.025 106.3 101.92 102.64C104.755 97.1626 105.259 93.951 103.553 92.2273C102.383 91.0454 100.82 91.0801 98.9088 92.3296C96.7991 93.7093 93.6594 97.3262 90.6232 100.824C88.5434 103.221 86.579 105.485 85.037 106.932C79.5642 112.07 73.9061 117.381 69.7861 125.341C69.1568 126.557 68.5737 127.819 68.0526 129.094C65.4333 135.506 63.1491 142.055 61.0713 149.118L60.8115 150H78.1091C78.7774 148.182 79.5255 146.405 80.4172 144.682C81.5243 142.544 82.7512 140.684 84.1689 138.997C85.9762 136.847 90.9256 131.698 95.7107 126.719C100.627 121.604 105.271 116.772 106.94 114.772C107.867 113.661 108.644 112.49 109.315 111.195C110.926 108.081 111.266 104.009 111.595 100.07C111.703 98.781 111.804 97.5656 111.948 96.4047L114.763 60.8546C114.958 56.7339 113.484 55.7173 112.589 55.4762Z" fill="#171449"/>
</svg>
