<svg width="804" height="525" viewBox="0 0 804 525" fill="none" xmlns="http://www.w3.org/2000/svg">
<path d="M793.327 271.622C881.264 524.198 396.925 524.198 396.925 524.198C396.925 524.198 0 552.578 0 271.622C0 6.74852 176.788 -78.3895 344.705 78.6428C513.203 137.293 661.997 -105.586 793.327 271.622Z" fill="#F2F2F2"/>
<path opacity="0.1" d="M591.796 401.063C614.265 401.063 632.479 398.329 632.479 394.957C632.479 391.585 614.265 388.851 591.796 388.851C569.328 388.851 551.114 391.585 551.114 394.957C551.114 398.329 569.328 401.063 591.796 401.063Z" fill="#4E16B0"/>
<path d="M576.693 383.942L498.366 382.939L498.599 380.928L502.383 347.764H571.172L576.231 380.928L576.618 383.44L576.693 383.942Z" fill="#D0D2D5"/>
<path opacity="0.1" d="M576.618 383.44H537.531L498.366 382.939L498.599 380.928H576.231L576.618 383.44Z" fill="black"/>
<path d="M589.247 381.43H485.311V383.942H589.247V381.43Z" fill="#D0D2D5"/>
<path d="M688.409 148.577C688.414 147.717 688.249 146.865 687.925 146.07C687.6 145.274 687.122 144.55 686.518 143.939C685.914 143.328 685.196 142.843 684.404 142.51C683.612 142.177 682.762 142.004 681.904 142H391.647C389.913 142.009 388.254 142.707 387.034 143.94C385.814 145.174 385.133 146.841 385.142 148.577V324.652H688.409V148.577Z" fill="#444053"/>
<path d="M385.142 322.892V343.515C385.142 345.241 385.827 346.897 387.047 348.118C388.267 349.339 389.922 350.025 391.647 350.025H681.904C682.758 350.026 683.604 349.858 684.394 349.531C685.183 349.204 685.901 348.724 686.505 348.12C687.109 347.515 687.589 346.797 687.915 346.007C688.242 345.217 688.41 344.37 688.409 343.515V322.892H385.142Z" fill="#D0D2D5"/>
<path d="M677.362 153.055H397.695V311.336H677.362V153.055Z" fill="white"/>
<path d="M538.283 342.203C539.31 342.204 540.324 341.97 541.247 341.522C542.171 341.073 542.981 340.42 543.615 339.612C543.809 339.365 543.985 339.105 544.143 338.834L540.442 338.218L544.464 338.249C544.849 337.409 545.06 336.498 545.082 335.574C545.104 334.65 544.937 333.731 544.591 332.873L539.198 335.675L544.174 332.015C543.702 331.219 543.073 330.528 542.325 329.984C541.577 329.441 540.726 329.056 539.824 328.854C538.921 328.651 537.988 328.636 537.079 328.808C536.171 328.981 535.307 329.337 534.542 329.856C533.776 330.375 533.125 331.045 532.628 331.825C532.13 332.605 531.798 333.479 531.651 334.392C531.503 335.306 531.544 336.239 531.771 337.136C531.998 338.033 532.405 338.875 532.969 339.608C533.602 340.414 534.408 341.066 535.329 341.516C536.249 341.965 537.259 342.2 538.283 342.203Z" fill="#4E16B0"/>
<path opacity="0.1" d="M545.062 350.025L576.311 381.43L571.515 350.025H545.062Z" fill="black"/>
<path opacity="0.1" d="M677.447 153.072H397.476V162.319H677.447V153.072Z" fill="#444053"/>
<path d="M406.773 154.682H399.423C399.234 154.682 399.081 154.836 399.081 155.025V159.966C399.081 160.155 399.234 160.309 399.423 160.309H406.773C406.962 160.309 407.116 160.155 407.116 159.966V155.025C407.116 154.836 406.962 154.682 406.773 154.682Z" fill="#4E16B0"/>
<path opacity="0.3" d="M578.781 154.682H494.938C494.797 154.682 494.683 154.797 494.683 154.938V160.054C494.683 160.194 494.797 160.309 494.938 160.309H578.781C578.922 160.309 579.036 160.194 579.036 160.054V154.938C579.036 154.797 578.922 154.682 578.781 154.682Z" fill="#4E16B0"/>
<path d="M576.53 158.074H576.324L576.249 158.013C576.505 157.705 576.646 157.318 576.649 156.917C576.647 156.588 576.548 156.266 576.363 155.993C576.179 155.719 575.917 155.507 575.612 155.383C575.307 155.258 574.972 155.227 574.649 155.293C574.326 155.359 574.03 155.519 573.799 155.754C573.567 155.988 573.41 156.286 573.347 156.61C573.285 156.933 573.319 157.268 573.447 157.572C573.575 157.876 573.79 158.136 574.065 158.317C574.34 158.499 574.662 158.595 574.992 158.593C575.39 158.587 575.774 158.446 576.082 158.193L576.156 158.255V158.461L577.444 159.75L577.827 159.363L576.53 158.074ZM574.992 158.074C574.762 158.075 574.537 158.008 574.345 157.88C574.154 157.753 574.004 157.572 573.916 157.359C573.828 157.147 573.804 156.913 573.849 156.688C573.894 156.462 574.004 156.255 574.167 156.092C574.329 155.929 574.536 155.818 574.762 155.774C574.987 155.729 575.221 155.753 575.433 155.841C575.646 155.929 575.827 156.079 575.954 156.271C576.081 156.462 576.149 156.687 576.148 156.917C576.149 157.07 576.12 157.221 576.062 157.362C576.004 157.502 575.919 157.63 575.812 157.738C575.704 157.846 575.576 157.931 575.435 157.989C575.295 158.046 575.144 158.076 574.992 158.074Z" fill="#444053"/>
<path d="M673.429 160.309C674.983 160.309 676.242 159.048 676.242 157.493C676.242 155.938 674.983 154.678 673.429 154.678C671.875 154.678 670.616 155.938 670.616 157.493C670.616 159.048 671.875 160.309 673.429 160.309Z" fill="#4E16B0"/>
<path opacity="0.1" d="M601.581 197.582H473.398C468.958 197.582 465.358 200.943 465.358 205.087V275.7C465.358 279.843 468.958 283.204 473.398 283.204H601.581C606.021 283.204 609.621 279.843 609.621 275.7V205.087C609.621 200.943 606.021 197.582 601.581 197.582Z" fill="black"/>
<path d="M596.597 193.561H478.468C473.935 193.561 470.261 197.238 470.261 201.774V270.971C470.261 275.507 473.935 279.184 478.468 279.184H596.597C601.13 279.184 604.804 275.507 604.804 270.971V201.774C604.804 197.238 601.13 193.561 596.597 193.561Z" fill="#6C63FF"/>
<path opacity="0.3" d="M503.672 241.721H486.502C485.337 241.721 484.392 242.667 484.392 243.833V246.872C484.392 248.039 485.337 248.984 486.502 248.984H503.672C504.837 248.984 505.782 248.039 505.782 246.872V243.833C505.782 242.667 504.837 241.721 503.672 241.721Z" fill="#4E16B0"/>
<path opacity="0.3" d="M532.319 241.721H515.149C513.984 241.721 513.039 242.667 513.039 243.833V246.872C513.039 248.039 513.984 248.984 515.149 248.984H532.319C533.484 248.984 534.429 248.039 534.429 246.872V243.833C534.429 242.667 533.484 241.721 532.319 241.721Z" fill="#4E16B0"/>
<path opacity="0.3" d="M541.483 256.63H526.986C525.821 256.63 524.876 257.575 524.876 258.741V259.867C524.876 261.033 525.821 261.979 526.986 261.979H541.483C542.648 261.979 543.593 261.033 543.593 259.867V258.741C543.593 257.575 542.648 256.63 541.483 256.63Z" fill="#4E16B0"/>
<path opacity="0.3" d="M560.965 241.721H543.795C542.63 241.721 541.686 242.667 541.686 243.833V246.872C541.686 248.039 542.63 248.984 543.795 248.984H560.965C562.13 248.984 563.075 248.039 563.075 246.872V243.833C563.075 242.667 562.13 241.721 560.965 241.721Z" fill="#4E16B0"/>
<path opacity="0.3" d="M589.612 241.721H572.442C571.277 241.721 570.333 242.667 570.333 243.833V246.872C570.333 248.039 571.277 248.984 572.442 248.984H589.612C590.777 248.984 591.722 248.039 591.722 246.872V243.833C591.722 242.667 590.777 241.721 589.612 241.721Z" fill="#4E16B0"/>
<path d="M499.518 224.521H487.597C486.881 224.521 486.3 225.102 486.3 225.819V237.749C486.3 238.466 486.881 239.047 487.597 239.047H499.518C500.234 239.047 500.815 238.466 500.815 237.749V225.819C500.815 225.102 500.234 224.521 499.518 224.521Z" fill="#4E16B0"/>
<path d="M495.944 234.173H491.364V229.589H495.944V234.173ZM491.548 233.983H495.751V229.778H491.548V233.983Z" fill="#454B69"/>
<path d="M493.747 224.521H493.558V229.681H493.747V224.521Z" fill="#454B69"/>
<path d="M493.747 234.076H493.558V239.047H493.747V234.076Z" fill="#454B69"/>
<path d="M491.456 231.687H486.3V231.876H491.456V231.687Z" fill="#454B69"/>
<path d="M500.819 231.687H495.852V231.876H500.819V231.687Z" fill="#454B69"/>
<path d="M491.391 229.752L489.892 228.26H486.3V228.067H489.971L491.527 229.615L491.391 229.752Z" fill="#454B69"/>
<path d="M495.913 229.752L495.786 229.611L497.531 228.067H500.814V228.26H497.605L495.913 229.752Z" fill="#454B69"/>
<path d="M489.975 235.937H486.3V235.743H489.887L491.386 234.014L491.531 234.142L489.975 235.937Z" fill="#454B69"/>
<path d="M500.815 235.937H497.527L495.782 234.146L495.918 234.01L497.61 235.743H500.815V235.937Z" fill="#454B69"/>
<path d="M523.171 200.155H486.098C485.103 200.155 484.296 200.963 484.296 201.959V205.614C484.296 206.611 485.103 207.418 486.098 207.418H523.171C524.167 207.418 524.974 206.611 524.974 205.614V201.959C524.974 200.963 524.167 200.155 523.171 200.155Z" fill="#4E16B0"/>
<path d="M611.559 313.254C611.533 312.497 611.441 311.741 611.348 310.988C611.01 308.164 610.663 305.34 610.113 302.555C610.016 302.012 609.869 301.479 609.674 300.963C609.476 300.475 609.203 300.026 608.997 299.542C608.999 299.525 608.999 299.507 608.997 299.489C609.252 299.366 609.502 299.243 609.748 299.111C609.926 299.021 610.097 298.916 610.258 298.799C610.421 298.681 610.557 298.532 610.658 298.359C611.098 297.585 610.606 296.599 610.381 295.719C610.144 294.774 610.197 293.639 609.502 293.005C607.023 290.806 608.254 286.319 607.014 283.169C606.795 282.619 606.544 282.078 606.355 281.515C606.21 281.075 606.109 280.635 606.003 280.195C605.124 276.529 604.198 272.88 603.225 269.246C602.201 265.481 602.311 261.557 601.027 257.879C600.785 257.117 600.468 256.38 600.082 255.679C599.652 254.95 599.071 254.321 598.377 253.836C596.504 252.543 594.618 251.439 592.421 250.968C590.223 250.497 587.849 250.572 585.607 250.581C584.804 249.466 583.7 248.604 582.425 248.096L582.385 247.981C582.206 247.536 582.068 247.075 581.972 246.604C581.9 246.138 581.863 245.668 581.862 245.197C581.862 244.691 581.84 244.18 581.827 243.675L581.95 243.556C582.244 243.245 582.515 242.913 582.759 242.562C582.994 242.23 583.2 241.878 583.374 241.51C583.572 241.093 583.739 240.662 583.875 240.221C584.143 239.33 584.324 238.415 584.416 237.49C584.535 236.403 584.57 235.29 584.601 234.203C584.601 233.984 584.601 233.764 584.601 233.539V233.376C584.601 233.2 584.601 233.029 584.601 232.857V232.8C584.637 231.677 584.354 230.566 583.783 229.598C582.987 228.41 581.625 227.838 580.31 227.363C577.673 226.448 574.776 225.845 572.17 226.826C570.099 227.609 568.446 229.316 566.402 230.183C566.449 230.261 566.492 230.342 566.53 230.425C566.531 230.436 566.531 230.448 566.53 230.46C566.565 230.539 566.596 230.614 566.622 230.693C566.689 230.871 566.737 231.055 566.767 231.243C566.827 231.598 566.827 231.961 566.767 232.316C566.15 232.593 565.469 232.693 564.798 232.607C565.051 233.435 565.473 234.202 566.038 234.859C566.218 235.088 566.407 235.299 566.587 235.541L566.864 235.884C567.335 236.437 567.719 237.058 568.003 237.727C568.107 237.992 568.179 238.268 568.218 238.55C568.301 239.108 568.279 239.751 568.354 240.309C568.382 240.55 568.443 240.785 568.534 241.009C568.703 242.168 569.144 243.27 569.823 244.224C570.502 245.178 571.398 245.956 572.438 246.494C572.723 248.233 572.723 250.008 572.438 251.747C572.438 251.844 572.403 251.94 572.381 252.037C571.185 253.546 570.038 255.138 568.565 256.317C567.895 256.842 567.179 257.305 566.424 257.699C565.982 257.954 565.507 258.151 565.013 258.284C564.46 258.411 563.879 258.394 563.33 258.53C562.268 258.867 561.375 259.595 560.829 260.567C560.551 261.08 560.243 261.577 559.906 262.054C559.598 262.436 559.211 262.749 558.886 263.114C557.708 264.434 557.387 266.343 557.128 268.129C556.211 269.142 555.207 270.07 554.125 270.904C553.787 271.174 553.411 271.392 553.009 271.551C551.971 271.899 550.833 271.454 549.932 270.786C549.031 270.117 548.327 269.237 547.457 268.551L547.228 268.89C547.163 268.825 547.103 268.756 547.048 268.683C546.691 268.18 546.444 267.607 546.323 267.003C546.006 265.379 546.604 263.642 546.138 262.062C545.967 261.491 545.554 260.901 544.982 260.914C544.411 260.928 544.055 261.499 543.562 261.768C542.771 262.208 541.804 261.807 541.022 261.372C540.239 260.936 539.347 260.448 538.49 260.708C538.473 260.991 538.524 261.274 538.638 261.534C538.752 261.794 538.925 262.023 539.145 262.203C539.586 262.553 539.949 262.992 540.209 263.492C540.337 264.038 540.386 264.6 540.354 265.159C540.442 266.444 541.233 267.548 541.998 268.551C542.947 269.768 543.941 270.95 544.978 272.097C544.853 272.315 544.658 272.484 544.424 272.576C544.365 272.785 544.365 273.005 544.424 273.214C544.467 273.358 544.523 273.498 544.591 273.632C544.692 273.839 544.815 274.041 544.921 274.23L546.464 276.944L546.714 277.384C546.82 277.569 546.925 277.745 547.035 277.925C547.399 278.557 547.831 279.147 548.323 279.685C548.568 279.943 548.839 280.176 549.132 280.38C549.322 280.517 549.524 280.638 549.734 280.741C550.028 280.891 550.342 280.999 550.666 281.062C550.825 281.096 550.987 281.116 551.149 281.123C551.318 281.137 551.487 281.137 551.655 281.123C552.162 281.053 552.659 280.924 553.136 280.741C556.077 279.707 558.776 278.057 561.572 276.654C561.956 276.439 562.369 276.279 562.798 276.179C562.943 276.151 563.09 276.139 563.238 276.144C563.387 276.148 563.535 276.173 563.677 276.219C563.818 276.266 563.951 276.332 564.073 276.416C564.319 276.582 564.491 276.838 564.552 277.129C564.635 277.569 564.715 277.978 564.794 278.4C564.873 278.823 564.961 279.245 565.049 279.667C565.224 280.508 565.413 281.348 565.633 282.179C565.752 282.619 565.866 283.085 565.98 283.543C566.262 284.66 566.539 285.786 566.794 286.913C566.873 287.264 566.948 287.621 567.018 287.973C567.149 288.599 567.243 289.232 567.299 289.869C567.301 289.883 567.301 289.898 567.299 289.913C567.343 290.467 567.348 291.017 567.352 291.571V293.309L567.396 298.438C567.396 299.177 567 299.639 566.688 300.303C566.627 300.439 566.57 300.58 566.521 300.721C566.462 300.9 566.414 301.082 566.376 301.267C566.376 301.324 566.35 301.385 566.341 301.442C566.332 301.5 566.341 301.579 566.315 301.645C566.288 301.711 566.315 301.777 566.293 301.838C566.271 301.9 566.293 301.97 566.293 302.032C566.293 302.094 566.293 302.173 566.293 302.243C566.293 302.313 566.293 302.366 566.293 302.423C566.293 302.481 566.293 302.577 566.293 302.652C566.293 302.727 566.293 302.762 566.293 302.815C566.293 302.868 566.323 302.987 566.337 303.075L566.363 303.206C566.394 303.334 566.424 303.462 566.468 303.589C566.556 303.853 566.666 304.113 566.781 304.368C566.895 304.623 567.009 304.883 567.106 305.146C567.167 305.314 567.22 305.484 567.264 305.657C567.275 305.696 567.284 305.735 567.29 305.776C567.326 305.912 567.356 306.048 567.383 306.189V306.286C567.409 306.435 567.431 306.589 567.449 306.726C567.451 306.743 567.451 306.761 567.449 306.778C567.449 306.95 567.484 307.122 567.493 307.293C567.532 307.918 567.523 308.556 567.493 309.185L567.44 312.317V312.414C567.435 312.511 567.456 312.608 567.501 312.695C567.533 312.745 567.577 312.785 567.628 312.813C567.68 312.84 567.737 312.854 567.796 312.854C568.019 312.837 568.232 312.755 568.407 312.616L569.805 311.6H569.893C568.789 313.408 567.906 315.401 567.734 317.525C567.668 318.928 567.758 320.334 568.003 321.718C569.29 330.955 572.323 340.277 571.686 349.603C571.436 353.276 572.956 356.857 572.948 360.535C572.948 361.964 572.706 363.381 572.644 364.806C572.376 370.929 575.497 377.123 574.227 383.106C574.666 384.593 576.332 385.385 576.803 386.863C577.198 388.116 576.627 389.449 576.165 390.677C575.999 391.104 575.871 391.546 575.783 391.996C574.504 391.996 573.084 392.023 572.231 392.379C571.995 392.456 571.764 392.551 571.541 392.661C570.754 393.131 570.701 394.42 571.198 395.199C571.695 395.977 574.486 398.463 575.304 398.872L577.093 399.752C578.053 400.295 579.091 400.686 580.17 400.913C581.078 401.014 581.996 400.996 582.9 400.86C583.598 400.786 584.372 400.671 584.825 400.099C585.462 399.29 585.137 397.975 584.702 396.804C584.863 396.676 584.987 396.508 585.062 396.316C585.139 396.01 585.179 395.695 585.181 395.379C585.31 394.767 585.52 394.176 585.805 393.62C586.539 391.829 586.508 389.814 586.464 387.866C586.472 384.697 586.255 381.532 585.814 378.395C585.594 377.075 585.295 375.755 585.04 374.435C584.102 369.656 583.7 364.787 583.84 359.919C583.856 358.736 583.692 357.558 583.352 356.426C583.208 355.772 583.17 355.099 583.238 354.433L583.765 346.378C583.916 344.74 583.941 343.093 583.84 341.452C583.765 340.572 583.62 339.692 583.533 338.812C583.399 337.135 583.371 335.451 583.449 333.771C583.497 331.963 583.581 330.023 584.614 328.571C584.667 328.478 584.737 328.396 584.822 328.33C584.906 328.265 585.003 328.217 585.106 328.189C585.317 328.158 585.379 328.444 585.3 328.628C585.409 328.963 585.524 329.293 585.638 329.627C585.673 329.724 585.704 329.816 585.739 329.909C585.796 330.08 585.858 330.252 585.919 330.423C585.981 330.595 586.007 330.661 586.047 330.78L586.218 331.219C586.267 331.351 586.319 331.479 586.368 331.607C586.416 331.734 586.478 331.884 586.535 332.02C586.592 332.156 586.649 332.293 586.711 332.429C586.772 332.566 586.816 332.68 586.873 332.807L587.084 333.247C587.137 333.357 587.19 333.472 587.247 333.582C587.304 333.692 587.418 333.903 587.506 334.061C587.555 334.154 587.603 334.246 587.656 334.334C587.796 334.58 587.941 334.818 588.095 335.055C588.394 335.495 588.715 335.935 588.974 336.406C589.066 336.561 589.148 336.721 589.221 336.885C589.464 337.493 589.656 338.12 589.796 338.759C589.95 339.34 590.13 339.908 590.328 340.466C590.526 341.025 590.768 341.584 590.983 342.129C591.102 342.402 591.225 342.674 591.348 342.943C591.717 343.757 592.117 344.557 592.522 345.349C592.593 345.489 592.649 345.637 592.689 345.789C592.709 345.863 592.725 345.938 592.737 346.013C592.753 346.16 592.753 346.307 592.737 346.453C592.732 346.545 592.72 346.636 592.702 346.726C592.676 346.862 592.636 346.994 592.583 347.122C592.043 348.358 592.478 349.577 592.715 350.791C592.923 352.07 593.023 353.365 593.014 354.662C593.014 355.102 593.014 355.542 593.054 355.951C593.054 356.487 593.054 357.02 593.084 357.556C593.115 358.093 593.084 358.709 593.115 359.285C593.125 359.862 593.101 360.44 593.045 361.014C593.045 361.216 592.992 361.414 592.961 361.612C592.865 362.206 592.728 362.796 592.61 363.372C592.171 365.692 591.967 368.05 592.003 370.41C592.003 371.358 592.034 372.306 592.095 373.256C592.148 374.211 592.223 375.161 592.306 376.116C592.35 376.639 592.403 377.163 592.456 377.686C592.544 378.592 592.64 379.499 592.737 380.405C592.834 381.311 592.939 382.31 593.032 383.255C593.124 384.201 593.207 385.147 593.273 386.088C593.315 386.555 593.217 387.023 592.992 387.435C592.903 387.598 592.83 387.768 592.772 387.945C592.731 388.067 592.699 388.192 592.676 388.319C592.65 388.464 592.632 388.611 592.623 388.759C592.612 389.068 592.63 389.377 592.676 389.682C592.699 389.835 592.725 389.982 592.755 390.122C592.821 390.426 592.9 390.729 592.979 391.029C593.16 391.857 593.456 392.657 593.858 393.404C593.944 393.558 594.041 393.705 594.148 393.844C594.179 393.888 594.214 393.927 594.249 393.971C594.34 394.077 594.424 394.189 594.5 394.306C594.536 394.36 594.567 394.417 594.592 394.477C594.682 394.721 594.701 394.985 594.645 395.238C594.596 395.502 594.504 395.766 594.434 396.017L594.662 396.048C594.341 397.064 594.192 398.107 594.733 398.788C595.172 399.36 595.959 399.475 596.658 399.549C597.561 399.689 598.479 399.708 599.388 399.607C600.467 399.38 601.505 398.988 602.465 398.445L604.254 397.565C605.071 397.156 607.858 394.688 608.355 393.888C608.852 393.087 608.795 391.825 608.016 391.354C607.794 391.242 607.563 391.146 607.326 391.068C606.535 390.738 605.256 390.707 604.06 390.69C603.999 390.25 603.964 389.77 603.946 389.317C603.866 387.634 603.898 385.947 604.043 384.267C604.144 383.075 604.298 381.887 604.285 380.695C604.285 379.103 603.955 377.528 603.783 375.944C603.612 374.361 603.594 372.812 603.568 371.246C603.528 368.941 604.205 366.746 604.5 364.467L605.014 360.46C605.101 359.973 605.112 359.476 605.049 358.986C604.97 358.546 604.768 358.106 604.685 357.666C604.504 356.668 604.957 355.678 605.098 354.671C605.26 353.514 605.01 352.339 604.847 351.178C604.634 349.344 604.533 347.499 604.544 345.653C604.386 334.303 604.065 322.699 600.232 312.079C600.078 311.639 599.911 311.2 599.739 310.79C599.817 310.769 599.893 310.744 599.968 310.716C600.088 310.671 600.201 310.612 600.306 310.54C600.353 310.511 600.397 310.479 600.438 310.443C600.561 310.321 600.65 310.169 600.698 310.003C600.749 309.842 600.776 309.675 600.777 309.506C600.771 309.208 600.729 308.913 600.649 308.626L600.597 308.446C600.509 308.147 600.412 307.852 600.311 307.566C600.214 307.28 600.109 307.003 599.999 306.721C599.77 306.199 599.584 305.659 599.445 305.107C599.177 303.858 599.445 302.415 598.693 301.398C597.032 299.12 598.205 295.618 597.511 292.842C597.282 291.963 596.948 291.083 596.737 290.203C596.605 289.64 596.522 289.064 596.438 288.487C596.218 287.241 596.11 285.978 596.113 284.713C596.113 284.08 596.21 283.446 596.284 282.817L596.812 278.453C597.401 279.582 597.822 280.792 598.06 282.043C598.1 282.223 598.135 282.399 598.175 282.579C598.65 284.732 599.237 286.858 599.933 288.949C600.333 290.212 600.728 291.47 601.159 292.719C601.287 293.076 601.41 293.436 601.524 293.801C601.636 294.166 601.724 294.538 601.788 294.914C601.836 295.213 601.858 295.521 601.88 295.825C601.902 296.128 601.92 296.441 601.95 296.744C602.094 298.044 602.53 299.293 603.225 300.4C603.247 300.428 603.268 300.458 603.287 300.488C603.405 300.702 603.595 300.867 603.823 300.954C603.981 300.987 604.144 300.987 604.302 300.954H604.329C604.562 300.906 604.794 300.853 605.023 300.796C605.057 300.789 605.091 300.78 605.124 300.769C605.23 302.133 605.634 303.492 605.669 304.869C605.713 306.871 604.979 308.789 604.513 310.729C604.121 312.499 603.858 314.296 603.726 316.104C603.666 316.463 603.689 316.83 603.792 317.178C603.842 317.347 603.95 317.493 604.095 317.592C604.241 317.69 604.417 317.735 604.592 317.719C604.716 317.677 604.83 317.611 604.927 317.524C605.025 317.437 605.104 317.331 605.159 317.213C605.682 316.343 605.857 315.307 605.647 314.314C606.065 314.402 606.28 314.881 606.381 315.317C606.649 316.446 606.584 317.628 606.197 318.722C605.937 319.452 605.537 320.125 605.318 320.877C605.239 321.111 605.239 321.365 605.318 321.599C605.537 322.105 606.232 322.069 606.733 321.885C608.371 321.216 609.701 319.962 610.465 318.366C611.243 316.777 611.619 315.022 611.559 313.254Z" fill="url(#paint0_linear)"/>
<path d="M585.915 400.139C585.444 400.706 584.64 400.821 583.91 400.895C582.968 401.031 582.013 401.049 581.066 400.948C579.95 400.723 578.874 400.335 577.871 399.796L576.007 398.916C575.159 398.507 572.257 396.052 571.739 395.256C571.22 394.46 571.273 393.206 572.09 392.735C572.324 392.625 572.565 392.531 572.811 392.454C574.183 391.908 576.961 392.185 578.42 391.974C579.144 391.94 579.862 392.109 580.495 392.463C581.937 393.1 584.477 393.606 585.106 395.229C585.594 396.479 586.93 398.903 585.915 400.139Z" fill="#2F2E41"/>
<path d="M596.267 398.934C596.738 399.501 597.542 399.615 598.272 399.69C600.351 400.079 602.5 399.686 604.307 398.586L606.171 397.706C607.023 397.297 609.925 394.843 610.443 394.046C610.962 393.25 610.909 391.992 610.087 391.526C609.856 391.413 609.617 391.319 609.371 391.244C607.999 390.699 605.221 390.976 603.762 390.765C603.037 390.729 602.316 390.898 601.683 391.253C600.245 391.891 597.727 392.397 597.076 394.02C596.575 395.274 595.234 397.697 596.267 398.934Z" fill="#2F2E41"/>
<path d="M600.799 309.986C601.248 310.85 601.64 311.744 601.973 312.66C605.964 323.218 606.298 334.77 606.465 346.062C606.45 347.898 606.554 349.734 606.777 351.556C606.944 352.713 607.217 353.879 607.036 355.036C606.891 356.034 606.421 357.02 606.597 358.01C606.68 358.45 606.891 358.889 606.975 359.329C607.041 359.817 607.027 360.311 606.935 360.794L606.403 364.78C606.096 367.05 605.392 369.232 605.432 371.523C605.458 373.085 605.485 374.647 605.656 376.2C605.911 377.764 606.086 379.341 606.179 380.924C606.179 382.112 606.03 383.295 605.924 384.479C605.776 386.149 605.743 387.827 605.823 389.502C605.885 390.791 606.034 392.142 606.702 393.228C605.933 394.328 605.177 395.313 603.951 395.868C601.458 396.959 598.597 396.589 595.902 396.198C596.052 395.7 596.28 395.137 596.065 394.662C595.94 394.433 595.785 394.221 595.603 394.033C595.017 393.195 594.608 392.246 594.403 391.244C594.078 390.052 593.753 388.772 594.403 387.633C594.632 387.232 594.735 386.772 594.698 386.313C594.139 378.835 592.473 371.075 594.008 363.724C594.17 362.941 594.364 362.158 594.447 361.362C594.53 360.217 594.545 359.068 594.491 357.922L594.509 356.281C594.43 354.578 594.509 352.832 594.157 351.147C593.915 349.942 593.458 348.728 594.021 347.496C594.142 347.216 594.197 346.911 594.183 346.607C594.168 346.302 594.084 346.004 593.937 345.736C592.753 343.661 591.801 341.461 591.098 339.177C590.952 338.54 590.752 337.916 590.5 337.312C590.157 336.675 589.763 336.068 589.322 335.495C588.003 333.556 587.185 331.308 586.403 329.091C586.487 328.884 586.403 328.602 586.205 328.651C586.098 328.677 585.998 328.724 585.91 328.79C585.821 328.856 585.747 328.938 585.691 329.033C584.618 330.476 584.526 332.403 584.478 334.207C584.397 335.878 584.426 337.554 584.566 339.221C584.654 340.101 584.807 340.981 584.887 341.861C584.99 343.494 584.963 345.133 584.807 346.761L584.267 354.741C584.19 355.404 584.228 356.075 584.381 356.725C584.734 357.848 584.906 359.019 584.891 360.196C584.753 365.035 585.177 369.875 586.157 374.616C586.421 375.936 586.733 377.229 586.961 378.544C587.418 381.664 587.644 384.814 587.638 387.967C587.687 389.907 587.717 391.926 586.953 393.686C586.652 394.238 586.433 394.831 586.302 395.445C586.301 395.76 586.26 396.074 586.179 396.378C585.955 396.954 585.3 397.201 584.68 397.332C583.544 397.579 582.38 397.662 581.221 397.579C580.949 397.576 580.681 397.516 580.434 397.403C579.994 397.178 579.774 396.703 579.445 396.347C578.737 395.573 577.559 395.335 576.913 394.508C576.104 393.47 576.442 391.97 576.913 390.747C577.383 389.524 577.985 388.2 577.572 386.951C577.084 385.486 575.374 384.694 574.891 383.216C576.209 377.26 572.965 371.101 573.242 365.008C573.308 363.588 573.554 362.18 573.559 360.759C573.559 357.099 571.99 353.536 572.24 349.885C572.904 340.607 569.743 331.343 568.407 322.136C568.151 320.763 568.057 319.365 568.126 317.97C568.324 315.665 569.392 313.522 570.675 311.6C571.598 310.223 572.706 308.873 574.231 308.23C575.489 307.698 576.895 307.702 578.258 307.711C581.66 307.738 585.062 307.764 588.465 307.826C590.78 307.792 593.093 307.999 595.366 308.442C597.208 308.859 598.931 309.717 600.799 309.986Z" fill="#2F2E41"/>
<g opacity="0.1">
<path opacity="0.1" d="M586.763 329.007C586.877 328.816 587.062 328.679 587.278 328.624C587.497 328.593 587.563 328.875 587.48 329.064C588.262 331.264 589.062 333.529 590.394 335.469C590.839 336.04 591.234 336.648 591.577 337.286C591.827 337.89 592.027 338.514 592.174 339.151C592.878 341.434 593.828 343.634 595.01 345.71C595.158 345.977 595.242 346.275 595.257 346.58C595.271 346.885 595.215 347.19 595.093 347.47C594.53 348.701 594.988 349.915 595.234 351.121C595.572 352.806 595.506 354.552 595.585 356.254C595.585 356.787 595.585 357.319 595.616 357.851C595.673 358.998 595.66 360.147 595.577 361.291C595.484 362.088 595.291 362.871 595.137 363.654C593.607 371.004 595.269 378.751 595.827 386.243C595.866 386.702 595.765 387.162 595.537 387.562C594.869 388.702 595.194 389.982 595.537 391.174C595.739 392.177 596.148 393.127 596.737 393.963C596.908 394.154 597.056 394.365 597.177 394.592C597.392 395.067 597.177 395.63 597.01 396.127C598.2 396.319 599.401 396.446 600.605 396.51C599.042 396.523 597.481 396.395 595.941 396.127C596.091 395.63 596.319 395.067 596.104 394.592C595.979 394.362 595.824 394.151 595.643 393.963C595.056 393.125 594.648 392.176 594.442 391.174C594.117 389.982 593.792 388.702 594.442 387.562C594.671 387.162 594.774 386.702 594.737 386.243C594.179 378.764 592.513 371.004 594.047 363.654C594.21 362.871 594.403 362.088 594.486 361.291C594.569 360.147 594.584 358.998 594.53 357.851C594.53 357.319 594.508 356.787 594.495 356.254C594.416 354.552 594.495 352.806 594.144 351.121C593.902 349.915 593.445 348.701 594.007 347.47C594.128 347.189 594.184 346.885 594.169 346.58C594.155 346.275 594.071 345.977 593.924 345.71C592.74 343.635 591.787 341.435 591.084 339.151C590.937 338.514 590.737 337.89 590.486 337.286C590.144 336.649 589.75 336.041 589.308 335.469C588.034 333.617 587.247 331.488 586.5 329.368C586.596 329.258 586.675 329.13 586.763 329.007Z" fill="black"/>
</g>
<path d="M545.831 267.689C545.501 266.075 546.125 264.346 545.637 262.775C545.461 262.208 545.031 261.618 544.437 261.632C543.844 261.645 543.47 262.212 542.96 262.481C542.138 262.921 541.136 262.52 540.323 262.089C539.51 261.658 538.565 261.165 537.685 261.425C537.58 261.988 537.958 262.52 538.371 262.912C538.824 263.258 539.2 263.696 539.474 264.196C539.681 264.715 539.584 265.296 539.628 265.855C539.721 267.13 540.507 268.235 541.338 269.229C542.64 270.831 544.024 272.365 545.483 273.826C545.483 273.826 547.681 271.081 547.65 270.601C547.62 270.122 546.868 269.721 546.595 269.361C546.221 268.867 545.959 268.296 545.831 267.689Z" fill="#A1616A"/>
<path d="M611.792 301.473C611.989 301.986 612.137 302.516 612.232 303.057C612.803 305.828 613.164 308.639 613.52 311.446C613.612 312.194 613.709 312.946 613.735 313.698C613.838 315.491 613.47 317.279 612.667 318.885C611.857 320.501 610.473 321.756 608.786 322.404C608.267 322.589 607.542 322.624 607.313 322.122C607.232 321.89 607.232 321.637 607.313 321.405C607.52 320.657 607.937 319.984 608.192 319.259C608.594 318.174 608.661 316.994 608.386 315.871C608.28 315.431 608.056 314.961 607.621 314.873C607.838 315.864 607.654 316.901 607.111 317.758C607.051 317.877 606.968 317.983 606.867 318.069C606.766 318.155 606.649 318.22 606.522 318.26C606.343 318.278 606.162 318.235 606.01 318.138C605.859 318.04 605.745 317.894 605.687 317.723C605.581 317.377 605.558 317.011 605.621 316.654C605.759 314.853 606.032 313.065 606.438 311.305C606.922 309.374 607.691 307.469 607.638 305.476C607.594 303.673 606.878 301.9 607.08 300.11C607.077 300.01 607.107 299.913 607.166 299.833C607.225 299.753 607.31 299.695 607.405 299.67C607.91 299.463 608.429 299.291 608.957 299.155C609.269 299.076 610.333 298.715 610.632 298.873C610.931 299.032 610.948 299.81 611.071 300.083C611.304 300.536 611.59 300.985 611.792 301.473Z" fill="#A1616A"/>
<path d="M576.218 248.025C580.284 248.025 583.581 244.726 583.581 240.657C583.581 236.587 580.284 233.288 576.218 233.288C572.151 233.288 568.855 236.587 568.855 240.657C568.855 244.726 572.151 248.025 576.218 248.025Z" fill="#A1616A"/>
<path d="M582.816 245.989C582.813 246.459 582.85 246.928 582.926 247.392C583.028 247.861 583.176 248.319 583.366 248.76C583.61 249.48 583.957 250.161 584.394 250.783C584.838 251.411 585.505 251.846 586.258 251.998C581.224 254.36 575.85 255.914 570.333 256.603C571.201 256.025 571.924 255.253 572.442 254.347C572.72 253.767 572.908 253.148 573.001 252.512C573.473 249.848 573.235 247.106 572.311 244.563C572.218 244.317 572.13 244.009 572.311 243.802C572.386 243.729 572.476 243.672 572.574 243.635C574.759 242.707 577.12 242.265 579.493 242.342C580.1 242.342 580.706 242.373 581.313 242.417C581.638 242.443 582.355 242.373 582.632 242.61C582.909 242.848 582.786 243.78 582.794 244.163L582.816 245.989Z" fill="#A1616A"/>
<path d="M586.71 251.364C585.627 249.976 584.11 248.991 582.402 248.565C580.695 248.14 578.894 248.298 577.286 249.015C573.769 250.691 572.055 254.734 568.974 257.074C568.272 257.599 567.525 258.06 566.741 258.451C566.278 258.706 565.785 258.901 565.273 259.032C564.697 259.159 564.099 259.141 563.514 259.278C562.421 259.599 561.49 260.322 560.908 261.301C560.62 261.814 560.3 262.308 559.949 262.779C559.629 263.162 559.228 263.475 558.89 263.84C557.664 265.159 557.33 267.051 557.053 268.828C556.093 269.838 555.045 270.761 553.923 271.586C553.571 271.858 553.18 272.074 552.762 272.229C551.686 272.58 550.494 272.136 549.576 271.472C548.657 270.808 547.91 269.932 547.004 269.272C546.173 270.46 545.303 271.657 544.415 272.792C544.282 273.012 544.077 273.18 543.835 273.267C543.668 273.83 544.068 274.411 544.367 274.912L545.971 277.613C546.504 278.595 547.155 279.508 547.91 280.332C548.688 281.142 549.739 281.636 550.859 281.717C551.568 281.711 552.269 281.575 552.929 281.317C556.006 280.288 558.798 278.647 561.721 277.248C562.248 276.948 562.838 276.774 563.444 276.742C563.747 276.735 564.044 276.827 564.289 277.004C564.535 277.181 564.717 277.433 564.807 277.723C565.141 279.412 565.47 281.093 565.928 282.747C566.364 284.313 566.767 285.883 567.136 287.458C567.384 288.425 567.56 289.408 567.664 290.401C567.712 290.964 567.717 291.527 567.725 292.095L567.787 298.922C567.787 299.661 567.374 300.118 567.048 300.778C566.558 301.804 566.484 302.98 566.842 304.06C567.022 304.592 567.308 305.085 567.51 305.613C567.994 306.884 567.976 308.283 567.95 309.642L567.892 312.757C567.876 312.887 567.899 313.018 567.958 313.135C568.147 313.43 568.605 313.258 568.895 313.056L570.332 312.07C572.28 312.34 574.248 312.435 576.213 312.356C581.8 312.277 587.392 312.497 592.965 312.889C594.829 313.021 596.75 313.161 598.508 312.541C599.388 312.224 600.223 311.719 601.146 311.468C601.523 311.406 601.88 311.255 602.188 311.028C602.697 310.557 602.561 309.708 602.355 309.066C602.17 308.485 601.963 307.909 601.73 307.346C601.494 306.827 601.3 306.29 601.15 305.74C600.873 304.5 601.15 303.061 600.372 302.05C598.64 299.784 599.867 296.296 599.137 293.537C598.904 292.658 598.557 291.778 598.337 290.898C598.196 290.335 598.108 289.763 598.025 289.191C597.794 287.952 597.681 286.695 597.686 285.434C597.686 284.805 597.788 284.176 597.867 283.552L598.416 279.205C599.101 280.492 599.579 281.878 599.832 283.314C600.331 285.459 600.947 287.575 601.678 289.653C602.091 290.907 602.504 292.156 602.952 293.401C603.239 294.112 603.459 294.848 603.607 295.601C603.704 296.203 603.709 296.819 603.779 297.422C603.926 298.721 604.378 299.968 605.098 301.06C605.232 301.314 605.454 301.51 605.722 301.614C605.9 301.653 606.084 301.653 606.262 301.614C608.206 301.23 610.088 300.578 611.854 299.678C612.229 299.521 612.555 299.266 612.799 298.939C613.274 298.165 612.742 297.202 612.509 296.322C612.276 295.442 612.32 294.25 611.581 293.621C609.001 291.421 610.262 286.965 608.992 283.833C608.764 283.283 608.5 282.751 608.306 282.188C608.157 281.748 608.047 281.308 607.937 280.868C607.038 277.223 606.073 273.591 605.045 269.972C603.981 266.224 604.095 262.322 602.755 258.662C602.503 257.898 602.174 257.161 601.774 256.463C601.326 255.732 600.726 255.107 600.016 254.628C598.069 253.339 596.108 252.244 593.818 251.778C591.528 251.311 589.04 251.338 586.71 251.364Z" fill="#3F3D56"/>
<path d="M569.528 242.46C568.539 241.928 568.798 240.476 568.649 239.381C568.302 237.089 565.721 235.734 565.132 233.499C565.829 233.586 566.536 233.486 567.181 233.209C567.304 232.467 567.158 231.705 566.768 231.062C568.891 230.183 570.614 228.507 572.768 227.728C575.484 226.747 578.482 227.35 581.243 228.26C582.61 228.7 584.029 229.303 584.856 230.482C585.761 231.779 585.735 233.482 585.7 235.065C585.625 237.547 585.524 240.116 584.421 242.337C583.018 245.166 579.04 247.783 575.752 247.018C574.39 246.701 573.994 245.839 573.409 244.651C573.049 243.912 572.917 243.054 572.091 242.667C571.264 242.28 570.332 242.891 569.528 242.46Z" fill="#3F3D56"/>
<g opacity="0.1">
<path opacity="0.1" d="M567.929 310.165C567.927 310.178 567.927 310.191 567.929 310.204C568.118 310.499 568.575 310.328 568.865 310.125L570.325 309.118C572.273 309.386 574.241 309.48 576.206 309.399C581.793 309.32 587.384 309.54 592.958 309.932C594.822 310.064 596.743 310.204 598.501 309.584C599.38 309.267 600.215 308.766 601.139 308.511C601.457 308.452 601.764 308.342 602.048 308.185C602.154 308.476 602.255 308.766 602.347 309.065C602.554 309.729 602.69 310.556 602.18 311.027C601.873 311.254 601.516 311.405 601.139 311.467C600.224 311.718 599.38 312.224 598.501 312.54C596.743 313.161 594.822 313.02 592.958 312.888C587.384 312.496 581.793 312.276 576.206 312.356C574.244 312.434 572.279 312.338 570.333 312.07L568.874 313.081C568.584 313.284 568.127 313.455 567.938 313.161C567.878 313.044 567.855 312.912 567.872 312.782C567.892 311.911 567.911 311.039 567.929 310.165Z" fill="black"/>
<path opacity="0.1" d="M599.832 283.305C599.579 281.869 599.102 280.482 598.417 279.196L597.867 283.542C597.832 283.815 597.797 284.088 597.766 284.36C597.696 283.735 597.669 283.106 597.687 282.478C597.687 281.848 597.788 281.219 597.867 280.595L598.417 276.249C599.102 277.535 599.579 278.922 599.832 280.357C600.331 282.502 600.948 284.619 601.678 286.696C602.091 287.95 602.505 289.204 602.953 290.444C603.239 291.155 603.458 291.892 603.608 292.644C603.705 293.246 603.709 293.862 603.779 294.465C603.924 295.765 604.376 297.012 605.098 298.103C605.23 298.357 605.45 298.555 605.718 298.657C605.897 298.689 606.082 298.682 606.258 298.635C608.202 298.251 610.084 297.599 611.85 296.7C612.083 296.585 612.303 296.445 612.505 296.282C612.738 297.161 613.27 298.125 612.795 298.899C612.551 299.225 612.225 299.481 611.85 299.638C610.084 300.538 608.202 301.189 606.258 301.574C606.08 301.613 605.896 301.613 605.718 301.574C605.45 301.471 605.23 301.274 605.098 301.019C604.377 299.928 603.925 298.681 603.779 297.381C603.709 296.779 603.705 296.163 603.608 295.56C603.459 294.808 603.24 294.072 602.953 293.361C602.513 292.116 602.074 290.866 601.678 289.613C600.949 287.545 600.332 285.439 599.832 283.305Z" fill="black"/>
<path opacity="0.1" d="M599.379 295.283C599.379 295.477 599.379 295.675 599.379 295.873C599.388 295.675 599.384 295.481 599.379 295.283Z" fill="black"/>
<path opacity="0.1" d="M567.497 302.682C567.98 303.954 567.963 305.353 567.936 306.712C567.936 307.068 567.936 307.42 567.936 307.776C567.899 307.043 567.751 306.319 567.497 305.63C567.295 305.102 567.009 304.609 566.829 304.077C566.521 303.145 566.533 302.137 566.864 301.213C567.044 301.715 567.303 302.185 567.497 302.682Z" fill="black"/>
<path opacity="0.1" d="M544.424 272.765L544.675 272.439L545.994 274.639C546.525 275.622 547.176 276.535 547.932 277.358C548.701 278.182 549.749 278.692 550.873 278.787C551.581 278.78 552.282 278.646 552.943 278.391C556.02 277.358 558.811 275.717 561.735 274.318C562.253 274.017 562.833 273.839 563.431 273.799C563.734 273.793 564.031 273.886 564.277 274.064C564.523 274.241 564.704 274.494 564.794 274.784C565.128 276.469 565.458 278.149 565.915 279.803C566.351 281.369 566.754 282.94 567.124 284.515C567.371 285.481 567.548 286.465 567.651 287.458C567.699 288.021 567.704 288.588 567.708 289.151L567.774 295.983C567.775 296.083 567.766 296.183 567.748 296.282L567.708 292.099C567.708 291.531 567.708 290.968 567.651 290.405C567.548 289.412 567.371 288.429 567.124 287.462C566.749 285.887 566.346 284.317 565.915 282.751C565.475 281.097 565.128 279.416 564.794 277.727C564.704 277.438 564.523 277.185 564.277 277.008C564.031 276.831 563.734 276.739 563.431 276.746C562.825 276.779 562.235 276.952 561.708 277.252C558.798 278.651 555.994 280.292 552.917 281.321C552.257 281.579 551.555 281.715 550.846 281.721C549.723 281.626 548.675 281.116 547.906 280.292C547.151 279.468 546.5 278.555 545.967 277.573C545.435 276.671 544.899 275.774 544.363 274.872C544.064 274.371 543.664 273.79 543.831 273.227C544.076 273.147 544.286 272.983 544.424 272.765Z" fill="black"/>
</g>
<g opacity="0.1">
<path opacity="0.1" d="M567.146 232.127C567.08 231.746 566.943 231.38 566.741 231.049C566.864 231 566.987 230.947 567.11 230.891C567.206 231.297 567.218 231.717 567.146 232.127Z" fill="black"/>
<path opacity="0.1" d="M568.631 238.295C568.798 239.408 568.539 240.855 569.51 241.374C570.31 241.814 571.268 241.194 572.055 241.572C572.842 241.95 572.996 242.817 573.374 243.556C573.95 244.744 574.354 245.601 575.717 245.923C579.005 246.688 582.983 244.066 584.385 241.238C585.488 239.016 585.589 236.447 585.664 233.966C585.664 233.843 585.664 233.724 585.664 233.601C585.664 234.08 585.664 234.564 585.664 235.039C585.589 237.52 585.488 240.09 584.385 242.311C582.983 245.14 579.005 247.757 575.717 246.992C574.354 246.675 573.958 245.813 573.374 244.625C573.013 243.886 572.881 243.028 572.055 242.641C571.229 242.254 570.297 242.878 569.51 242.447C568.521 241.915 568.78 240.463 568.631 239.368C568.284 237.076 565.703 235.721 565.114 233.487C565.273 233.508 565.433 233.518 565.593 233.517C566.538 235.149 568.345 236.408 568.631 238.295Z" fill="black"/>
</g>
<path d="M396.897 365.268C395.687 364.615 394.384 364.153 393.033 363.9C394.013 363.763 394.981 363.545 395.925 363.249C398.435 362.452 399.701 361.388 398.752 360.864C397.802 360.341 394.993 360.561 392.483 361.357C391.636 361.603 390.826 361.963 390.075 362.426C389.815 361.876 389.112 361.238 388.009 360.631C385.78 359.404 382.782 358.788 381.314 359.25C379.846 359.712 380.466 361.084 382.699 362.329C383.789 362.916 384.954 363.349 386.162 363.618C385.36 363.717 384.565 363.864 383.78 364.058C381.05 364.713 379.468 365.708 380.263 366.257C381.059 366.807 383.899 366.755 386.633 366.099C387.627 365.882 388.59 365.541 389.499 365.083C389.723 365.65 390.439 366.328 391.6 366.966C393.829 368.189 396.826 368.809 398.295 368.347C399.763 367.885 399.125 366.491 396.897 365.268Z" fill="#4E16B0"/>
<path d="M364.148 322.984C363.389 322.575 362.57 322.287 361.722 322.131C362.339 322.047 362.948 321.91 363.542 321.722C365.111 321.225 365.906 320.556 365.3 320.23C364.693 319.905 362.953 320.041 361.379 320.538C360.85 320.692 360.344 320.917 359.876 321.207C359.554 320.713 359.096 320.323 358.557 320.085C357.163 319.315 355.286 318.928 354.368 319.205C353.449 319.483 353.84 320.354 355.247 321.123C355.939 321.491 356.679 321.762 357.445 321.928C356.941 321.988 356.44 322.076 355.946 322.192C354.236 322.601 353.247 323.226 353.748 323.578C354.249 323.93 356.021 323.89 357.73 323.481C358.353 323.346 358.955 323.134 359.524 322.848C359.829 323.369 360.29 323.78 360.843 324.022C362.24 324.792 364.117 325.179 365.036 324.902C365.955 324.625 365.546 323.754 364.148 322.984Z" fill="#4E16B0"/>
<path d="M632.518 387.778C640.357 387.778 646.712 386.554 646.712 385.046C646.712 383.537 640.357 382.314 632.518 382.314C624.679 382.314 618.324 383.537 618.324 385.046C618.324 386.554 624.679 387.778 632.518 387.778Z" fill="#4E16B0"/>
<path d="M632.281 386.049C633.194 386.049 633.933 385.08 633.933 383.885C633.933 382.689 633.194 381.72 632.281 381.72C631.368 381.72 630.628 382.689 630.628 383.885C630.628 385.08 631.368 386.049 632.281 386.049Z" fill="#3F3D56"/>
<path d="M632.281 383.405C633.194 383.405 633.933 382.436 633.933 381.24C633.933 380.045 633.194 379.076 632.281 379.076C631.368 379.076 630.628 380.045 630.628 381.24C630.628 382.436 631.368 383.405 632.281 383.405Z" fill="#3F3D56"/>
<path d="M632.281 380.757C633.194 380.757 633.933 379.788 633.933 378.593C633.933 377.397 633.194 376.428 632.281 376.428C631.368 376.428 630.628 377.397 630.628 378.593C630.628 379.788 631.368 380.757 632.281 380.757Z" fill="#3F3D56"/>
<path d="M632.281 378.113C633.194 378.113 633.933 377.144 633.933 375.949C633.933 374.753 633.194 373.784 632.281 373.784C631.368 373.784 630.628 374.753 630.628 375.949C630.628 377.144 631.368 378.113 632.281 378.113Z" fill="#3F3D56"/>
<path d="M632.281 375.465C633.194 375.465 633.933 374.496 633.933 373.301C633.933 372.105 633.194 371.136 632.281 371.136C631.368 371.136 630.628 372.105 630.628 373.301C630.628 374.496 631.368 375.465 632.281 375.465Z" fill="#3F3D56"/>
<path d="M632.281 372.821C633.194 372.821 633.933 371.852 633.933 370.656C633.933 369.461 633.194 368.492 632.281 368.492C631.368 368.492 630.628 369.461 630.628 370.656C630.628 371.852 631.368 372.821 632.281 372.821Z" fill="#3F3D56"/>
<path d="M632.281 370.173C633.194 370.173 633.933 369.204 633.933 368.009C633.933 366.813 633.194 365.844 632.281 365.844C631.368 365.844 630.628 366.813 630.628 368.009C630.628 369.204 631.368 370.173 632.281 370.173Z" fill="#3F3D56"/>
<path d="M638.465 349.902C638.691 349.615 638.896 349.312 639.081 348.996L634.738 348.283L639.432 348.319C639.883 347.338 640.129 346.275 640.155 345.196C640.182 344.116 639.988 343.043 639.586 342.041L633.283 345.314L639.094 341.038C638.548 340.1 637.816 339.284 636.942 338.641C636.068 337.998 635.071 337.541 634.013 337.3C632.955 337.059 631.86 337.038 630.793 337.238C629.727 337.439 628.714 337.857 627.816 338.466C626.918 339.075 626.155 339.862 625.573 340.779C624.992 341.696 624.606 342.722 624.438 343.795C624.27 344.867 624.324 345.963 624.597 347.014C624.871 348.064 625.357 349.047 626.025 349.902C625.673 350.351 625.37 350.836 625.12 351.349L630.76 354.279L624.746 352.26C624.47 353.079 624.329 353.938 624.329 354.803C624.325 356.58 624.923 358.305 626.025 359.699C625.108 360.867 624.538 362.27 624.38 363.747C624.222 365.224 624.482 366.716 625.131 368.052C625.78 369.388 626.792 370.514 628.05 371.302C629.309 372.09 630.763 372.508 632.247 372.508C633.732 372.508 635.186 372.09 636.445 371.302C637.703 370.514 638.715 369.388 639.363 368.052C640.012 366.716 640.273 365.224 640.115 363.747C639.957 362.27 639.387 360.867 638.47 359.699C639.567 358.302 640.164 356.577 640.163 354.8C640.162 353.023 639.564 351.298 638.465 349.902Z" fill="#4E16B0"/>
<path opacity="0.1" d="M624.329 354.798C624.325 356.575 624.923 358.301 626.025 359.694C625.108 360.863 624.538 362.265 624.38 363.742C624.222 365.22 624.482 366.711 625.131 368.047C625.78 369.384 626.792 370.51 628.05 371.298C629.309 372.086 630.763 372.504 632.247 372.504C633.732 372.504 635.186 372.086 636.445 371.298C637.703 370.51 638.714 369.384 639.363 368.047C640.012 366.711 640.273 365.22 640.115 363.742C639.957 362.265 639.387 360.863 638.47 359.694C639.529 358.348 624.329 353.91 624.329 354.798Z" fill="black"/>
<path d="M289.847 239.829C295.524 239.829 300.126 235.227 300.126 229.549C300.126 223.872 295.524 219.269 289.847 219.269C284.17 219.269 279.568 223.872 279.568 229.549C279.568 235.227 284.17 239.829 289.847 239.829Z" fill="#F2F2F2"/>
<path d="M329.408 301.636L153.5 194L96.0002 287.993L271.908 395.629L329.408 301.636Z" fill="#F2F2F2"/>
<path d="M313.777 331.451C312.17 327.756 309.697 324.511 304.75 321.781C302.194 320.335 299.448 319.254 296.592 318.568C298.513 317.675 300.28 316.483 301.827 315.035C304.101 313.001 305.825 310.427 306.838 307.549C307.771 304.625 308.152 301.553 307.963 298.49C307.609 293.093 306.549 287.857 303.723 284.098C300.896 280.339 296.913 277.448 291.645 275.424C287.598 273.882 283.454 272.918 277.03 272.565V252.037L264.181 260.068V272.597H253.902V259.426L240.733 252.037V272.597H212.755L221.749 288.017C224.527 288.021 226.41 288.278 227.37 288.756C228.267 289.14 229.004 289.821 229.458 290.684C229.876 291.487 230.068 293.382 230.068 296.306V351.946C230.068 354.838 229.876 356.701 229.458 357.536C229.04 358.371 228.816 359.11 227.82 359.56C226.824 360.01 226.792 359.978 224.029 359.978H223.997L212.755 375.398H240.7V395.958H253.87V375.398H264.149V395.958H276.998V375.269C285.349 374.852 291.292 373.759 296.078 371.96C302.277 369.647 307.031 366.274 310.436 361.841C313.841 357.408 315.222 350.629 315.511 345.393C315.736 340.735 315.222 334.727 313.777 331.451ZM253.87 289.945H253.873V289.518H262.855C267.907 289.518 284.745 287.834 285.025 301.587C285.307 315.34 262.855 314.778 262.855 314.778H253.873V313.717H253.87V289.945ZM253.87 329.137H264.149C266.237 329.137 273.419 329.456 276.034 329.574C277.1 329.613 278.155 329.801 279.169 330.133C279.538 330.259 279.889 330.4 280.268 330.557C281.852 331.069 283.346 331.826 284.697 332.8C285.578 333.381 286.352 334.109 286.987 334.952C287.262 335.332 287.516 335.728 287.745 336.138C288.354 337.167 288.805 338.281 289.085 339.443C289.391 340.566 289.55 341.724 289.557 342.887C289.557 345.39 289.095 347.462 287.954 349.216C286.409 351.805 283.875 353.639 281.022 354.934C273.647 358.288 264.149 358.05 264.149 358.05H253.87V329.137Z" fill="#3F3D56"/>
<path opacity="0.3" d="M292.628 229.982C292.531 229.741 292.351 229.543 292.122 229.421C291.979 229.337 291.825 229.274 291.665 229.234C291.773 229.182 291.872 229.113 291.958 229.029C292.086 228.91 292.183 228.761 292.239 228.595C292.291 228.425 292.313 228.247 292.302 228.069C292.301 227.774 292.219 227.485 292.064 227.234C291.892 227.004 291.657 226.83 291.387 226.731C291.126 226.629 290.849 226.573 290.568 226.565V225.373L289.848 225.839V226.567H289.272V225.802L288.533 225.373V226.567H286.965L287.469 227.461C287.576 227.454 287.683 227.469 287.784 227.504C287.835 227.527 287.876 227.567 287.901 227.616C287.932 227.722 287.944 227.833 287.935 227.942V231.172C287.943 231.281 287.932 231.391 287.901 231.496C287.878 231.544 287.865 231.587 287.809 231.613C287.754 231.64 287.752 231.638 287.597 231.638H287.595L286.965 232.533H288.531V233.726H289.27V232.533H289.846V233.726H290.566V232.525C290.931 232.519 291.292 232.454 291.636 232.333C291.955 232.219 292.235 232.015 292.441 231.746C292.62 231.459 292.719 231.129 292.725 230.791C292.744 230.518 292.711 230.243 292.628 229.982ZM289.27 227.573H289.27V227.549H289.773C290.057 227.549 291.001 227.451 291.016 228.249C291.032 229.047 289.773 229.015 289.773 229.015H289.27V228.953H289.27V227.573ZM289.27 229.848H289.846C289.963 229.848 290.366 229.866 290.512 229.873C290.572 229.876 290.631 229.886 290.688 229.906C290.709 229.913 290.728 229.921 290.75 229.93C290.839 229.96 290.923 230.004 290.998 230.06C291.048 230.094 291.091 230.137 291.126 230.185C291.181 230.264 291.221 230.353 291.244 230.446C291.261 230.511 291.27 230.578 291.27 230.646C291.276 230.774 291.245 230.902 291.18 231.013C291.088 231.161 290.952 231.277 290.792 231.345C290.492 231.468 290.17 231.529 289.846 231.526H289.27V229.848Z" fill="#482096"/>
<path d="M352.37 346.849C354.451 346.849 356.138 345.162 356.138 343.081C356.138 341 354.451 339.313 352.37 339.313C350.289 339.313 348.603 341 348.603 343.081C348.603 345.162 350.289 346.849 352.37 346.849Z" fill="#FF6584"/>
<path d="M382.071 384.099V341.196" stroke="#3F3D56" stroke-width="2" stroke-miterlimit="10"/>
<path d="M382.071 347.263C385.422 347.263 388.138 344.547 388.138 341.196C388.138 337.845 385.422 335.129 382.071 335.129C378.721 335.129 376.005 337.845 376.005 341.196C376.005 344.547 378.721 347.263 382.071 347.263Z" fill="#3F3D56"/>
<path d="M370.124 365.217C361.361 378.657 363.762 395.75 363.762 395.75C363.762 395.75 380.37 391.054 389.133 377.614C397.895 364.175 395.494 347.082 395.494 347.082C395.494 347.082 378.887 351.778 370.124 365.217Z" fill="#3F3D56"/>
<path d="M363.716 395.594C363.716 395.594 363.502 395.56 363.11 395.48C362.797 395.417 362.366 395.326 361.839 395.201C357.132 394.091 344.619 390.34 336.439 380.476C326.199 368.125 326.631 350.869 326.631 350.869C326.631 350.869 342.287 353.413 352.603 364.505C353.05 364.981 353.485 365.475 353.908 365.987C362.817 376.733 363.648 391.193 363.714 394.768C363.723 395.303 363.716 395.594 363.716 395.594Z" fill="#482096"/>
<path d="M357.401 365.217C366.163 378.657 363.762 395.75 363.762 395.75C363.762 395.75 347.155 391.054 338.392 377.614C329.629 364.175 332.03 347.082 332.03 347.082C332.03 347.082 348.638 351.778 357.401 365.217Z" stroke="#3F3D56" stroke-width="2" stroke-miterlimit="10"/>
<path opacity="0.1" d="M363.713 394.768C363.482 395.047 363.278 395.285 363.11 395.48C362.738 395.905 362.527 396.127 362.527 396.127C362.527 396.127 362.27 395.805 361.839 395.201C359.472 391.901 351.859 380.167 352.446 366.613C352.478 365.903 352.53 365.2 352.603 364.505C353.05 364.981 353.485 365.476 353.908 365.987C362.817 376.733 363.648 391.193 363.713 394.768Z" fill="black"/>
<path d="M376.706 367.593C376.013 383.623 364.116 396.127 364.116 396.127C364.116 396.127 353.341 382.643 354.034 366.614C354.727 350.584 366.624 338.08 366.624 338.08C366.624 338.08 377.399 351.564 376.706 367.593Z" fill="#482096"/>
<path d="M364.116 395.673L366.732 338.734" stroke="#3F3D56" stroke-width="2" stroke-miterlimit="10"/>
<path d="M114.46 395.736H386.214" stroke="#3F3D56" stroke-width="2" stroke-miterlimit="10"/>
<path d="M172.177 326.296C179.757 326.296 185.902 320.15 185.902 312.569C185.902 304.988 179.757 298.842 172.177 298.842C164.597 298.842 158.452 304.988 158.452 312.569C158.452 320.15 164.597 326.296 172.177 326.296Z" fill="#482096"/>
<path d="M148.848 358.602C156.428 358.602 162.573 352.456 162.573 344.875C162.573 337.294 156.428 331.148 148.848 331.148C141.268 331.148 135.123 337.294 135.123 344.875C135.123 352.456 141.268 358.602 148.848 358.602Z" fill="#482096"/>
<path d="M120.135 384.402C127.715 384.402 133.86 378.257 133.86 370.675C133.86 363.094 127.715 356.948 120.135 356.948C112.554 356.948 106.409 363.094 106.409 370.675C106.409 378.257 112.554 384.402 120.135 384.402Z" fill="#482096"/>
<path d="M120.123 395.5V370.6" stroke="#3F3D56" stroke-width="2" stroke-miterlimit="10"/>
<path d="M120.122 374.121C122.067 374.121 123.643 372.545 123.643 370.6C123.643 368.655 122.067 367.079 120.122 367.079C118.178 367.079 116.602 368.655 116.602 370.6C116.602 372.545 118.178 374.121 120.122 374.121Z" fill="#3F3D56"/>
<path d="M120.122 385.947C120.122 385.947 119.619 375.127 109.308 376.385L120.122 385.947Z" fill="#3F3D56"/>
<path d="M172.186 395.675V312.619" stroke="#3F3D56" stroke-width="2" stroke-miterlimit="10"/>
<path d="M172.186 316.101C174.13 316.101 175.707 314.525 175.707 312.58C175.707 310.635 174.13 309.059 172.186 309.059C170.241 309.059 168.665 310.635 168.665 312.58C168.665 314.525 170.241 316.101 172.186 316.101Z" fill="#3F3D56"/>
<path d="M161.372 376.193C163.316 376.193 164.893 374.616 164.893 372.671C164.893 370.727 163.316 369.15 161.372 369.15C159.427 369.15 157.851 370.727 157.851 372.671C157.851 374.616 159.427 376.193 161.372 376.193Z" fill="#3F3D56"/>
<path d="M172.186 330.567C172.186 330.567 171.683 319.748 161.372 321.005L172.186 330.567Z" fill="#3F3D56"/>
<path d="M172.186 361.238C172.186 361.238 171.683 350.419 161.372 351.676L172.186 361.238Z" fill="#3F3D56"/>
<path d="M172.186 394.707C172.186 394.707 174.449 373.677 161.372 372.671" stroke="#3F3D56" stroke-width="2" stroke-miterlimit="10"/>
<path d="M183.002 376.193C184.946 376.193 186.523 374.616 186.523 372.671C186.523 370.727 184.946 369.15 183.002 369.15C181.057 369.15 179.481 370.727 179.481 372.671C179.481 374.616 181.057 376.193 183.002 376.193Z" fill="#3F3D56"/>
<path d="M172.188 394.707C172.188 394.707 169.924 373.677 183.002 372.671" stroke="#3F3D56" stroke-width="2" stroke-miterlimit="10"/>
<path d="M183.216 343.162C185.161 343.162 186.737 341.585 186.737 339.641C186.737 337.696 185.161 336.119 183.216 336.119C181.272 336.119 179.695 337.696 179.695 339.641C179.695 341.585 181.272 343.162 183.216 343.162Z" fill="#3F3D56"/>
<path d="M172.403 360.555C172.403 360.555 170.139 340.647 183.217 339.641" stroke="#3F3D56" stroke-width="2" stroke-miterlimit="10"/>
<path d="M148.86 395.558V344.86" stroke="#3F3D56" stroke-width="2" stroke-miterlimit="10"/>
<path d="M148.86 348.381C150.805 348.381 152.381 346.805 152.381 344.86C152.381 342.915 150.805 341.339 148.86 341.339C146.916 341.339 145.339 342.915 145.339 344.86C145.339 346.805 146.916 348.381 148.86 348.381Z" fill="#3F3D56"/>
<path d="M148.86 359.2C148.86 359.2 148.357 348.381 138.046 349.639L148.86 359.2Z" fill="#3F3D56"/>
<path d="M148.86 394.59C148.86 394.59 151.124 373.784 138.046 372.778" stroke="#3F3D56" stroke-width="2" stroke-miterlimit="10"/>
<path d="M138.046 376.3C139.991 376.3 141.567 374.723 141.567 372.779C141.567 370.834 139.991 369.257 138.046 369.257C136.102 369.257 134.525 370.834 134.525 372.779C134.525 374.723 136.102 376.3 138.046 376.3Z" fill="#3F3D56"/>
<path d="M342.204 318.536C345.397 318.536 347.986 315.947 347.986 312.754C347.986 309.56 345.397 306.971 342.204 306.971C339.011 306.971 336.422 309.56 336.422 312.754C336.422 315.947 339.011 318.536 342.204 318.536Z" fill="#F2F2F2"/>
<path opacity="0.1" d="M281.023 354.934C273.648 358.288 264.149 358.05 264.149 358.05H253.871V356.087C258.059 354.918 263.851 354.195 270.253 354.195C273.856 354.182 277.455 354.429 281.023 354.934Z" fill="black"/>
<path opacity="0.1" d="M293.38 360.62C293.38 364.17 283.024 367.045 270.252 367.045C257.481 367.045 247.125 364.17 247.125 360.62C247.125 358.85 249.701 357.247 253.87 356.087V358.05H264.149C264.149 358.05 273.648 358.288 281.023 354.934C288.369 356.007 293.38 358.15 293.38 360.62Z" fill="black"/>
<path d="M273.207 320.615H263.366V330.474H273.207V320.615Z" fill="#2F2E41"/>
<path d="M267.025 327.587C267.025 327.587 267.84 330.438 266.414 330.642C265.53 330.779 264.691 331.129 263.971 331.66L266.618 335.122H271.505L274.559 332.067C274.559 332.067 270.487 329.012 271.301 327.179C272.116 325.347 267.025 327.587 267.025 327.587Z" fill="#FFB9B9"/>
<path opacity="0.1" d="M267.025 327.587C267.025 327.587 267.84 330.438 266.414 330.642C265.53 330.779 264.691 331.129 263.971 331.66L266.618 335.122H271.505L274.559 332.067C274.559 332.067 270.487 329.012 271.301 327.179C272.116 325.347 267.025 327.587 267.025 327.587Z" fill="black"/>
<path d="M268.247 363.022L272.931 364.651L276.188 364.855L275.985 362.003L269.265 360.016L268.247 363.022Z" fill="#FFB9B9"/>
<path d="M274.254 362.411C274.254 362.411 274.254 365.262 274.662 365.262C275.069 365.262 280.567 364.651 282.196 365.262C283.825 365.873 286.268 363.633 285.047 362.411C283.825 361.189 281.832 359.356 280.589 359.763C279.345 360.171 274.254 361.189 274.254 361.189L274.254 362.411Z" fill="#2F2E41"/>
<path d="M259.287 359.764C259.287 359.764 256.844 364.651 258.473 365.059C260.102 365.466 261.934 364.855 262.138 364.651C262.342 364.448 265.192 363.633 265.6 364.04C266.007 364.448 266.007 362.411 266.007 362.411L259.287 359.764Z" fill="#2F2E41"/>
<path d="M261.324 353.043C261.324 353.043 257.455 358.338 260.306 359.764C263.157 361.189 276.8 361.189 277.818 359.764C278.836 358.338 279.243 353.858 277.818 353.451C276.392 353.043 261.324 353.043 261.324 353.043Z" fill="#2F2E41"/>
<path opacity="0.2" d="M261.324 353.043C261.324 353.043 257.455 358.338 260.306 359.764C263.157 361.189 276.8 361.189 277.818 359.764C278.836 358.338 279.243 353.858 277.818 353.451C276.392 353.043 261.324 353.043 261.324 353.043Z" fill="black"/>
<path d="M268.654 329.012C271.241 329.012 273.338 326.915 273.338 324.328C273.338 321.741 271.241 319.644 268.654 319.644C266.068 319.644 263.971 321.741 263.971 324.328C263.971 326.915 266.068 329.012 268.654 329.012Z" fill="#FFB9B9"/>
<path d="M261.324 331.66L265.396 330.845C265.396 330.845 266.414 334.103 269.672 333.492C272.931 332.881 273.745 330.845 273.745 330.845C273.745 330.845 276.189 331.863 276.392 331.863C276.596 331.863 279.243 332.881 279.243 333.492C279.243 334.103 276.189 340.213 276.189 340.213L276.596 351.21L261.527 350.803L262.545 340.009L261.324 331.66Z" fill="#482096"/>
<path d="M259.084 336.955C259.084 336.955 257.862 347.748 258.677 348.563C259.491 349.377 262.75 351.618 262.75 351.618V349.174L261.12 346.119L262.75 338.991L259.084 336.955Z" fill="#FFB9B9"/>
<path d="M280.159 336.649C280.159 336.649 279.447 347.748 279.447 348.156C279.447 348.563 277.614 349.988 277.003 349.988C276.392 349.988 275.985 348.97 275.985 348.97L277.41 347.341L276.392 338.991L280.159 336.649Z" fill="#FFB9B9"/>
<path d="M278.225 352.228C278.225 352.228 287.388 347.137 287.592 352.228C287.795 357.32 282.908 359.356 282.908 359.356C282.908 359.356 270.283 363.142 269.774 361.758C269.265 360.374 268.247 358.134 269.061 357.931C269.876 357.727 270.894 357.32 271.301 357.727C271.709 358.134 276.799 354.672 276.799 354.672L278.225 352.228Z" fill="#2F2E41"/>
<path opacity="0.2" d="M282.501 351.618C282.501 351.618 280.668 352.432 280.057 353.043C279.446 353.654 276.799 354.672 276.799 354.672" stroke="black" stroke-width="2" stroke-miterlimit="10"/>
<path d="M262.546 332.067L261.324 331.66C261.324 331.66 256.844 336.344 258.27 337.566C259.695 338.787 260.51 339.195 260.917 339.602C261.324 340.009 263.36 340.213 263.36 340.213L262.546 332.067Z" fill="#482096"/>
<path d="M277.41 333.085L279.243 333.493C279.243 333.493 280.668 336.548 281.076 336.955C281.483 337.362 280.465 337.158 279.854 337.973C279.243 338.788 278.632 340.213 277.41 340.213C276.189 340.213 274.56 338.177 274.56 338.177L277.41 333.085Z" fill="#482096"/>
<path d="M261.731 354.061C261.731 354.061 253.993 348.563 251.346 352.636C248.699 356.709 262.749 362.207 264.785 363.022C266.822 363.837 268.654 364.651 268.654 364.651C268.654 364.651 270.487 360.171 270.487 359.356C270.487 358.542 269.062 358.542 268.654 358.542C268.247 358.542 266.414 358.134 266.007 357.523C265.6 356.912 261.731 354.061 261.731 354.061Z" fill="#2F2E41"/>
<path opacity="0.2" d="M257.455 352.636C257.455 352.636 259.491 354.265 261.324 354.672C263.157 355.08 263.768 356.098 263.768 356.098" stroke="black" stroke-width="2" stroke-miterlimit="10"/>
<path d="M260.326 344.979L260.489 353.601C260.494 353.886 260.612 354.157 260.817 354.356C261.021 354.554 261.295 354.664 261.58 354.66L277.625 354.48C277.898 354.477 278.16 354.37 278.358 354.182C278.556 353.993 278.674 353.736 278.69 353.463L279.177 345.021C279.186 344.874 279.164 344.727 279.114 344.589C279.063 344.451 278.985 344.324 278.884 344.217C278.784 344.11 278.662 344.025 278.527 343.967C278.392 343.909 278.247 343.879 278.1 343.879H261.405C261.262 343.879 261.12 343.908 260.988 343.963C260.855 344.019 260.736 344.1 260.635 344.202C260.535 344.305 260.456 344.426 260.403 344.559C260.35 344.693 260.324 344.835 260.326 344.979Z" fill="#575A89"/>
<path d="M258.47 331.711C258.907 330.747 259.495 329.842 259.774 328.821C260.11 327.597 259.979 326.302 259.939 325.033C259.876 323.911 259.971 322.786 260.223 321.691C260.479 320.591 261.054 319.591 261.875 318.815C264.009 316.91 267.914 316.773 270.52 317.566C271.547 317.879 272.642 318.474 272.896 319.518C272.935 319.675 272.952 319.838 272.995 319.994C273.208 320.771 274.003 321.262 274.289 322.015C274.66 322.988 274.089 324.047 274.014 325.086C273.927 326.3 274.523 327.446 275.111 328.511C275.46 329.144 275.823 329.818 275.789 330.54C275.76 330.935 275.64 331.318 275.438 331.659C275.063 332.277 274.538 332.79 273.911 333.149C273.284 333.508 272.577 333.703 271.854 333.714C271.385 333.751 270.915 333.64 270.512 333.397C269.876 332.959 269.69 332.077 269.822 331.316C269.955 330.555 270.341 329.867 270.643 329.157C270.736 328.939 270.82 328.717 270.897 328.493C271.835 327.97 272.558 327.131 272.938 326.126C273.318 325.121 273.331 324.014 272.974 323.001C272.617 321.987 271.914 321.132 270.988 320.587C270.062 320.042 268.974 319.842 267.914 320.021C266.855 320.201 265.893 320.749 265.199 321.569C264.505 322.389 264.122 323.428 264.12 324.503C264.117 325.577 264.494 326.618 265.184 327.442C265.874 328.265 266.833 328.818 267.892 329.003C268.12 330.153 268.016 331.343 267.593 332.436C267.208 333.325 266.724 334.168 266.152 334.949C265.917 335.349 265.605 335.699 265.233 335.976C264.988 336.122 264.725 336.234 264.451 336.311C263.301 336.681 262.09 336.978 260.893 336.812C259.697 336.645 258.511 335.924 258.104 334.786C257.746 333.789 258.033 332.676 258.47 331.711Z" fill="#2F2E41"/>
<path d="M268.427 324.515C271.172 324.515 273.398 323.254 273.398 321.698C273.398 320.142 271.172 318.881 268.427 318.881C265.682 318.881 263.457 320.142 263.457 321.698C263.457 323.254 265.682 324.515 268.427 324.515Z" fill="#2F2E41"/>
<path opacity="0.3" d="M344.365 313.09C344.29 312.903 344.151 312.748 343.972 312.654C343.861 312.589 343.742 312.54 343.617 312.509C343.701 312.468 343.778 312.415 343.845 312.35C343.945 312.257 344.02 312.141 344.063 312.012C344.104 311.88 344.121 311.741 344.112 311.603C344.112 311.374 344.048 311.15 343.928 310.954C343.794 310.776 343.611 310.64 343.401 310.563C343.198 310.484 342.983 310.441 342.765 310.434V309.509L342.205 309.871V310.436H341.757V309.842L341.184 309.509V310.436H339.965L340.357 311.131C340.44 311.125 340.523 311.137 340.602 311.164C340.641 311.182 340.673 311.213 340.692 311.251C340.716 311.334 340.725 311.42 340.719 311.505V314.014C340.725 314.099 340.716 314.184 340.692 314.266C340.674 314.304 340.664 314.337 340.621 314.358C340.578 314.378 340.576 314.376 340.456 314.376H340.455L339.965 315.072H341.182V315.999H341.756V315.072H342.204V315.999H342.763V315.066C343.047 315.061 343.327 315.011 343.594 314.917C343.843 314.828 344.06 314.67 344.22 314.46C344.36 314.238 344.436 313.981 344.441 313.719C344.456 313.506 344.43 313.293 344.365 313.09ZM341.756 311.218H341.756V311.199H342.147C342.367 311.199 343.101 311.123 343.113 311.743C343.125 312.363 342.147 312.338 342.147 312.338H341.756V312.29H341.756V311.218ZM341.756 312.986H342.204C342.295 312.986 342.607 313 342.721 313.005C342.768 313.007 342.814 313.016 342.858 313.03C342.874 313.036 342.889 313.043 342.906 313.05C342.975 313.073 343.04 313.107 343.099 313.151C343.137 313.177 343.171 313.21 343.199 313.248C343.241 313.309 343.272 313.378 343.29 313.45C343.303 313.501 343.31 313.553 343.31 313.606C343.315 313.706 343.291 313.805 343.241 313.891C343.169 314.006 343.063 314.096 342.939 314.149C342.706 314.244 342.456 314.292 342.204 314.289H341.756V312.986Z" fill="#482096"/>
<path d="M116.713 338.775C119.906 338.775 122.494 336.186 122.494 332.992C122.494 329.799 119.906 327.21 116.713 327.21C113.519 327.21 110.931 329.799 110.931 332.992C110.931 336.186 113.519 338.775 116.713 338.775Z" fill="#F2F2F2"/>
<path opacity="0.3" d="M118.874 333.329C118.798 333.142 118.659 332.987 118.481 332.893C118.37 332.828 118.25 332.779 118.125 332.748C118.209 332.707 118.286 332.653 118.353 332.588C118.453 332.496 118.528 332.38 118.572 332.251C118.612 332.119 118.629 331.98 118.621 331.842C118.62 331.613 118.556 331.388 118.436 331.193C118.302 331.015 118.119 330.879 117.91 330.802C117.706 330.723 117.491 330.68 117.273 330.673V329.747L116.713 330.11V330.675H116.266V330.081L115.692 329.747V330.675H114.473L114.865 331.37C114.948 331.364 115.031 331.376 115.11 331.403C115.149 331.421 115.181 331.452 115.201 331.49C115.225 331.572 115.234 331.658 115.227 331.744V334.253C115.233 334.338 115.224 334.423 115.201 334.505C115.183 334.543 115.173 334.576 115.129 334.596C115.086 334.617 115.085 334.615 114.964 334.615H114.963L114.473 335.311H115.691V336.238H116.264V335.311H116.712V336.238H117.272V335.305C117.555 335.3 117.836 335.249 118.103 335.156C118.351 335.067 118.568 334.908 118.728 334.699C118.868 334.477 118.944 334.22 118.949 333.957C118.964 333.745 118.939 333.532 118.874 333.329ZM116.264 331.457H116.264V331.438H116.656C116.876 331.438 117.609 331.362 117.621 331.982C117.634 332.602 116.656 332.577 116.656 332.577H116.264V332.529H116.264L116.264 331.457ZM116.264 333.224H116.712C116.803 333.224 117.116 333.239 117.23 333.244C117.276 333.246 117.322 333.254 117.366 333.269C117.382 333.275 117.398 333.281 117.414 333.288C117.483 333.312 117.549 333.346 117.607 333.389C117.646 333.416 117.679 333.449 117.707 333.487C117.749 333.548 117.78 333.617 117.798 333.689C117.812 333.74 117.818 333.792 117.819 333.844C117.823 333.944 117.799 334.043 117.749 334.13C117.677 334.245 117.572 334.335 117.447 334.388C117.214 334.483 116.964 334.531 116.712 334.528H116.264L116.264 333.224Z" fill="#482096"/>
<defs>
<linearGradient id="paint0_linear" x1="575.018" y1="401.019" x2="575.018" y2="226.32" gradientUnits="userSpaceOnUse">
<stop stop-color="#808080" stop-opacity="0.25"/>
<stop offset="0.54" stop-color="#808080" stop-opacity="0.12"/>
<stop offset="1" stop-color="#808080" stop-opacity="0.1"/>
</linearGradient>
</defs>
</svg>
