<svg width="641" height="454" viewBox="0 0 641 454" fill="none" xmlns="http://www.w3.org/2000/svg">
<g clip-path="url(#clip0)">
<path opacity="0.1" d="M213.106 453.745C244.322 453.745 269.628 449.681 269.628 444.668C269.628 439.654 244.322 435.59 213.106 435.59C181.89 435.59 156.584 439.654 156.584 444.668C156.584 449.681 181.89 453.745 213.106 453.745Z" fill="#6C63FF"/>
<path opacity="0.1" d="M520.351 454C559.304 454 590.882 449.936 590.882 444.923C590.882 439.91 559.304 435.846 520.351 435.846C481.398 435.846 449.821 439.91 449.821 444.923C449.821 449.936 481.398 454 520.351 454Z" fill="#6C63FF"/>
<path opacity="0.1" d="M8.02832 196.161H66.8996V276.394H12.3382C12.1932 277.218 12.054 278.047 11.9032 278.876H66.8996V343.583C66.801 343.554 66.714 343.519 66.6211 343.484C65.0666 342.869 63.5236 342.22 61.9806 341.524L60.9945 341.077C59.4476 340.346 57.9008 339.573 56.3539 338.757C55.8144 338.473 55.275 338.177 54.7413 337.875C46.1539 333.065 38.3526 326.971 31.6081 319.802C31.4109 319.611 31.2253 319.408 31.0281 319.222C30.0884 318.201 29.1661 317.169 28.2727 316.113L27.2866 314.953C26.2309 313.66 25.21 312.332 24.2181 310.986C24.073 310.789 23.9338 310.592 23.783 310.406C19.7489 304.813 16.3993 298.757 13.8058 292.368C13.7246 292.176 13.655 291.967 13.5796 291.788C12.783 289.738 12.0772 287.669 11.4623 285.581C11.1955 284.706 10.9403 283.841 10.7198 282.931C10.6386 282.664 10.569 282.403 10.5052 282.142C7.21042 269.283 6.82178 255.925 6.82178 242.66C6.82178 241.112 6.82178 239.557 6.82178 238.02C6.82178 232.655 6.88559 227.255 6.9784 221.861C6.9784 220.463 7.0364 219.071 7.06541 217.668C7.14662 214.106 7.26263 210.545 7.41345 206.984C7.44825 205.992 7.49466 205.006 7.54686 204.02C7.54686 203.451 7.57587 202.883 7.63388 202.315C7.77309 200.25 7.88911 198.202 8.02832 196.161Z" fill="#6C63FF"/>
<path opacity="0.1" d="M66.8994 106.827H34.6069C39.8562 98.6114 45.5917 90.7169 51.7828 83.1855C56.58 77.2926 61.644 71.5504 66.8994 66.0171V106.827Z" fill="#6C63FF"/>
<path opacity="0.1" d="M66.8995 109.309V193.678H8.21387C8.21387 193.435 8.25447 193.185 8.27187 192.942C8.32408 192.274 8.37629 191.607 8.43429 190.946C8.4981 190.169 8.56771 189.386 8.64312 188.626C8.71853 187.866 8.79974 186.938 8.88675 186.097C8.97376 185.256 9.05497 184.404 9.15358 183.563C9.25219 182.722 9.3392 181.881 9.44361 181.045C9.54803 180.21 9.64084 179.363 9.75105 178.528C9.83806 177.832 9.93087 177.142 10.0237 176.446C10.1571 175.466 10.2963 174.48 10.4471 173.505C10.4471 173.36 10.4877 173.209 10.5109 173.07C11.5697 165.937 13.0123 158.866 14.8325 151.888C16.7378 144.568 19.1707 137.396 22.1123 130.428C25.2387 123.138 28.8992 116.089 33.064 109.338L66.8995 109.309Z" fill="#6C63FF"/>
<path opacity="0.1" d="M80.9546 196.155V276.394H206.696V196.155H80.9546ZM80.9546 278.871V347.776C81.6739 347.927 82.3874 348.072 83.095 348.194C84.058 348.38 85.0151 348.548 85.9954 348.693C86.181 348.722 86.3724 348.751 86.5755 348.768C86.9583 348.832 87.3528 348.884 87.7356 348.936C88.7043 349.07 89.6672 349.18 90.636 349.267C91.0942 349.313 91.5583 349.354 92.0223 349.389L93.1418 349.476C93.7509 349.522 94.3542 349.557 94.9517 349.574C95.3229 349.574 95.6942 349.609 96.077 349.621C96.367 349.621 96.6571 349.621 96.9587 349.621C97.2603 349.621 97.6896 349.621 98.055 349.621C98.5539 349.621 99.0528 349.621 99.5458 349.621H100.213C100.712 349.621 101.211 349.621 101.704 349.574H101.738C102.081 349.574 102.429 349.574 102.777 349.528C102.873 349.534 102.97 349.534 103.067 349.528C103.357 349.528 103.647 349.528 103.925 349.487H104.128L106.072 349.337C106.71 349.279 107.354 349.203 108.003 349.134L109.326 348.977C114.706 348.223 120.027 347.091 125.249 345.59C136.978 342.318 148.451 337.742 160.175 334.39C175.332 330.068 192.079 327.946 206.725 333.23V278.871H80.9546ZM206.696 106.827V0.00582334C192.93 -0.143312 179.2 1.46669 165.842 4.79674C134.002 12.7951 105.434 30.1433 80.9546 52.2999V106.821H87.2657V109.298H80.9546V193.678H206.696V109.304H113.177V106.827H206.696ZM368.205 70.7443C360.328 70.4659 352.497 67.9718 345.414 64.1206C331.87 56.7544 321.051 45.3803 308.963 35.7811C283.846 15.788 252.696 3.72371 220.74 0.730841V106.827H400.242L400.689 106.357L368.205 70.7443ZM384.557 67.8442L401.896 86.8687V62.8561C396.089 63.5753 391.002 65.2864 384.58 67.821L384.557 67.8442ZM401.896 364.887V278.871H364.951C364.852 278.505 364.754 278.134 364.638 277.763C364.748 278.134 364.841 278.505 364.945 278.871H220.763V341.077C222.132 342.092 223.483 343.159 224.823 344.244C226.268 345.404 227.695 346.628 229.128 347.828L230.572 349.023C231.262 349.603 231.958 350.183 232.66 350.729C234.052 351.858 235.458 352.971 236.877 354.069C237.579 354.649 238.298 355.171 239.012 355.717C250.339 364.376 262.288 372.191 274.762 379.097C277.558 380.644 280.379 382.154 283.225 383.627C285.122 384.596 287.03 385.558 288.944 386.492C291.821 387.896 294.722 389.249 297.645 390.552C324.599 402.65 353.101 410.952 382.336 415.22C388.828 416.179 395.347 416.933 401.89 417.482V364.881H402.47L401.896 364.887ZM220.763 109.304V193.678H401.919V109.304H220.763ZM220.763 196.155V276.394H401.919V196.155H220.763ZM415.98 62.7517V89.5368L438.109 65.2574C430.777 64.0742 423.401 63.2293 415.98 62.7227V62.7517ZM415.98 196.184V276.394H592.176V196.155L415.98 196.184ZM591.532 371.255L592.152 278.871H415.98V418.405C427.329 418.881 438.695 418.746 450.03 417.999H450.227C455.641 417.658 461.03 417.163 466.393 416.514H466.515C495.13 413.184 523.111 405.719 549.581 394.351L591.532 371.255ZM626.15 209.368C625.489 207.807 624.799 206.259 624.097 204.727C622.786 201.827 621.4 199.009 619.973 196.19H606.225V276.394H640.983C640.965 253.681 635.217 230.48 626.168 209.339L626.15 209.368ZM606.225 278.9V358.362C616.017 348.977 624.288 338.241 630.246 325.968C637.41 311.189 640.687 295.186 640.954 278.888L606.225 278.9ZM606.225 172.804V193.684H618.685C614.916 186.496 610.762 179.516 606.242 172.775L606.225 172.804ZM486.731 78.4933C485.814 78.1453 484.898 77.7915 483.975 77.4493C474.248 73.8574 464.308 70.8704 454.212 68.5055L420.348 105.667L419.698 106.357L420.133 106.833H540.66C523.874 95.2792 505.777 85.7565 486.748 78.4643L486.731 78.4933ZM544.192 109.333H418.451L415.98 111.595V193.678H437.639H437.674H592.199V153.918C578.221 137.014 562.087 122.015 544.21 109.304L544.192 109.333Z" fill="#6C63FF"/>
<path opacity="0.1" d="M66.8995 151.865V193.678H8.21387C8.21387 193.435 8.25447 193.185 8.27187 192.942C8.32408 192.275 8.37629 191.608 8.43429 190.946C8.4981 190.169 8.56771 189.386 8.64312 188.626C8.71853 187.866 8.79974 186.938 8.88675 186.097C8.97376 185.256 9.05497 184.404 9.15358 183.563C9.25219 182.722 9.3392 181.881 9.44361 181.045C9.54803 180.21 9.64084 179.363 9.75105 178.528C9.83806 177.832 9.93087 177.142 10.0237 176.446C10.1571 175.466 10.2963 174.48 10.4471 173.505C10.4471 173.36 10.4877 173.21 10.5109 173.07C11.5697 165.937 13.0123 158.866 14.8325 151.888L66.8995 151.865Z" fill="#6C63FF"/>
<path opacity="0.1" d="M8.02832 196.161H66.8996V276.394H12.3382C12.1932 277.218 12.054 278.047 11.9032 278.876H66.8996V343.583C66.801 343.554 66.714 343.519 66.6211 343.484C65.0666 342.869 63.5236 342.22 61.9806 341.524L60.9945 341.077C59.4476 340.346 57.9008 339.573 56.3539 338.757C55.8144 338.473 55.275 338.177 54.7413 337.875C46.1539 333.065 38.3526 326.971 31.6081 319.802C31.4109 319.611 31.2253 319.408 31.0281 319.222C30.0884 318.201 29.1661 317.169 28.2727 316.113L27.2866 314.953C26.2309 313.66 25.21 312.332 24.2181 310.986C24.073 310.789 23.9338 310.592 23.783 310.406C19.7489 304.813 16.3993 298.757 13.8058 292.368C13.7246 292.176 13.655 291.967 13.5796 291.788C12.783 289.738 12.0772 287.669 11.4623 285.581C11.1955 284.706 10.9403 283.841 10.7198 282.931C10.6386 282.664 10.569 282.403 10.5052 282.142C7.21042 269.283 6.82178 255.925 6.82178 242.66C6.82178 241.112 6.82178 239.557 6.82178 238.02C6.82178 232.655 6.88559 227.255 6.9784 221.861C6.9784 220.463 7.0364 219.071 7.06541 217.668C7.14662 214.106 7.26263 210.545 7.41345 206.984C7.44825 205.992 7.49466 205.006 7.54686 204.02C7.54686 203.451 7.57587 202.883 7.63388 202.315C7.77309 200.25 7.88911 198.202 8.02832 196.161Z" fill="#6C63FF"/>
<path opacity="0.1" d="M125.22 121.385V193.678H80.9546V121.385H87.2657V96.9087H113.172V121.385H125.22Z" fill="#6C63FF"/>
<path opacity="0.1" d="M125.22 196.155H80.9604V276.388H125.22V196.155Z" fill="#6C63FF"/>
<path opacity="0.1" d="M80.9546 278.876H125.22V345.578C119.998 347.078 114.677 348.208 109.297 348.96L107.974 349.122C107.325 349.197 106.681 349.261 106.043 349.325C105.405 349.389 104.743 349.435 104.099 349.476H103.896C103.618 349.476 103.316 349.511 103.044 349.516H102.748C102.4 349.516 102.052 349.551 101.704 349.563C101.211 349.592 100.718 349.598 100.213 349.603C99.9983 349.603 99.7952 349.603 99.5806 349.603C99.0818 349.603 98.5887 349.603 98.0898 349.603H96.9935C96.6977 349.603 96.4134 349.603 96.106 349.603L94.9865 349.563C94.4064 349.563 93.7799 349.499 93.1766 349.458L92.0629 349.377L90.6766 349.25C89.702 349.163 88.7333 349.052 87.7762 348.919L86.6161 348.757L86.036 348.675C85.0673 348.525 84.1102 348.362 83.1356 348.177C82.4222 348.055 81.7145 347.904 80.9952 347.759L80.9546 278.876Z" fill="#6C63FF"/>
<path opacity="0.1" d="M401.918 112.847H365.42V193.672H401.918V112.847Z" fill="#6C63FF"/>
<path opacity="0.1" d="M401.924 196.155V276.394H220.763V241.784H317.257V262.201H365.42V196.155H401.924Z" fill="#6C63FF"/>
<path opacity="0.1" d="M402.498 364.904H401.918V417.54C395.383 416.988 388.867 416.235 382.37 415.284C353.121 411.002 324.607 402.683 297.645 390.564C289.861 387.061 282.235 383.237 274.767 379.091C262.294 372.182 250.343 364.367 239.012 355.711C236.165 353.53 233.356 351.299 230.583 349.018C228.663 347.434 226.755 345.81 224.823 344.233C223.483 343.148 222.132 342.081 220.763 341.06V278.877H364.939C364.84 278.505 364.742 278.134 364.637 277.769C364.748 278.134 364.852 278.505 364.951 278.877H401.918V364.869C402.116 364.875 402.307 364.893 402.498 364.904Z" fill="#6C63FF"/>
<path opacity="0.1" d="M497.108 106.827H473.325V99.4376H483.987V77.426C484.911 77.7624 485.831 78.1085 486.748 78.4643V99.4376H497.108V106.827Z" fill="#6C63FF"/>
<path opacity="0.1" d="M554.407 193.678H437.651C437.651 193.678 437.651 193.678 437.691 193.707L437.639 193.678H415.979V112.853H422.117V172.595H450.163V137.214H473.331V109.309H497.114V137.237H520.282V172.618H554.407V193.678Z" fill="#6C63FF"/>
<path opacity="0.1" d="M415.979 196.155V276.394H554.407V196.155H415.979ZM591.984 370.843L592.176 307.332H554.407V278.911H415.979V418.404C427.329 418.881 438.695 418.746 450.03 417.998H450.227C455.641 417.658 461.03 417.163 466.393 416.514H466.515C495.13 413.184 523.111 405.718 549.581 394.351" fill="#6C63FF"/>
<path opacity="0.1" d="M608.684 278.876H640.977C640.693 295.169 637.421 311.172 630.263 325.95C624.306 338.229 616.028 348.965 606.248 358.344V307.303H608.684V278.876Z" fill="#6C63FF"/>
<path opacity="0.1" d="M640.994 276.394H608.684V209.339H626.167C635.216 230.48 640.965 253.681 640.994 276.394Z" fill="#6C63FF"/>
<path opacity="0.1" d="M401.924 135.317H382.37V160.658H401.924V135.317Z" fill="#6C63FF"/>
<path opacity="0.1" d="M401.924 187.843H382.37V193.678H401.924V187.843Z" fill="#6C63FF"/>
<path opacity="0.1" d="M401.924 196.155H382.37V213.178H401.924V196.155Z" fill="#6C63FF"/>
<path opacity="0.1" d="M401.924 240.369H382.37V265.71H401.924V240.369Z" fill="#6C63FF"/>
<path opacity="0.1" d="M401.924 292.895H382.37V318.236H401.924V292.895Z" fill="#6C63FF"/>
<path opacity="0.1" d="M401.918 364.869C402.116 364.869 402.307 364.869 402.499 364.904H401.918V370.791H382.37V345.421H401.918V364.869Z" fill="#6C63FF"/>
<path opacity="0.1" d="M401.918 397.936V417.511C395.383 416.958 388.867 416.206 382.37 415.255V397.936H401.918Z" fill="#6C63FF"/>
<path opacity="0.1" d="M304.565 274.532H220.763V276.394H304.565V274.532Z" fill="#6C63FF"/>
<path opacity="0.1" d="M304.565 278.871H220.763V286.005H304.565V278.871Z" fill="#6C63FF"/>
<path opacity="0.1" d="M304.565 309.391H220.763V320.864H304.565V309.391Z" fill="#6C63FF"/>
<path opacity="0.1" d="M304.56 344.25V355.722H239.012C236.165 353.549 233.354 351.318 230.577 349.029C228.657 347.446 226.755 345.822 224.817 344.25H304.56Z" fill="#6C63FF"/>
<path opacity="0.1" d="M304.559 379.103V390.564H297.639C289.862 387.057 282.238 383.231 274.767 379.085L304.559 379.103Z" fill="#6C63FF"/>
<path opacity="0.1" d="M466.532 203.933H450.035V220.428H466.532V203.933Z" fill="#6C63FF"/>
<path opacity="0.1" d="M109.338 127.075H92.8403V143.571H109.338V127.075Z" fill="#6C63FF"/>
<path opacity="0.1" d="M109.338 165.391H92.8403V181.886H109.338V165.391Z" fill="#6C63FF"/>
<path opacity="0.1" d="M109.338 203.707H92.8403V220.202H109.338V203.707Z" fill="#6C63FF"/>
<path opacity="0.1" d="M109.338 242.017H92.8403V258.512H109.338V242.017Z" fill="#6C63FF"/>
<path opacity="0.1" d="M109.338 280.332H92.8403V296.828H109.338V280.332Z" fill="#6C63FF"/>
<path opacity="0.1" d="M109.338 318.648H92.8403V335.144H109.338V318.648Z" fill="#6C63FF"/>
<path opacity="0.1" d="M529.511 203.933H513.014V220.428H529.511V203.933Z" fill="#6C63FF"/>
<path opacity="0.1" d="M466.532 244.621H450.035V261.116H466.532V244.621Z" fill="#6C63FF"/>
<path opacity="0.1" d="M529.511 244.621H513.014V261.116H529.511V244.621Z" fill="#6C63FF"/>
<path opacity="0.1" d="M466.532 285.303H450.035V301.799H466.532V285.303Z" fill="#6C63FF"/>
<path opacity="0.1" d="M529.511 285.303H513.014V301.799H529.511V285.303Z" fill="#6C63FF"/>
<path opacity="0.1" d="M466.532 325.991H450.035V342.487H466.532V325.991Z" fill="#6C63FF"/>
<path opacity="0.1" d="M529.511 325.991H513.014V342.487H529.511V325.991Z" fill="#6C63FF"/>
<path opacity="0.1" d="M466.532 366.679H450.035V383.175H466.532V366.679Z" fill="#6C63FF"/>
<path opacity="0.1" d="M529.511 366.679H513.014V383.175H529.511V366.679Z" fill="#6C63FF"/>
<path opacity="0.1" d="M450.035 417.999V407.361H466.527V416.485L450.035 417.999Z" fill="#6C63FF"/>
<path opacity="0.1" d="M10.4414 173.059V182.495H66.8996V173.059H10.4414ZM16.0681 181.904H11.4623V173.639H16.1029L16.0681 181.904ZM21.689 181.904H17.0484V173.639H21.689V181.904ZM27.2982 181.904H22.6577V173.639H27.2982V181.904ZM32.9191 181.904H28.2843V173.639H32.9249L32.9191 181.904ZM38.5342 181.904H33.8936V173.639H38.5342V181.904ZM44.155 181.904H39.5145V173.639H44.155V181.904ZM49.7759 181.904H45.1354V173.639H49.7759V181.904ZM55.391 181.904H50.7504V173.639H55.391V181.904ZM61.0061 181.904H56.3655V173.639H61.0061V181.904ZM66.6211 181.904H61.9806V173.639H66.6211V181.904Z" fill="#6C63FF"/>
<path opacity="0.1" d="M10.4414 200.517V209.953H66.8996V200.517H10.4414ZM16.0681 209.356H11.4623V201.114H16.1029L16.0681 209.356ZM21.689 209.356H17.0484V201.114H21.689V209.356ZM27.2982 209.356H22.6577V201.114H27.2982V209.356ZM32.9191 209.356H28.2843V201.114H32.9249L32.9191 209.356ZM38.5342 209.356H33.8936V201.114H38.5342V209.356ZM44.155 209.356H39.5145V201.114H44.155V209.356ZM49.7759 209.356H45.1354V201.114H49.7759V209.356ZM55.391 209.356H50.7504V201.114H55.391V209.356ZM61.0061 209.356H56.3655V201.114H61.0061V209.356ZM66.6211 209.356H61.9806V201.114H66.6211V209.356Z" fill="#6C63FF"/>
<path opacity="0.1" d="M10.4414 227.986V237.44H66.8996V227.986H10.4414ZM16.0681 236.825H11.4623V228.578H16.1029L16.0681 236.825ZM21.689 236.825H17.0484V228.578H21.689V236.825ZM27.2982 236.825H22.6577V228.578H27.2982V236.825ZM32.9191 236.825H28.2843V228.578H32.9249L32.9191 236.825ZM38.5342 236.825H33.8936V228.578H38.5342V236.825ZM44.155 236.825H39.5145V228.578H44.155V236.825ZM49.7759 236.825H45.1354V228.578H49.7759V236.825ZM55.391 236.825H50.7504V228.578H55.391V236.825ZM61.0061 236.825H56.3655V228.578H61.0061V236.825ZM66.6211 236.825H61.9806V228.578H66.6211V236.825Z" fill="#6C63FF"/>
<path opacity="0.1" d="M10.4414 255.456V264.881H66.8996V255.456H10.4414ZM16.0681 264.295H11.4623V256.041H16.1029L16.0681 264.295ZM21.689 264.295H17.0484V256.041H21.689V264.295ZM27.2982 264.295H22.6577V256.041H27.2982V264.295ZM32.9191 264.295H28.2843V256.041H32.9249L32.9191 264.295ZM38.5342 264.295H33.8936V256.041H38.5342V264.295ZM44.155 264.295H39.5145V256.041H44.155V264.295ZM49.7759 264.295H45.1354V256.041H49.7759V264.295ZM55.391 264.295H50.7504V256.041H55.391V264.295ZM61.0061 264.295H56.3655V256.041H61.0061V264.295ZM66.6211 264.295H61.9806V256.041H66.6211V264.295Z" fill="#6C63FF"/>
<path opacity="0.1" d="M10.6851 282.919C10.9113 283.806 11.1665 284.694 11.4333 285.57V283.511H16.0739V291.758H13.5912C13.6666 291.95 13.742 292.159 13.8174 292.338H66.8996V282.919H10.6851ZM21.7064 291.758H17.0658V283.511H21.7064V291.758ZM27.3156 291.758H22.6751V283.511H27.3156V291.758ZM32.9365 291.758H28.2844V283.511H32.9249L32.9365 291.758ZM38.5516 291.758H33.911V283.511H38.5516V291.758ZM44.1725 291.758H39.5319V283.511H44.1725V291.758ZM49.7933 291.758H45.1528V283.511H49.7933V291.758ZM55.4084 291.758H50.7679V283.511H55.4084V291.758ZM61.0235 291.758H56.3829V283.511H61.0235V291.758ZM66.6386 291.758H61.998V283.511H66.6386V291.758Z" fill="#6C63FF"/>
<path opacity="0.1" d="M23.7944 310.389C23.9395 310.574 24.0787 310.783 24.2295 310.969H27.2981V314.93C27.6287 315.325 27.9535 315.719 28.29 316.09V310.945H32.9305V319.222H31.0511C31.2367 319.414 31.4165 319.617 31.6312 319.802H66.9168V310.389H23.7944ZM38.534 319.222H33.8934V310.98H38.534V319.222ZM44.1549 319.222H39.5143V310.98H44.1549V319.222ZM49.7757 319.222H45.1352V310.98H49.7757V319.222ZM55.3908 319.222H50.7503V310.98H55.3908V319.222ZM61.0059 319.222H56.3653V310.98H61.0059V319.222ZM66.621 319.222H61.9804V310.98H66.621V319.222Z" fill="#6C63FF"/>
<path opacity="0.1" d="M54.7642 337.852C55.292 338.154 55.8315 338.432 56.3768 338.734V338.444H61.0173V341.054L62.0034 341.512V338.444H66.644V343.461C66.733 343.505 66.8263 343.54 66.9224 343.565V337.852H54.7642Z" fill="#6C63FF"/>
<path opacity="0.1" d="M437.651 193.678H437.686H437.651ZM401.919 364.863H402.499H401.919ZM364.638 277.763C364.748 278.134 364.841 278.505 364.945 278.871C364.852 278.505 364.754 278.134 364.638 277.763ZM437.651 193.661H437.686H437.651ZM87.2891 106.81V109.286H113.201V106.81H87.2891ZM401.919 364.863H402.499H401.919ZM364.638 277.763C364.748 278.134 364.841 278.505 364.945 278.871C364.852 278.505 364.754 278.134 364.638 277.763ZM437.651 193.661H437.686H437.651ZM401.919 364.846H402.499H401.919ZM364.638 277.763C364.748 278.134 364.841 278.505 364.945 278.871C364.852 278.505 364.754 278.134 364.638 277.763Z" fill="#6C63FF"/>
<path d="M267.76 220.214C267.76 220.214 265.475 219.895 265.475 216.566C265.475 213.236 263.839 207.019 263.839 207.019C263.839 206.99 262.423 196.19 260.469 194.473C258.514 192.756 256.002 182.675 256.002 182.675C256.002 182.675 255.573 177.206 254.697 176.028C253.821 174.851 252.638 171.968 250.892 167.856C249.146 163.744 241.866 160.896 241.866 160.896C241.866 160.896 228.704 153.263 224.974 150.775C224.635 150.57 224.318 150.331 224.029 150.061C223.379 149.209 220.548 149.191 220.548 149.191C220.252 147.324 219.968 145.178 219.875 143.234C219.875 143.026 219.875 142.817 219.846 142.608C224.005 140.15 227.138 136.274 228.669 131.692C228.739 131.472 228.797 131.24 228.861 131.019C229.11 130.937 229.339 130.804 229.534 130.628C229.729 130.453 229.885 130.238 229.992 129.999C230.328 129.25 230.334 128.375 230.752 127.679C231.239 126.855 232.167 126.414 232.898 125.793C234.742 124.227 235.218 121.588 235.131 119.187C235.073 117.244 234.76 115.284 234.882 113.352L234.917 112.865C234.951 112.575 234.992 112.285 235.044 112.007C235.328 110.568 235.949 109.211 236.297 107.784C236.645 106.357 236.68 104.751 235.868 103.521C234.679 101.717 232.202 101.358 230.027 101.172C227.561 100.963 225.357 101.236 223.779 99.1883C223.041 98.1181 222.21 97.1147 221.296 96.1896C220.972 95.888 217.816 93.9623 217.816 93.8347C214.736 92.4084 211.245 92.1407 207.984 93.0807C206.348 93.5563 204.805 94.3335 203.146 94.7221C199.567 95.569 195.449 94.6525 192.409 96.7C190.715 97.86 189.7 99.7045 188.749 101.503C187.975 102.983 187.19 104.463 186.394 105.94C185.112 108.37 183.807 110.841 183.267 113.532C183.154 114.118 183.084 114.711 183.058 115.307V115.336C183.058 115.55 183.058 115.765 183.058 115.98V116.252C183.058 116.455 183.058 116.652 183.093 116.832C183.128 117.012 183.122 117.07 183.14 117.192C183.157 117.314 183.186 117.586 183.221 117.772C183.256 117.957 183.325 118.282 183.395 118.538C183.424 118.648 183.464 118.752 183.499 118.857C183.557 119.054 183.627 119.245 183.702 119.437C183.743 119.535 183.783 119.64 183.83 119.738C183.917 119.941 184.021 120.138 184.126 120.318C184.172 120.399 184.207 120.475 184.253 120.55C184.415 120.82 184.593 121.079 184.787 121.327C186.028 122.876 187.855 123.862 189.207 125.312C189.207 125.37 189.207 125.428 189.207 125.48C189.207 125.643 189.207 125.799 189.207 125.962C189.279 129.196 190.14 132.363 191.715 135.188C193.29 138.014 195.531 140.411 198.245 142.173C198.245 142.393 198.274 142.62 198.285 142.84C198.398 144.562 198.377 146.29 198.221 148.008C197.985 147.73 197.689 147.508 197.356 147.36C197.023 147.211 196.66 147.139 196.296 147.15C196.046 147.137 195.797 147.159 195.553 147.213L195.501 147.173V147.225C194.225 147.538 192.653 148.866 191.15 152.642C191.15 152.642 186.579 157.793 183.099 157.578C179.619 157.364 170.807 162.938 170.807 162.938C170.807 162.938 162.211 168.517 160.366 174.201C159.335 177.425 158.099 180.579 156.665 183.644L146.038 205.54L144.078 222.911C144.078 222.911 145.162 230.637 144.948 231.814C144.733 232.992 149.408 243.612 149.408 243.612C149.408 243.612 164.856 270.751 171.167 272.143L171.619 271.824C171.889 271.965 172.176 272.072 172.472 272.143L173.771 271.226C173.849 272.248 173.816 273.274 173.673 274.289C172.803 276.968 173.998 294.456 175.517 297.884C177.037 301.311 176.498 346.257 176.498 346.257L176.283 350.224C176.283 350.224 176.283 350.352 176.335 350.572L176.283 351.512L176.44 351.593C176.602 352.851 176.549 354.128 176.283 355.369C175.738 357.109 175.517 362.027 175.517 362.027C175.517 362.027 171.173 389.798 173.232 395.378C175.291 400.958 177.043 407.071 177.043 407.071C177.043 407.071 179.218 414.031 177.147 415.22C175.077 416.409 169.189 418.405 170.401 421.305C171.503 423.984 175.686 431.165 176.306 432.215L176.254 432.766L175.401 442.005C175.539 443.225 175.87 444.416 176.382 445.532C177.316 447.545 179.131 449.633 182.583 449.406C183.163 449.366 183.836 449.296 184.485 449.209C190.802 448.362 198.581 445.543 198.581 445.543C198.177 445.287 197.807 444.981 197.479 444.633C197.168 444.332 196.922 443.971 196.756 443.572C196.589 443.174 196.506 442.745 196.51 442.313C196.603 440.631 193.453 432.615 192.67 430.643C192.548 430.359 192.484 430.196 192.484 430.196C192.484 430.196 199.666 422.691 198.471 416.038C198.471 416.038 190.524 411.398 193.14 408.852C195.756 406.306 200.431 398.992 200.431 398.992C200.431 398.992 200.646 371.644 200.431 367.561C200.208 364.727 200.342 361.875 200.832 359.075C200.919 358.652 201.023 358.24 201.133 357.834C204.751 358.374 208.404 358.651 212.062 358.663C213.396 358.663 214.753 358.663 216.122 358.582C216.122 358.969 216.14 359.386 216.174 359.835C216.476 366.609 217.039 378.488 217.497 382.902C218.147 389.23 221.737 406.282 221.737 406.282C221.737 406.282 214.887 410.679 222.932 421.513C222.932 421.513 222.932 425.44 222.399 426.009C221.829 427.867 221.37 429.757 221.024 431.67C220.687 433.711 220.548 435.776 221.093 436.849C222.399 439.413 230.23 439.204 230.23 439.204L230.421 439.169C231.899 439.016 233.393 439.159 234.816 439.588C236.239 440.017 237.563 440.724 238.71 441.669C241.686 444.059 252.98 443.009 259.094 442.249C261.49 441.947 263.09 441.669 263.09 441.669C263.168 441.398 263.196 441.115 263.172 440.834C263.108 439.332 261.93 436.037 253.949 433.096C253.949 433.096 246.442 428.05 246.547 423.654H246.39H245.52C246.152 423.619 246.559 423.654 246.559 423.654C246.559 423.654 243.618 412.923 244.818 412.053C246.019 411.183 242.423 399.293 242.423 399.293C242.423 399.293 240.363 379.341 240.253 377.943C240.258 376.743 240.44 375.551 240.793 374.405L240.253 363.466C240.253 363.466 240.149 359.829 240.253 358.646C240.236 357.619 240.152 356.594 240.004 355.578C239.952 355.172 239.899 354.748 239.841 354.331C242.655 353.617 244.482 352.956 244.482 352.956L244.157 314.878C246.547 310.238 246.988 300.059 246.976 292.837C246.976 288.197 246.767 284.764 246.767 284.764L250.033 279.433C250.033 279.433 250.787 273.053 249.592 271.655C249.064 271.023 249.302 270.368 249.737 269.828C249.963 269.649 250.202 269.486 250.451 269.341C250.451 269.341 250.416 269.289 250.375 269.214C250.603 269.023 250.846 268.85 251.1 268.697C251.1 268.697 249.94 266.899 250.979 266.139C251.953 266.801 252.823 267.299 253.485 267.705C253.438 268.129 253.392 268.372 253.392 268.372L253.67 267.792C254.308 268.152 254.697 268.372 254.697 268.372C254.697 268.372 259.813 258.182 259.703 256.679C259.593 255.177 263.183 248.849 263.183 248.849C263.183 248.849 263.618 245.526 265.579 244.134C267.54 242.742 267.099 232.655 267.099 232.655C267.099 232.655 267.644 227.4 268.949 225.254C270.254 223.108 267.76 220.214 267.76 220.214ZM169.868 215.742L169.966 218.172C169.386 217.238 168.968 216.566 168.968 216.566L169.868 215.742Z" fill="url(#paint0_linear)"/>
<path d="M254.975 263.97L253.723 269.306C253.723 269.306 243.687 264.185 241.877 257.677C240.068 251.169 244.905 248.698 244.905 248.698L254.256 252.66L254.975 263.97Z" fill="white"/>
<path opacity="0.1" d="M254.975 263.97L253.723 269.306C253.723 269.306 243.687 264.185 241.877 257.677C240.068 251.169 244.905 248.698 244.905 248.698L254.256 252.66L254.975 263.97Z" fill="black"/>
<path d="M198.657 445.578C198.657 445.578 189.375 448.989 182.995 449.418C179.607 449.644 177.826 447.568 176.91 445.567C176.409 444.454 176.086 443.27 175.953 442.057L176.782 432.864L177.223 427.969L190.779 424.448L192.699 430.318L192.879 430.765C193.651 432.725 196.742 440.7 196.65 442.365C196.646 442.791 196.728 443.214 196.891 443.607C197.055 444.001 197.296 444.358 197.601 444.656C197.912 445.007 198.267 445.317 198.657 445.578Z" fill="white"/>
<path d="M262.052 440.903C262.075 441.182 262.048 441.463 261.971 441.733C261.971 441.733 242.121 445.045 238.06 441.733C236.916 440.765 235.581 440.048 234.143 439.626C232.704 439.205 231.193 439.089 229.707 439.285C229.707 439.285 222.027 439.494 220.745 436.965C220.212 435.904 220.351 433.845 220.681 431.815C221.019 429.912 221.468 428.032 222.027 426.183L222.335 425.939L224.162 424.472L245.555 423.839H245.717C245.613 428.213 252.98 433.23 252.98 433.23C260.805 436.13 261.959 439.407 262.052 440.903Z" fill="white"/>
<path opacity="0.1" d="M262.052 440.903C262.073 441.183 262.043 441.464 261.965 441.733C261.965 441.733 242.121 445.045 238.061 441.733C236.917 440.766 235.583 440.049 234.146 439.627C232.708 439.206 231.199 439.089 229.714 439.285C229.714 439.285 222.028 439.494 220.751 436.965C220.218 435.898 220.351 433.845 220.682 431.814C223.64 432.11 228.31 432.847 230.143 434.604C232.916 437.278 237.614 439.946 240.497 440.155C242.753 440.3 256.252 440.729 262.052 440.903Z" fill="black"/>
<path opacity="0.1" d="M198.657 445.578C198.657 445.578 189.375 448.989 182.995 449.418C179.607 449.644 177.826 447.568 176.916 445.561C179.276 446.356 182.554 447.191 184.277 446.425C186.318 445.52 193.558 444.934 197.618 444.685C197.927 445.023 198.276 445.323 198.657 445.578Z" fill="black"/>
<path d="M212.427 170.739C204.77 167.763 194.921 157.932 197.38 153.338C197.926 152.179 198.251 150.928 198.337 149.649C198.495 147.914 198.519 146.168 198.407 144.429C198.234 141.581 197.892 138.745 197.38 135.938C197.38 135.938 221.285 136.477 219.893 139.998C219.487 141.03 219.423 142.822 219.533 144.829C219.643 146.836 219.933 149.104 220.235 151.024C220.652 153.657 221.07 155.664 221.07 155.664C221.07 155.664 219.608 157.711 218.75 157.822C217.891 157.932 223.414 174.978 212.427 170.739Z" fill="#CF6F80"/>
<path opacity="0.1" d="M192.862 430.765L192.682 430.962C185.535 422.32 176.892 433.09 176.892 433.09L176.765 432.864L177.206 427.969L190.762 424.448L192.682 430.318L192.862 430.765Z" fill="black"/>
<path opacity="0.1" d="M245.723 424.448C245.723 424.448 240.502 424.338 237.718 426.797C234.934 429.257 221.476 427.331 222.056 426.797C222.228 426.533 222.332 426.23 222.358 425.916L224.185 424.448L245.578 423.816C245.659 424.205 245.723 424.448 245.723 424.448Z" fill="black"/>
<path d="M201.754 356.581C201.365 357.542 201.07 358.538 200.872 359.556C200.388 362.344 200.254 365.181 200.472 368.001C200.687 372.061 200.472 399.27 200.472 399.27C200.472 399.27 195.884 406.526 193.326 409.084C190.767 411.641 198.546 416.235 198.546 416.235C199.706 422.847 192.676 430.318 192.676 430.318C185.529 421.676 176.886 432.452 176.886 432.452C176.886 432.452 172.188 424.332 171.016 421.432C169.844 418.532 175.604 416.525 177.629 415.348C179.653 414.17 177.53 407.228 177.53 407.228C177.53 407.228 175.819 401.143 173.789 395.592C171.759 390.042 176.028 362.41 176.028 362.41C176.028 362.41 176.248 357.503 176.776 355.792C177.042 354.557 177.095 353.286 176.933 352.033C176.898 351.61 176.857 351.256 176.828 351.018C176.799 350.781 176.776 350.67 176.776 350.67L176.857 350.531L179.758 345.125C179.758 345.125 203.146 353.176 201.754 356.581Z" fill="#4E16B0"/>
<path d="M245.723 423.81C245.723 423.81 240.503 423.7 237.718 426.13C234.934 428.561 221.476 426.664 222.057 426.13C222.637 425.597 222.59 421.647 222.59 421.647C214.695 410.87 221.43 406.497 221.43 406.497C221.43 406.497 217.903 389.531 217.265 383.238C216.818 378.842 216.267 367.027 215.972 360.281C215.844 357.381 215.769 355.386 215.769 355.386L222.219 354.087L223.048 353.919L238.606 350.798C238.606 350.798 239.035 353.698 239.325 356.07C239.47 357.083 239.551 358.104 239.569 359.127C239.464 360.287 239.569 363.918 239.569 363.918L240.097 374.805C239.752 375.947 239.574 377.133 239.569 378.326C239.673 379.712 241.698 399.56 241.698 399.56C241.698 399.56 245.219 411.404 244.018 412.256C242.817 413.109 245.723 423.81 245.723 423.81Z" fill="#4E16B0"/>
<path opacity="0.1" d="M219.893 139.998C219.487 141.03 219.423 142.822 219.533 144.829C216.331 146.757 212.65 147.743 208.913 147.673C205.176 147.603 201.535 146.481 198.407 144.435C198.235 141.585 197.892 138.747 197.38 135.938C197.38 135.938 221.285 136.466 219.893 139.998Z" fill="black"/>
<path d="M229.133 127.18C229.138 129.27 228.809 131.347 228.159 133.333C226.705 137.784 223.725 141.578 219.745 144.044C215.765 146.511 211.041 147.491 206.408 146.811C201.775 146.132 197.532 143.836 194.427 140.331C191.323 136.826 189.558 132.336 189.445 127.655C189.445 127.493 189.445 127.342 189.445 127.18C189.4 124.545 189.88 121.928 190.857 119.48C191.834 117.033 193.289 114.805 195.136 112.926C196.984 111.047 199.187 109.554 201.617 108.536C204.048 107.517 206.657 106.992 209.292 106.992C211.927 106.992 214.536 107.517 216.966 108.536C219.397 109.554 221.6 111.047 223.447 112.926C225.295 114.805 226.75 117.033 227.727 119.48C228.704 121.928 229.184 124.545 229.139 127.18H229.133Z" fill="#CF6F80"/>
<path opacity="0.1" d="M212.427 170.739C204.77 167.763 194.921 157.932 197.38 153.338C197.926 152.179 198.251 150.928 198.337 149.649L208.819 158.263L215.304 163.581L220.235 151.03C220.652 153.663 221.07 155.67 221.07 155.67C221.07 155.67 219.608 157.717 218.75 157.828C217.891 157.938 223.414 174.979 212.427 170.739Z" fill="black"/>
<path d="M239.534 208.805L230.781 355.839L219.365 356.587L189.805 271.331L194.654 170.112L195.675 148.727L208.819 159.521L215.31 164.84L220.386 151.923L229.824 160.148L239.534 208.805Z" fill="#6C63FF"/>
<path opacity="0.1" d="M201.754 356.581C201.365 357.542 201.07 358.539 200.873 359.556C192.566 358.274 184.498 355.754 176.939 352.08L176.782 351.999L176.834 351.065L176.863 350.578L179.764 345.172C179.764 345.172 203.146 353.176 201.754 356.581Z" fill="black"/>
<path opacity="0.1" d="M222.352 359.579C220.229 359.941 218.087 360.185 215.936 360.31C215.809 357.41 215.733 355.415 215.733 355.415L222.184 354.116L222.352 359.579Z" fill="black"/>
<path opacity="0.1" d="M239.29 356.099C235.166 357.172 228.797 358.379 223.095 357.625L223.014 353.948L238.571 350.827C238.571 350.827 239 353.698 239.29 356.099Z" fill="#4E16B0"/>
<path opacity="0.1" d="M222.991 358.298C199.208 362.358 177.426 350.717 177.426 350.717L177.635 346.773C177.635 346.773 178.174 302.059 176.678 298.632C175.181 295.204 174.015 277.821 174.862 275.153C175.709 272.485 171.77 232.475 171.77 232.475L171.132 216.235L147.779 206.775L158.22 185.013C159.63 181.962 160.843 178.823 161.851 175.616C163.667 169.967 172.095 164.416 172.095 164.416C172.095 164.416 180.738 158.871 184.155 159.08C187.572 159.289 192.05 154.173 192.05 154.173C195.356 145.746 198.349 149.562 198.349 149.562C198.349 149.962 198.349 149.562 198.187 150.809C197.027 160.061 216.946 189.293 217.231 189.809L219.127 236.013L221.047 294.484L222.991 358.298Z" fill="black"/>
<path d="M222.352 358.298C198.569 362.358 176.782 350.717 176.782 350.717L176.997 346.773C176.997 346.773 177.536 302.06 176.034 298.632C174.531 295.204 173.371 277.821 174.224 275.153C175.077 272.485 171.132 232.475 171.132 232.475L170.488 216.235L147.123 206.74L157.564 184.978C158.972 181.926 160.184 178.787 161.196 175.582C163.005 169.932 171.44 164.382 171.44 164.382C171.44 164.382 180.083 158.837 183.493 159.046C186.904 159.254 191.388 154.139 191.388 154.139C194.7 145.711 198.349 149.528 198.349 149.528C198.349 149.928 198.001 150.108 198.187 150.775C200.739 159.747 216.308 189.259 216.592 189.775L218.512 235.979L220.432 294.45L222.352 358.298Z" fill="white"/>
<path opacity="0.1" d="M215.942 191.091C213.384 190.024 199.834 174.555 199.834 174.555V171.035C199.341 169.875 196.411 170.582 194.033 171.394L195.054 150.009L196.214 150.972C198.755 159.939 215.647 190.575 215.942 191.091Z" fill="black"/>
<path d="M216.586 189.809C214.023 188.742 200.472 173.273 200.472 173.273V169.753C199.979 168.593 197.05 169.3 194.671 170.112L195.698 148.727L196.858 149.69C199.405 158.657 216.302 189.299 216.586 189.809Z" fill="white"/>
<path opacity="0.1" d="M177.426 266.957C177.745 266.957 193.964 265.252 193.964 265.252C193.964 265.252 203.784 284.561 203.14 289.259C202.496 293.957 201.33 298.116 197.38 297.379C193.43 296.642 176.121 297.959 176.121 297.959L177.426 266.957Z" fill="black"/>
<path d="M176.782 265.675C177.101 265.675 193.32 263.97 193.32 263.97C193.32 263.97 203.135 283.285 202.497 287.977C201.859 292.669 200.681 296.834 196.737 296.097C192.792 295.361 175.477 296.677 175.477 296.677L176.782 265.675Z" fill="white"/>
<path d="M189.004 256.61C189.004 256.61 203.889 264.608 204.208 267.05C204.527 269.492 196.632 265.983 194.927 265.559C193.804 265.289 192.661 265.11 191.51 265.026L180.135 265.333L189.004 256.61Z" fill="#CF6F80"/>
<path opacity="0.1" d="M211.789 192.089C212.654 192.089 213.356 191.388 213.356 190.523C213.356 189.658 212.654 188.957 211.789 188.957C210.924 188.957 210.223 189.658 210.223 190.523C210.223 191.388 210.924 192.089 211.789 192.089Z" fill="black"/>
<path d="M211.789 191.451C212.654 191.451 213.356 190.75 213.356 189.885C213.356 189.02 212.654 188.319 211.789 188.319C210.924 188.319 210.223 189.02 210.223 189.885C210.223 190.75 210.924 191.451 211.789 191.451Z" fill="#3F3D56"/>
<path opacity="0.1" d="M214.672 259.881C215.537 259.881 216.238 259.18 216.238 258.315C216.238 257.45 215.537 256.749 214.672 256.749C213.807 256.749 213.106 257.45 213.106 258.315C213.106 259.18 213.807 259.881 214.672 259.881Z" fill="black"/>
<path d="M214.672 259.237C215.537 259.237 216.238 258.536 216.238 257.671C216.238 256.806 215.537 256.105 214.672 256.105C213.807 256.105 213.106 256.806 213.106 257.671C213.106 258.536 213.807 259.237 214.672 259.237Z" fill="#3F3D56"/>
<path opacity="0.1" d="M213.349 225.985C214.214 225.985 214.916 225.284 214.916 224.419C214.916 223.554 214.214 222.853 213.349 222.853C212.484 222.853 211.783 223.554 211.783 224.419C211.783 225.284 212.484 225.985 213.349 225.985Z" fill="black"/>
<path d="M213.349 225.347C214.214 225.347 214.916 224.646 214.916 223.781C214.916 222.916 214.214 222.215 213.349 222.215C212.484 222.215 211.783 222.916 211.783 223.781C211.783 224.646 212.484 225.347 213.349 225.347Z" fill="#3F3D56"/>
<path d="M249.453 264.701C249.453 264.701 250.52 266.302 249.453 267.05C248.386 267.798 249.557 269.608 249.557 269.608C249.557 269.608 246.895 271.168 248.067 272.572C249.238 273.975 248.496 280.315 248.496 280.315L245.294 285.616C245.294 285.616 245.485 289.032 245.497 293.649C245.497 300.853 245.073 310.98 242.73 315.597L243.055 353.478C243.055 353.478 231.842 357.573 222.456 356.326L221.064 295.54C221.064 295.54 223.095 261.07 223.843 254.458C224.281 251.025 224.459 247.564 224.377 244.105C224.377 244.105 224.057 233.757 222.984 228.955C222.984 228.955 221.824 208.149 221.708 202.39C221.656 199.635 221.801 191.596 221.963 183.951C222.143 175.593 222.346 167.711 222.346 167.711L220.229 150.96C220.229 150.96 222.346 150.745 222.984 151.598C223.27 151.865 223.581 152.104 223.912 152.312C227.567 154.782 240.479 162.381 240.479 162.381C240.479 162.381 247.626 165.223 249.337 169.294C251.048 173.366 252.237 176.255 253.067 177.415C253.896 178.575 254.349 184.027 254.349 184.027C254.349 184.027 256.808 194.061 258.728 195.76C260.648 197.46 262.052 208.271 262.052 208.271L245.085 221.612C245.085 221.612 243.594 243.803 243.275 244.661C242.956 245.52 249.453 264.701 249.453 264.701Z" fill="white"/>
<path d="M250.097 264.701C250.097 264.701 251.158 266.302 250.097 267.05C249.035 267.798 250.195 269.608 250.195 269.608C250.195 269.608 247.55 271.186 248.71 272.589C249.871 273.993 249.14 280.332 249.14 280.332L245.938 285.634C245.938 285.634 246.129 289.05 246.147 293.667C246.147 300.871 245.723 310.998 243.38 315.615L243.699 353.495C243.699 353.495 232.469 357.59 223.095 356.343L221.708 295.558C221.708 295.558 223.739 261.087 224.487 254.475C224.925 251.043 225.102 247.582 225.015 244.122C225.015 244.122 224.696 233.775 223.628 228.972C223.628 228.972 222.468 208.167 222.346 202.407C222.294 199.652 222.445 191.613 222.602 183.969C222.781 175.611 222.984 167.728 222.984 167.728L220.188 150.751C220.188 150.751 222.984 150.751 223.628 151.616C223.911 151.886 224.223 152.125 224.556 152.329C228.211 154.8 241.129 162.398 241.129 162.398C241.129 162.398 248.27 165.24 249.981 169.312C251.692 173.384 252.881 176.272 253.716 177.432C254.552 178.592 254.993 184.044 254.993 184.044C254.993 184.044 257.452 194.079 259.372 195.778C261.292 197.477 262.679 208.266 262.679 208.266L245.712 221.606C245.712 221.606 244.221 243.797 243.896 244.656C243.571 245.514 250.097 264.701 250.097 264.701Z" fill="white"/>
<path opacity="0.1" d="M229.777 172.653L231.309 177.119L223.246 185.239C223.425 176.887 223.628 168.998 223.628 168.998L220.833 152.021C220.833 152.021 223.628 152.021 224.272 152.886C224.555 153.155 224.866 153.392 225.2 153.593L232.057 173.372L229.777 172.653Z" fill="black"/>
<path d="M229.133 171.371L230.67 175.837L222.607 183.957C222.787 175.599 222.99 167.717 222.99 167.717L220.188 150.74C220.188 150.74 222.99 150.74 223.628 151.604C223.913 151.872 224.224 152.111 224.556 152.317L231.419 172.09L229.133 171.371Z" fill="white"/>
<path opacity="0.1" d="M229.133 127.18C229.138 129.27 228.809 131.347 228.159 133.333C228.049 133.351 227.937 133.346 227.83 133.319C227.722 133.292 227.621 133.244 227.532 133.177C227.381 127.957 224.812 123.056 221.65 118.885C220.763 117.626 219.687 116.511 218.46 115.579C217.22 114.648 215.677 114.212 214.133 114.355C212.392 114.593 210.855 115.776 209.098 115.927C206.777 116.119 204.701 114.512 202.398 114.431C201.462 114.44 200.538 114.648 199.689 115.042C198.84 115.436 198.084 116.007 197.473 116.716C196.263 118.147 195.364 119.814 194.834 121.611C193.922 124.337 193.425 127.183 193.36 130.056C193.331 131.68 193.175 133.716 191.666 134.308C191.78 133.114 191.644 131.909 191.268 130.769C190.891 129.63 190.282 128.582 189.48 127.69L189.445 127.655C189.445 127.493 189.445 127.342 189.445 127.18C189.4 124.545 189.88 121.928 190.857 119.48C191.834 117.033 193.289 114.805 195.136 112.926C196.984 111.047 199.187 109.554 201.617 108.536C204.048 107.517 206.657 106.992 209.292 106.992C211.927 106.992 214.536 107.517 216.966 108.536C219.397 109.554 221.6 111.047 223.447 112.926C225.295 114.805 226.75 117.033 227.727 119.48C228.704 121.928 229.184 124.545 229.139 127.18H229.133Z" fill="black"/>
<path d="M217.509 95.6674C214.494 94.2497 211.066 93.9815 207.868 94.9134C206.261 95.389 204.747 96.1604 203.117 96.549C199.637 97.3901 195.576 96.4794 192.589 98.5153C190.93 99.6753 189.932 101.508 189.004 103.289L186.684 107.709C185.419 110.127 184.143 112.586 183.615 115.249C183.087 117.911 183.406 120.892 185.094 123.032C186.324 124.593 188.14 125.573 189.474 127.04C190.273 127.933 190.879 128.981 191.255 130.119C191.63 131.257 191.766 132.46 191.655 133.653C193.169 133.073 193.314 131.031 193.349 129.407C193.413 126.534 193.91 123.687 194.822 120.962C195.352 119.164 196.251 117.497 197.461 116.067C198.073 115.358 198.829 114.788 199.678 114.394C200.527 114 201.45 113.791 202.386 113.781C204.707 113.862 206.789 115.463 209.086 115.272C210.826 115.127 212.369 113.938 214.121 113.706C215.666 113.56 217.209 113.996 218.448 114.93C219.675 115.86 220.749 116.975 221.633 118.236C224.8 122.406 227.37 127.296 227.521 132.527C228.176 133.009 229.122 132.382 229.446 131.64C229.771 130.897 229.783 130.027 230.195 129.32C230.67 128.502 231.581 128.067 232.295 127.452C234.104 125.892 234.557 123.264 234.487 120.881C234.418 118.497 233.954 116.078 234.406 113.735C234.679 112.296 235.294 110.951 235.63 109.53C235.966 108.109 236.007 106.514 235.212 105.29C234.052 103.492 231.61 103.138 229.481 102.97C227.062 102.761 224.899 103.028 223.356 100.992C222.631 99.9296 221.816 98.9321 220.919 98.0107C220.612 97.7091 217.509 95.795 217.509 95.6674Z" fill="#512E4E"/>
<path opacity="0.1" d="M154.461 217.981L148.399 206.775L146.479 224.065C146.479 224.065 147.546 231.744 147.332 232.922C147.117 234.099 151.705 244.656 151.705 244.656C151.705 244.656 166.863 271.649 173.052 273.041L193.963 258.1L188.418 251.059C188.418 251.059 186.498 250.311 186.017 251.059C186.017 251.059 175.72 233.345 174.653 232.064C173.586 230.782 173.794 228.224 173.794 228.224C173.794 228.224 172.193 226.519 172.727 224.918C173.261 223.317 169.635 217.766 169.635 217.766L172.942 214.675L154.461 217.981Z" fill="black"/>
<path d="M148.718 205.499L147.117 206.775L145.197 224.065C145.197 224.065 146.265 231.744 146.05 232.922C145.835 234.099 150.43 244.656 150.43 244.656C150.43 244.656 165.581 271.649 171.77 273.041L192.688 258.1L187.136 251.059C187.136 251.059 185.216 250.311 184.735 251.059C184.735 251.059 174.439 233.345 173.371 232.063C172.304 230.782 172.519 228.224 172.519 228.224C172.519 228.224 170.918 226.518 171.451 224.918C171.985 223.317 168.354 217.766 168.354 217.766L171.66 214.675L148.718 205.499Z" fill="white"/>
<path opacity="0.1" d="M248.067 273.233C249.227 274.642 248.496 280.97 248.496 280.97L245.294 286.272C245.294 286.272 245.485 289.694 245.497 294.305L240.114 295.987C239.627 296.139 239.112 296.172 238.61 296.084C238.108 295.996 237.634 295.79 237.228 295.481C236.822 295.173 236.496 294.772 236.276 294.312C236.057 293.852 235.951 293.347 235.966 292.837L236.894 262.903L249.453 267.705C248.386 268.448 249.557 270.269 249.557 270.269C249.557 270.269 246.895 271.823 248.067 273.233Z" fill="black"/>
<path d="M248.71 272.589C249.871 273.999 249.14 280.332 249.14 280.332L245.938 285.634C245.938 285.634 246.129 289.05 246.147 293.667L240.665 295.378C240.188 295.526 239.684 295.558 239.192 295.472C238.701 295.385 238.237 295.182 237.84 294.881C237.443 294.579 237.123 294.186 236.909 293.736C236.694 293.286 236.589 292.791 236.604 292.292L237.538 262.265L250.103 267.067C249.03 267.81 250.201 269.625 250.201 269.625C250.201 269.625 247.55 271.185 248.71 272.589Z" fill="white"/>
<path d="M252.87 258.321C252.87 258.321 252.017 263.767 249.882 264.086C247.748 264.405 246.79 272.897 244.662 272.595C242.533 272.293 243.942 264.701 244.018 263.228C244.093 261.754 241.697 255.653 243.49 254.266C245.282 252.88 250.955 254.266 250.955 254.266L252.87 258.321Z" fill="#CF6F80"/>
<path opacity="0.1" d="M257.412 216.38L261.437 208.26C261.437 208.26 263.038 214.449 263.038 217.755C263.038 221.061 265.277 221.385 265.277 221.385C265.277 221.385 267.731 224.286 266.437 226.397C265.144 228.508 264.622 233.763 264.622 233.763C264.622 233.763 265.045 243.791 263.125 245.178C261.205 246.564 260.805 249.876 260.805 249.876C260.805 249.876 257.278 256.169 257.388 257.665C257.499 259.162 252.481 269.295 252.481 269.295C252.481 269.295 254.935 256.703 240.636 251.262C240.636 251.262 240.526 246.987 241.593 245.816C242.66 244.644 244.325 244.11 243.281 238.188C242.237 232.267 242.98 225.19 242.98 223.769C242.98 222.348 246.182 213.486 246.182 213.486L257.412 216.38Z" fill="black"/>
<path d="M259.152 207.1L262.667 208.26C262.667 208.26 264.274 214.448 264.274 217.754C264.274 221.061 266.513 221.385 266.513 221.385C266.513 221.385 268.967 224.285 267.673 226.397C266.38 228.508 265.863 233.763 265.863 233.763C265.863 233.763 266.287 243.791 264.367 245.178C262.447 246.564 262.018 249.876 262.018 249.876C262.018 249.876 258.496 256.169 258.607 257.665C258.717 259.162 253.694 269.294 253.694 269.294C253.694 269.294 256.153 256.702 241.849 251.262C241.849 251.262 241.744 246.987 242.811 245.816C243.879 244.644 245.544 244.11 244.499 238.188C243.455 232.266 244.198 225.19 244.198 223.769C244.198 222.348 247.4 213.486 247.4 213.486L259.152 207.1Z" fill="white"/>
<path opacity="0.1" d="M181.509 417.569C181.509 417.569 187.113 414.049 190.79 416.606C194.468 419.164 181.509 417.569 181.509 417.569Z" fill="black"/>
<path opacity="0.1" d="M225.049 406.682C225.049 406.682 230.009 406.044 234.174 410.528C238.339 415.011 225.049 406.682 225.049 406.682Z" fill="black"/>
<g opacity="0.1">
<path opacity="0.1" d="M232.306 126.182C231.593 126.797 230.676 127.238 230.201 128.055C229.795 128.757 229.783 129.621 229.458 130.375C229.133 131.129 228.188 131.744 227.532 131.269C227.382 126.049 224.806 121.147 221.645 116.971C220.761 115.711 219.686 114.596 218.46 113.665C217.219 112.732 215.673 112.295 214.127 112.441C212.387 112.679 210.855 113.862 209.098 114.007C206.777 114.205 204.695 112.598 202.392 112.517C201.456 112.526 200.533 112.735 199.685 113.13C198.836 113.526 198.082 114.098 197.473 114.808C196.262 116.236 195.363 117.901 194.834 119.697C193.922 122.423 193.426 125.269 193.36 128.142C193.326 129.761 193.175 131.779 191.678 132.382C191.713 132.811 191.713 133.241 191.678 133.67C193.186 133.09 193.337 131.048 193.372 129.424C193.437 126.551 193.933 123.704 194.845 120.979C195.375 119.182 196.274 117.514 197.485 116.084C198.095 115.375 198.85 114.805 199.698 114.411C200.546 114.017 201.469 113.808 202.404 113.799C204.724 113.88 206.812 115.481 209.109 115.289C210.85 115.144 212.393 113.955 214.139 113.723C215.685 113.577 217.23 114.014 218.472 114.947C219.698 115.878 220.772 116.993 221.656 118.253C224.818 122.423 227.393 127.313 227.544 132.545C228.199 133.026 229.145 132.4 229.47 131.657C229.795 130.915 229.806 130.045 230.212 129.337C230.688 128.519 231.604 128.084 232.318 127.47C234.128 125.909 234.58 123.282 234.511 120.898C234.511 120.823 234.511 120.747 234.511 120.678C234.4 122.742 233.849 124.848 232.306 126.182Z" fill="black"/>
<path opacity="0.1" d="M189.485 125.77C188.151 124.303 186.33 123.322 185.106 121.768C184.075 120.392 183.487 118.735 183.418 117.018C183.235 119.164 183.835 121.304 185.106 123.044C186.33 124.604 188.151 125.584 189.485 127.052C190.766 128.487 191.535 130.307 191.672 132.226C191.761 131.058 191.613 129.884 191.237 128.775C190.862 127.665 190.266 126.643 189.485 125.77Z" fill="black"/>
<path opacity="0.1" d="M235.641 108.26C235.299 109.681 234.69 111.032 234.412 112.465C234.247 113.422 234.187 114.394 234.232 115.365C234.251 114.812 234.311 114.261 234.412 113.717C234.69 112.279 235.299 110.933 235.641 109.512C235.841 108.729 235.906 107.917 235.833 107.111C235.797 107.498 235.733 107.882 235.641 108.26Z" fill="black"/>
</g>
<path opacity="0.1" d="M76.9927 441.153C108.209 441.153 133.515 437.089 133.515 432.076C133.515 427.062 108.209 422.998 76.9927 422.998C45.7764 422.998 20.4707 427.062 20.4707 432.076C20.4707 437.089 45.7764 441.153 76.9927 441.153Z" fill="#6C63FF"/>
<path d="M78.8138 258.187H75.1768V340.068H78.8138V258.187Z" fill="#535461"/>
<path d="M101.669 339.819L101.443 343.507L101.118 348.728L100.984 350.897L100.665 356.117L100.526 358.286L100.201 363.506L96.5354 422.708C96.376 425.256 95.252 427.646 93.3919 429.394C91.5319 431.142 89.0758 432.115 86.5234 432.116H67.4623C64.9104 432.115 62.455 431.142 60.5959 429.394C58.7368 427.646 57.614 425.255 57.4561 422.708L53.8074 363.466L53.4826 358.246L53.3492 356.076L53.0243 350.856L52.8909 348.687L52.5661 343.467L52.3341 339.778C52.2938 339.068 52.399 338.357 52.6432 337.689C52.8875 337.021 53.2656 336.41 53.7545 335.894C54.2433 335.377 54.8326 334.966 55.4861 334.686C56.1396 334.405 56.8435 334.261 57.5547 334.262H96.5412C97.2497 334.268 97.9494 334.419 98.5972 334.706C99.245 334.993 99.8271 335.41 100.308 335.931C100.788 336.451 101.157 337.065 101.391 337.734C101.625 338.402 101.72 339.112 101.669 339.819Z" fill="#3F3D56"/>
<path d="M101.442 343.507L101.117 348.71H52.8673L52.5425 343.507H101.442Z" fill="#9D9CB5"/>
<path d="M100.984 350.879L100.665 356.088H53.3258L53.001 350.879H100.984Z" fill="#9D9CB5"/>
<path d="M100.526 358.263L100.207 363.466H53.7838L53.459 358.263H100.526Z" fill="#9D9CB5"/>
<path d="M46.9915 288.876C68.1698 304.2 77.0101 328.166 77.0101 328.166C77.0101 328.166 51.487 327.29 30.3029 311.966C9.11876 296.642 0.295898 272.682 0.295898 272.682C0.295898 272.682 25.8074 273.552 46.9915 288.876Z" fill="#6C63FF"/>
<path d="M0.27832 272.682C0.27832 272.682 26.7759 287.385 35.2739 299.56C43.7719 311.734 77.0099 328.166 77.0099 328.166" stroke="#535461" stroke-width="2" stroke-miterlimit="10"/>
<path d="M60.6638 258.008C72.1897 266.342 77.0101 279.387 77.0101 279.387C77.0101 279.387 63.1175 278.911 51.5857 270.576C40.0539 262.242 35.2451 249.191 35.2451 249.191C35.2451 249.191 49.132 249.667 60.6638 258.008Z" fill="#6C63FF"/>
<path d="M35.2451 249.191C35.2451 249.191 49.6656 257.196 54.2888 263.819C58.912 270.443 77.0101 279.387 77.0101 279.387" stroke="#535461" stroke-width="2" stroke-miterlimit="10"/>
<path d="M93.7449 278.726C80.5019 293.278 77.7002 312.297 77.7002 312.297C77.7002 312.297 96.3726 307.715 109.604 293.156C122.835 278.598 125.649 259.585 125.649 259.585C125.649 259.585 106.988 264.173 93.7449 278.726Z" fill="#6C63FF"/>
<path d="M125.66 259.591C125.66 259.591 108.409 274.509 104.024 284.787C99.6384 295.065 77.7002 312.297 77.7002 312.297" stroke="#535461" stroke-width="2" stroke-miterlimit="10"/>
<path d="M579.878 273.604C579.878 273.604 570.301 225.962 573.967 220.034C573.967 220.034 574.1 214.524 573.88 207.5C573.88 207.233 573.88 206.966 573.88 206.694C574.525 207.124 575.197 207.511 575.893 207.854C579.271 209.589 583.148 210.09 586.856 209.269L583.956 206.038C583.26 205.267 582.535 204.432 582.384 203.411C582.233 202.39 582.651 201.479 583.01 200.569C585.766 193.609 585.911 184.856 580.603 179.543C576.119 175.077 575.028 169.312 570.162 165.234C566.606 162.247 564.651 157.868 562.806 153.634C561.246 150.055 559.674 146.448 558.781 142.654C558.085 139.691 557.806 136.622 556.849 133.728C555.892 130.834 554.1 128.021 551.298 126.727C550.3 126.269 549.192 126.008 548.281 125.399C547.087 124.593 546.367 123.282 545.503 122.134C541.112 116.333 526.407 119.75 519.446 122.105C517.554 122.698 515.801 123.668 514.295 124.958L514.359 124.854C514.411 124.767 514.475 124.68 514.533 124.593C513.771 125.209 513.113 125.943 512.584 126.768C511.569 128.374 511.145 130.248 510.299 131.988C509.278 134.047 503.599 139.795 506.041 142.109C506.212 142.265 506.408 142.39 506.621 142.48C507.538 142.862 508.547 142.963 509.521 142.77L509.417 143.02C508.583 145.062 508.155 147.247 508.158 149.452C508.158 158.982 516.018 166.708 525.723 166.708C527.547 166.709 529.361 166.43 531.1 165.878C531.14 166.099 531.175 166.319 531.216 166.539C531.216 166.626 531.245 166.713 531.256 166.8L530.949 167.23C530.934 167.203 530.916 167.178 530.897 167.154L521.79 179.88C520.398 180.86 512.381 186.66 511.929 191.01C511.453 195.772 510.977 201.346 510.977 201.346L510.913 202.541C510.515 202.873 510.05 203.116 509.549 203.251C509.048 203.386 508.524 203.411 508.013 203.324C505.171 202.86 505.171 213.764 505.171 213.764C505.171 213.764 503.28 215.504 501.98 213.996C500.681 212.488 497.247 217.598 497.247 217.598L475.726 218.526L475.233 218.555L474.073 214.965C473.948 214.586 473.679 214.272 473.324 214.091C472.969 213.909 472.556 213.875 472.176 213.996C472.086 214.026 471.999 214.063 471.915 214.106L471.834 214.153L471.683 214.257L471.608 214.327C471.566 214.364 471.528 214.405 471.492 214.449L471.422 214.53L471.387 214.565C471.253 214.75 471.165 214.964 471.129 215.189C471.092 215.415 471.109 215.646 471.179 215.864L472.176 218.944C468.023 219.779 463.777 222.134 467.24 228.618L449.687 225.376L455.366 230.144L484.683 236.193C484.294 236.889 484.549 237.898 485.762 239.32C490.982 245.45 500.495 247.115 504.324 247.544C505.335 249.806 506.598 251.946 508.088 253.924L507.758 260.032C507.758 260.032 498.065 306.584 496.29 308.944C497.186 307.929 498.006 306.849 498.744 305.714C495.93 315.278 491.997 328.369 490.965 330.329C489.306 333.462 487.769 346.135 489.66 346.947C490.24 347.196 491.899 347.074 494.265 346.895V347.945L494.161 387.728C494.161 387.728 494.637 412.129 493.331 414.455C492.026 416.781 491.678 421.658 491.678 421.658C491.678 421.658 486.458 431.281 482.322 435.15C482.294 435.18 482.262 435.207 482.229 435.231L482.101 434.326C482.101 434.326 477.13 440.602 466.132 440.248C466.132 440.248 459.513 444.552 469.328 444.784C479.143 445.016 491.678 444.436 491.678 444.436C491.678 444.436 500.432 431.095 507.764 432.835V442.945H510.008V432.673C511.05 431.988 511.941 431.098 512.628 430.058C513.315 429.018 513.783 427.85 514.005 426.623C514.197 425.359 514.057 424.067 513.597 422.874C513.137 421.681 512.374 420.628 511.383 419.82C510.938 419.417 510.581 418.927 510.334 418.38C510.088 417.833 509.957 417.241 509.95 416.641L509.869 416.711C509.869 416.508 509.817 416.299 509.794 416.085C509.15 410.864 508.344 400.094 511.192 392.124C515.096 381.197 516.279 365.977 513.437 356.917C512.52 354.021 511.766 351.076 511.18 348.095C511.111 347.718 511.047 347.359 510.989 347.022C512.932 347.285 514.856 347.673 516.749 348.182C523.333 349.998 537.736 350.334 550.033 350.236C550.062 350.572 550.097 350.926 550.138 351.28C550.357 353.739 550.815 356.171 551.507 358.541C553.05 363.181 553.757 383.639 553.757 383.639C553.757 383.639 555.747 400.459 554.662 407.303C554.082 411.108 553.502 414.93 553.171 418.77V418.845C553.171 418.845 549.911 428.126 547.527 433.166C547.469 433.294 547.406 433.421 547.348 433.543C546.712 433.601 546.086 433.739 545.486 433.955C545.486 433.955 542.289 440.335 539.105 441.391C535.92 442.446 536.976 445.92 544.186 444.644C551.396 443.368 562.284 442.324 562.284 442.324L562.754 435.817L564.97 433.044L564.39 439.534L566.751 439.07L566.438 431.176L570.063 426.641C570.063 426.641 574.443 422.743 567.934 415.075V415.243C567.865 415.133 567.801 415.017 567.725 414.907V414.872C566.646 413.202 565.788 410.087 567.36 404.56C570.202 394.572 571.855 385.506 571.855 385.506C571.855 385.506 578.201 361.221 570.574 349.731H570.91C570.128 348.114 569.576 346.396 569.268 344.627C569.23 344.418 569.195 344.203 569.164 343.983C574.808 343.658 580.348 342.637 584.866 340.433C584.849 340.41 582.129 282.78 579.878 273.604ZM508.222 233.409V233.525L507.062 233.583L508.222 233.409ZM504.243 233.96C504.052 234.002 503.873 234.088 503.721 234.21C503.222 234.915 502.909 235.735 502.81 236.593L501 236.187C501 236.187 499.73 235.915 497.902 235.607L497.038 234.737C499.416 234.54 501.888 234.25 504.243 233.96Z" fill="url(#paint1_linear)"/>
<path d="M564.123 431.258L563.433 439.476L565.748 439.012L565.4 430.098L564.123 431.258Z" fill="#1D2366"/>
<path d="M511.319 392.234C508.529 400.181 509.318 410.905 509.945 416.113C510.177 418.039 510.391 419.211 510.391 419.211C510.391 419.211 506.221 428.711 505.873 429.071C505.525 429.431 493.598 436.71 493.598 436.71L485.263 441.576C485.263 441.576 476.805 437.87 480.86 436.594C481.688 436.261 482.435 435.753 483.047 435.103C487.107 431.246 492.206 421.658 492.206 421.658C492.206 421.658 492.554 416.792 493.83 414.478C495.106 412.164 494.642 387.844 494.642 387.844L494.741 348.2V343.032L510.606 343.148C510.706 344.902 510.935 346.647 511.29 348.368C511.86 351.338 512.598 354.274 513.5 357.161C516.296 366.203 515.136 381.347 511.319 392.234Z" fill="#FFB0B1"/>
<path opacity="0.1" d="M510.391 419.211C510.391 419.211 506.221 428.712 505.873 429.071C505.525 429.431 493.598 436.71 493.598 436.71L485.263 441.576C485.263 441.576 476.805 437.87 480.86 436.594C481.688 436.261 482.435 435.753 483.047 435.103L483.406 437.638L486.185 437.522L509.968 416.125C510.177 418.039 510.391 419.211 510.391 419.211Z" fill="black"/>
<path d="M510.102 416.665L486.185 438.206L483.407 438.322L482.827 434.262C482.827 434.262 477.966 440.515 467.165 440.167C467.165 440.167 460.68 444.453 470.291 444.685C479.903 444.917 492.177 444.337 492.177 444.337C492.177 444.337 500.751 430.997 507.926 432.737V442.812H510.131V432.644C511.155 431.954 512.03 431.064 512.702 430.027C513.374 428.991 513.829 427.829 514.04 426.612C514.231 425.358 514.096 424.076 513.648 422.89C513.2 421.703 512.454 420.652 511.482 419.837C511.048 419.43 510.702 418.939 510.464 418.393C510.227 417.848 510.103 417.26 510.102 416.665Z" fill="#1D2366"/>
<path d="M566.327 404.623C564.784 410.133 565.626 413.236 566.681 414.901V414.936C568.035 416.991 568.977 419.29 569.454 421.705L569.547 422.227L558.665 438.09L552.76 440.41C552.76 440.41 543.264 437.168 544.998 436.24C545.433 436.014 546.112 434.807 546.889 433.143C549.21 428.125 552.412 418.868 552.412 418.868V418.793C552.748 414.971 553.282 411.16 553.873 407.367C554.935 400.54 552.986 383.783 552.986 383.783C552.986 383.783 552.29 363.408 550.782 358.773C550.101 356.417 549.648 354.001 549.43 351.558C549.117 348.658 549.047 346.268 549.047 346.268C549.047 346.268 555.3 337.568 566.762 346.964C567.679 347.714 568.486 348.588 569.158 349.563C577.076 360.826 570.701 385.639 570.701 385.639C570.701 385.639 569.106 394.664 566.327 404.623Z" fill="#FFB0B1"/>
<path opacity="0.1" d="M569.564 422.227L558.682 438.09L552.777 440.41C552.777 440.41 543.281 437.168 545.016 436.24C545.451 436.014 546.13 434.807 546.907 433.143C550.927 433.108 553.009 436.936 553.009 436.936L558.102 436.124C558.102 436.124 564.819 422.923 566.328 422.117C567.836 421.311 566.56 416.09 566.56 416.09V414.762C566.6 414.809 566.635 414.861 566.681 414.907V414.942C568.035 416.997 568.977 419.296 569.454 421.711L569.564 422.227Z" fill="black"/>
<path d="M553.357 437.278C553.357 437.278 550.457 431.954 544.9 433.92C544.9 433.92 541.773 440.3 538.646 441.332C535.52 442.365 536.564 445.845 543.629 444.575C550.695 443.304 561.345 442.255 561.345 442.255L561.809 435.764L568.99 426.617C568.99 426.617 573.271 422.737 566.902 415.098V416.427C566.902 416.427 568.178 421.647 566.67 422.453C565.161 423.259 558.467 436.466 558.467 436.466L553.357 437.278Z" fill="#1D2366"/>
<path opacity="0.1" d="M510.624 343.136C510.724 344.891 510.952 346.635 511.308 348.356C504.776 347.399 498.715 347.875 494.741 348.188V343.02L510.624 343.136Z" fill="black"/>
<path opacity="0.1" d="M569.802 351.007C569.802 351.007 560.521 351.459 549.454 351.552C549.14 348.652 549.071 346.262 549.071 346.262C549.071 346.262 555.324 337.562 566.786 346.958C567.703 347.708 568.509 348.583 569.182 349.557C569.362 350.051 569.569 350.536 569.802 351.007Z" fill="black"/>
<path d="M569.802 349.963C569.802 349.963 529.151 351.929 516.761 348.455C504.37 344.981 492.09 347.991 490.24 347.185C488.389 346.378 489.892 333.751 491.516 330.625C493.14 327.499 502.05 295.882 502.05 295.882L510.624 251.186L519.655 248.698L520.293 248.518L536.031 244.18L547.562 240.996C547.562 240.996 570.492 330.509 568.526 337.11C567.812 339.637 567.697 342.296 568.19 344.876C568.49 346.638 569.033 348.35 569.802 349.963Z" fill="#4E16B0"/>
<path d="M480.739 220.62C480.739 220.62 472.618 229.32 478.766 234.169C484.915 239.018 488.958 234.633 488.958 234.633L480.739 220.62Z" fill="#C7DAF5"/>
<path opacity="0.1" d="M480.739 220.62C480.739 220.62 472.618 229.32 478.766 234.169C484.915 239.018 488.958 234.633 488.958 234.633L480.739 220.62Z" fill="black"/>
<path d="M546.35 163.419C546.35 163.419 545.399 164.324 543.966 165.658C541.924 167.566 538.902 170.356 536.222 172.693C532.51 175.924 529.447 178.296 530.543 176.272C531.64 174.248 531.431 170.721 530.886 167.421C530.845 167.201 530.81 166.98 530.769 166.766C530.318 164.342 529.719 161.948 528.977 159.597C528.977 159.597 534.975 151.848 538.293 148.791C539.529 147.631 540.393 147.155 540.445 147.962C540.503 149.046 541.315 151.442 542.325 153.982C542.354 154.063 542.383 154.139 542.417 154.22C543.09 155.96 543.85 157.746 544.517 159.289C545.538 161.656 546.35 163.419 546.35 163.419Z" fill="#FFB0B1"/>
<path opacity="0.1" d="M542.417 154.22C541.854 157.251 540.486 160.076 538.458 162.398C536.429 164.72 533.814 166.455 530.886 167.421C530.424 164.773 529.787 162.159 528.977 159.597C528.977 159.597 540.271 145.009 540.445 147.962C540.486 149.081 541.367 151.563 542.417 154.22Z" fill="black"/>
<path opacity="0.1" d="M529.76 171.319L531.222 169.26C531.222 169.26 532.19 175.164 535.752 172.56C539.314 169.956 539.488 192.158 539.488 192.158L535.665 249.307L508.042 247.654L508.825 220.04L511.952 206.119L519.684 185.883L524.284 179.195L529.76 171.319Z" fill="black"/>
<path d="M539.488 192.512L536.007 244.186L535.642 249.661L520.241 248.739L519.661 248.704L508.06 248.008L508.843 220.388L511.969 206.468L519.702 186.231L524.301 179.543L529.777 171.638L531.239 169.584C531.239 169.584 532.208 175.489 535.769 172.885L535.845 172.833C539.325 170.628 539.488 192.512 539.488 192.512Z" fill="#1D2366"/>
<path d="M512.358 201.63C512.358 201.63 510.972 204.53 508.187 204.06C505.403 203.591 505.409 214.501 505.409 214.501C505.409 214.501 503.558 216.241 502.282 214.733C501.006 213.225 497.642 218.323 497.642 218.323L476.562 219.251C476.562 219.251 485.942 223.537 484.103 236.506C484.103 236.506 515.949 234.534 516.993 231.524C518.037 228.514 512.358 201.63 512.358 201.63Z" fill="white"/>
<path opacity="0.03" d="M512.358 201.63C512.358 201.63 510.972 204.53 508.187 204.06C505.403 203.591 505.409 214.501 505.409 214.501C505.409 214.501 503.558 216.241 502.282 214.733C501.006 213.225 497.642 218.323 497.642 218.323L476.562 219.251C476.562 219.251 485.942 223.537 484.103 236.506C484.103 236.506 515.949 234.534 516.993 231.524C518.037 228.514 512.358 201.63 512.358 201.63Z" fill="black"/>
<path d="M451.097 226.066L456.654 230.811L502.398 240.421L496.725 234.633L451.097 226.066Z" fill="white"/>
<path d="M529.847 173.146C529.087 174.306 526.912 180.245 525.096 185.43C523.582 189.752 522.318 193.551 522.318 193.551C522.318 193.551 519.365 212.772 517.857 216.247C516.349 219.721 517.167 233.27 517.167 233.27L511.546 266.731C511.546 266.731 508.999 283.986 505.067 294.293C501.186 304.438 496.864 309.194 496.731 309.345C498.471 306.99 507.955 260.623 507.955 260.623L511.088 202.146C511.088 202.146 511.546 196.59 512.01 191.84C512.474 187.089 521.871 180.605 521.871 180.605L530.932 167.723C531.842 168.941 531.233 171.064 529.847 173.146Z" fill="white"/>
<path d="M506.221 248.298C506.221 248.298 492.88 247.718 486.418 239.958C479.956 232.197 501.354 236.86 501.354 236.86L506.917 238.136L506.221 248.298Z" fill="#FFB0B1"/>
<path opacity="0.1" d="M568.526 337.116C567.812 339.643 567.697 342.302 568.19 344.882C553.636 345.914 538.067 341.982 538.067 341.982C535.166 344.65 527.527 348.582 527.527 348.582L523.362 296.961C520.699 290.001 519.655 253.536 519.655 253.536C519.655 253.536 519.893 251.627 520.235 248.768C520.235 248.698 520.235 248.623 520.264 248.553C521.303 240.566 523.362 225.573 524.371 223.549C525.763 220.765 520.09 213.358 520.09 213.358L522.672 191.346L522.985 188.69C528.426 186.26 532.597 178.499 532.597 178.499L535.799 172.89C539.279 170.657 539.459 192.541 539.459 192.541L535.978 244.215L547.51 241.03C547.51 241.03 570.492 330.515 568.526 337.116Z" fill="black"/>
<path d="M583.463 340.683C567.598 348.559 538.763 341.263 538.763 341.263C535.863 343.931 528.223 347.863 528.223 347.863L524.052 296.242C521.396 289.282 520.352 252.817 520.352 252.817C520.352 252.817 523.704 225.608 525.097 222.83C525.503 222.018 525.305 220.811 524.824 219.512C522.457 213.328 521.586 206.672 522.283 200.087L523.397 190.627L523.704 187.977C529.151 185.541 533.322 177.78 533.322 177.78L536.222 172.699L541.559 163.338L544.088 158.906L544.517 159.295L547.795 162.265C547.795 162.265 549.187 163.425 551.275 165.165C555.817 168.993 563.665 175.733 567.714 179.857C571.276 183.487 572.401 197.611 572.726 208.242C572.941 215.243 572.813 220.73 572.813 220.73C569.222 226.64 578.614 274.091 578.614 274.091C580.801 283.261 583.463 340.683 583.463 340.683Z" fill="white"/>
<path opacity="0.03" d="M553.009 177.664C553.009 177.664 542.122 198.388 543.386 206.265C544.651 214.141 548.247 223.056 546.513 225.138C545.917 225.927 545.146 226.567 544.262 227.009C543.377 227.451 542.403 227.682 541.414 227.684C539.674 227.8 535.033 231.043 535.033 231.391C535.033 231.739 530.746 231.739 526.912 233.363C523.078 234.987 517.416 235.909 517.416 235.909C517.416 235.909 506.395 235.561 505.368 236.605C504.342 237.649 503.286 243.896 505.484 248.878C507.683 253.86 510.125 257.578 511.97 258.257C513.814 258.936 525.52 255.015 535.016 254.087C544.511 253.159 554.819 245.636 554.819 245.636C554.819 245.636 566.171 241.576 568.161 234.749C570.15 227.922 565.73 190.401 565.73 190.401C565.73 190.401 562.389 172.914 553.009 177.664Z" fill="black"/>
<path opacity="0.03" d="M551.617 175.924C551.617 175.924 540.729 196.654 542.005 204.524C543.282 212.395 546.866 221.316 545.126 223.404C544.532 224.194 543.763 224.835 542.879 225.277C541.996 225.718 541.021 225.949 540.033 225.95C538.293 226.066 533.652 229.308 533.652 229.656C533.652 230.004 529.366 230.004 525.531 231.623C521.697 233.241 516.036 234.169 516.036 234.169C516.036 234.169 505.014 233.821 503.993 234.865C502.973 235.909 501.905 242.161 504.109 247.138C506.314 252.115 508.75 255.838 510.595 256.517C512.439 257.195 524.145 253.275 533.641 252.352C543.137 251.43 553.444 243.896 553.444 243.896C553.444 243.896 564.791 239.836 566.757 233.015C568.723 226.194 564.327 188.661 564.327 188.661C564.327 188.661 560.997 171.179 551.617 175.924Z" fill="black"/>
<path d="M552.667 176.62C552.667 176.62 541.779 197.35 543.056 205.221C544.332 213.091 547.917 222.012 546.182 224.094C545.588 224.886 544.819 225.528 543.934 225.971C543.049 226.414 542.073 226.645 541.083 226.646C539.343 226.762 534.703 230.005 534.703 230.347C534.703 230.689 530.422 230.695 526.582 232.319C522.741 233.943 517.086 234.865 517.086 234.865C517.086 234.865 506.064 234.517 505.038 235.561C504.011 236.605 502.955 242.858 505.154 247.834C507.352 252.811 509.794 256.534 511.639 257.213C513.484 257.892 525.189 253.971 534.685 253.043C544.181 252.115 554.489 244.592 554.489 244.592C554.489 244.592 565.841 240.532 567.83 233.705C569.82 226.878 565.429 189.357 565.429 189.357C565.429 189.357 562.041 171.899 552.667 176.62Z" fill="white"/>
<path opacity="0.1" d="M552.429 232.22C552.429 232.22 543.728 230.48 546.756 233.38C549.784 236.28 549.767 238.821 553.473 238.705C557.18 238.589 552.429 232.22 552.429 232.22Z" fill="black"/>
<path opacity="0.1" d="M567.134 294.618C567.134 294.618 563.201 297.28 570.725 303.417C578.248 309.554 567.134 294.618 567.134 294.618Z" fill="black"/>
<path opacity="0.1" d="M559.628 316.502C559.628 316.85 558.236 329.262 563.445 332.365C568.654 335.468 559.628 316.502 559.628 316.502Z" fill="black"/>
<path d="M476.922 219.222C472.722 219.367 463.65 220.649 468.354 229.424C472.513 237.191 479.503 232 483.436 228.061C482.477 224.39 480.145 221.226 476.922 219.222Z" fill="#FFB0B1"/>
<path d="M483.488 227.992L483.662 227.812L483.488 227.992Z" fill="#FFB0B1"/>
<path opacity="0.1" d="M551.275 165.518C546.82 168.564 543.084 171.133 542.353 171.667C540.358 173.146 536.552 181.828 534.099 186.26C532.144 189.827 525.792 190.743 523.396 190.97L523.704 188.319C529.151 185.883 533.322 178.122 533.322 178.122L544.088 159.249L547.794 162.618C547.794 162.618 549.186 163.778 551.275 165.518Z" fill="black"/>
<path d="M551.275 165.171C546.82 168.216 543.084 170.785 542.353 171.325C540.358 172.798 536.552 181.481 534.099 185.912C532.144 189.479 525.792 190.395 523.396 190.622L523.704 187.971C529.151 185.535 533.322 177.774 533.322 177.774L544.088 158.901L547.794 162.259C547.794 162.259 549.186 163.407 551.275 165.171Z" fill="#DCE7FF"/>
<path d="M542.702 150.392C542.704 153.874 541.648 157.274 539.674 160.142C537.342 163.533 533.872 165.976 529.893 167.027C525.914 168.079 521.69 167.669 517.987 165.873C514.284 164.076 511.348 161.012 509.711 157.236C508.074 153.461 507.845 149.223 509.066 145.293C510.287 141.363 512.876 138.001 516.363 135.816C519.851 133.631 524.007 132.769 528.076 133.386C532.145 134.003 535.858 136.058 538.542 139.178C541.225 142.298 542.701 146.277 542.702 150.392Z" fill="#FFB0B1"/>
<path opacity="0.1" d="M572.726 208.248C570.37 206.799 568.452 204.738 567.175 202.286C566.206 200.372 565.562 198.162 563.909 196.804C562.418 195.586 560.429 195.291 558.572 194.745C552.47 192.942 547.354 187.373 547.162 181.016C547.07 178.024 548.003 175.036 547.58 172.073C547.339 170.395 546.672 168.808 545.643 167.462C545.131 166.818 544.571 166.215 543.966 165.658C543.154 164.892 542.301 164.15 541.559 163.338C541.091 162.835 540.682 162.28 540.341 161.685C540.065 161.197 539.841 160.682 539.674 160.148C538.513 156.598 539.569 152.387 538.293 148.797L538.223 148.599C537.742 147.323 536.762 146.047 535.399 145.949C534.035 145.85 532.869 146.981 531.57 147.486C528.85 148.541 525.914 146.743 523.646 144.911C521.378 143.078 518.82 140.984 515.937 141.39C514.029 141.663 512.521 142.962 510.763 143.635C510.366 143.788 509.957 143.907 509.539 143.988C511.026 140.279 513.759 137.204 517.268 135.291C520.777 133.377 524.842 132.746 528.766 133.504C532.69 134.262 536.228 136.363 538.771 139.446C541.314 142.529 542.704 146.401 542.702 150.398C542.704 151.604 542.577 152.808 542.325 153.988C542.354 154.069 542.383 154.144 542.417 154.226C543.09 155.966 543.85 157.752 544.517 159.295L547.795 162.265C547.795 162.265 549.187 163.425 551.275 165.165C555.817 168.993 563.665 175.733 567.714 179.856C571.276 183.499 572.39 197.616 572.726 208.248Z" fill="black"/>
<path d="M510.56 133.038C511.389 131.35 511.801 129.459 512.793 127.858C514.249 125.538 516.79 124.053 519.4 123.154C526.216 120.805 540.619 117.395 544.923 123.154C545.77 124.314 546.472 125.602 547.644 126.403C548.537 127.012 549.616 127.273 550.596 127.731C553.34 129.018 555.092 131.826 556.026 134.691C556.96 137.556 557.238 140.63 557.923 143.583C558.799 147.37 560.336 150.96 561.867 154.527C563.671 158.738 565.585 163.106 569.066 166.081C573.817 170.141 574.866 175.889 579.275 180.344C584.496 185.634 584.327 194.363 581.636 201.294C581.282 202.205 580.882 203.156 581.021 204.124C581.16 205.093 581.88 205.975 582.558 206.746L585.412 209.965C578.66 211.595 571.021 208.068 567.877 201.88C566.908 199.966 566.264 197.762 564.605 196.399C563.12 195.181 561.125 194.891 559.274 194.345C553.172 192.536 548.056 186.962 547.864 180.605C547.771 177.618 548.705 174.631 548.282 171.673C548.046 169.984 547.377 168.385 546.339 167.032C544.743 164.95 542.336 163.552 541.037 161.232C538.838 157.352 540.509 152.312 538.925 148.147C538.438 146.871 537.464 145.595 536.1 145.497C534.737 145.398 533.571 146.529 532.266 147.034C529.551 148.089 526.616 146.297 524.348 144.458C522.08 142.62 519.522 140.532 516.633 140.943C514.725 141.21 513.222 142.51 511.465 143.188C510.165 143.687 507.532 144.134 506.395 143.037C503.994 140.827 509.556 135.103 510.56 133.038Z" fill="#591D4B"/>
<path opacity="0.1" d="M569.489 199.965C568.515 198.051 567.877 195.847 566.218 194.49C564.733 193.272 562.737 192.976 560.881 192.431C554.784 190.627 549.668 185.053 549.471 178.696C549.378 175.709 550.312 172.716 549.894 169.758C549.651 168.08 548.982 166.493 547.951 165.147C546.35 163.065 543.943 161.667 542.649 159.347C540.451 155.473 542.122 150.432 540.532 146.262C540.051 144.992 539.07 143.716 537.713 143.611C536.356 143.507 535.178 144.65 533.879 145.154C531.164 146.21 528.223 144.412 525.961 142.579C523.699 140.746 521.129 138.652 518.246 139.058C516.337 139.331 514.829 140.63 513.077 141.303C511.778 141.802 509.139 142.254 508.002 141.158C505.612 138.838 511.175 133.125 512.173 131.071C513.002 129.378 513.414 127.493 514.412 125.892C514.464 125.805 514.522 125.718 514.58 125.631C513.834 126.249 513.189 126.981 512.671 127.8C511.679 129.401 511.268 131.28 510.438 132.98C509.435 135.033 503.872 140.763 506.267 143.066C507.428 144.168 510.038 143.716 511.337 143.217C513.077 142.538 514.597 141.239 516.506 140.972C519.406 140.56 521.958 142.654 524.221 144.487C526.483 146.32 529.441 148.118 532.144 147.062C533.444 146.558 534.581 145.421 535.973 145.525C537.365 145.63 538.293 146.9 538.798 148.176C540.381 152.34 538.711 157.381 540.909 161.261C542.209 163.541 544.616 164.967 546.211 167.061C547.249 168.414 547.919 170.013 548.154 171.701C548.578 174.659 547.644 177.646 547.737 180.634C547.928 187.014 553.044 192.564 559.147 194.374C560.985 194.919 562.992 195.209 564.477 196.427C566.142 197.79 566.798 199.994 567.749 201.908C570.893 208.097 578.532 211.624 585.284 209.994L583.939 208.474C578.086 208.561 572.163 205.232 569.489 199.965Z" fill="black"/>
<path opacity="0.1" d="M529.499 173.494C528.739 174.654 526.564 180.593 524.748 185.779C523.049 185.117 521.506 180.901 521.506 180.901L530.566 168.013C531.495 169.289 530.885 171.406 529.499 173.494Z" fill="black"/>
<path d="M529.847 173.146C529.087 174.306 526.912 180.245 525.096 185.43C523.396 184.775 521.854 180.553 521.854 180.553L530.914 167.67C531.842 168.941 531.233 171.063 529.847 173.146Z" fill="#DCE7FF"/>
<path d="M477.165 232.4L472.142 216.56C472.082 216.374 472.06 216.179 472.076 215.985C472.093 215.791 472.147 215.602 472.237 215.429C472.326 215.256 472.449 215.102 472.598 214.977C472.747 214.851 472.919 214.757 473.105 214.698C473.479 214.581 473.884 214.617 474.231 214.797C474.579 214.977 474.841 215.288 474.961 215.661L479.984 231.483L479.486 234.795L477.165 232.4Z" fill="#BE8B87"/>
<path opacity="0.1" d="M472.618 215.168C472.992 215.049 473.398 215.084 473.747 215.264C474.096 215.445 474.36 215.756 474.48 216.13L479.503 231.953L479.126 234.436L479.491 234.818L479.99 231.507L474.938 215.684C474.818 215.311 474.556 215.001 474.208 214.82C473.86 214.64 473.455 214.604 473.082 214.721C472.767 214.823 472.495 215.027 472.31 215.301C472.409 215.248 472.512 215.204 472.618 215.168Z" fill="white"/>
<path d="M477.165 232.4L479.984 231.507L479.572 234.221L479.485 234.818L478.662 233.96L477.165 232.4Z" fill="#EFC8C4"/>
<path d="M478.662 233.96C478.711 233.898 478.772 233.847 478.841 233.809C478.882 233.784 478.93 233.77 478.978 233.77C479.026 233.77 479.073 233.784 479.114 233.809C479.154 233.857 479.187 233.91 479.213 233.966C479.251 234.03 479.303 234.085 479.365 234.126C479.428 234.167 479.498 234.194 479.572 234.204L479.485 234.784L478.662 233.96Z" fill="#727A9C"/>
<path d="M472.113 222.186C472.113 222.186 482.189 222.128 479.816 226.414C477.444 230.7 473.737 231.217 473.737 231.217L472.113 222.186Z" fill="#FFB0B1"/>
<path d="M409.448 29.8242H409.013C391.703 29.8242 376.395 38.9826 367.59 52.497C358.784 38.9826 343.476 29.8242 326.167 29.8242H325.732C312.742 29.948 300.325 35.1928 291.181 44.419C282.037 53.6451 276.903 66.1069 276.896 79.0964C276.896 95.2266 283.961 118.114 297.738 136.947C323.986 172.832 367.59 204.229 367.59 204.229C367.59 204.229 411.194 172.838 437.436 136.947C451.218 118.114 458.278 95.2266 458.278 79.0964C458.271 66.1079 453.138 53.6469 443.995 44.421C434.852 35.195 422.437 29.9495 409.448 29.8242ZM403.224 139.708C401.252 139.7 399.329 139.097 397.707 137.977C396.085 136.857 394.839 135.273 394.134 133.432H383.785C383.104 133.428 382.441 133.211 381.889 132.812C381.336 132.412 380.923 131.851 380.705 131.205L377.526 121.629L367.468 156.772C367.272 157.448 366.862 158.043 366.299 158.467C365.737 158.89 365.052 159.12 364.347 159.121H364.144C363.409 159.085 362.709 158.799 362.16 158.309C361.611 157.819 361.247 157.156 361.128 156.43L350.762 94.0898L343.186 130.979C343.013 131.679 342.609 132.302 342.04 132.746C341.472 133.191 340.77 133.433 340.048 133.432H325.471C325.034 133.451 324.598 133.38 324.189 133.226C323.779 133.072 323.406 132.836 323.09 132.533C322.774 132.231 322.523 131.867 322.351 131.465C322.18 131.063 322.091 130.63 322.091 130.193C322.091 129.755 322.18 129.323 322.351 128.92C322.523 128.518 322.774 128.155 323.09 127.852C323.406 127.549 323.779 127.314 324.189 127.159C324.598 127.005 325.034 126.935 325.471 126.953H337.496L348.227 77.3563C348.403 76.6231 348.829 75.9737 349.431 75.5194C350.033 75.065 350.774 74.8338 351.527 74.8653C352.281 74.8968 353 75.1891 353.562 75.6921C354.124 76.1952 354.494 76.8777 354.608 77.6232L365.194 141.216L374.208 109.773C374.396 109.111 374.793 108.527 375.34 108.109C375.887 107.691 376.554 107.461 377.242 107.453H377.306C377.988 107.453 378.652 107.669 379.204 108.069C379.756 108.469 380.168 109.033 380.38 109.681L386.129 126.971H394.006C394.566 125.269 395.586 123.756 396.952 122.597C398.318 121.438 399.977 120.679 401.747 120.404C403.518 120.129 405.329 120.348 406.983 121.038C408.636 121.727 410.067 122.86 411.117 124.311C412.167 125.762 412.796 127.475 412.934 129.261C413.072 131.047 412.714 132.836 411.899 134.431C411.084 136.027 409.844 137.366 408.317 138.301C406.789 139.236 405.032 139.731 403.241 139.731L403.224 139.708Z" fill="#4E16B0"/>
</g>
<defs>
<linearGradient id="paint0_linear" x1="206.696" y1="449.435" x2="206.696" y2="92.5297" gradientUnits="userSpaceOnUse">
<stop stop-color="#808080" stop-opacity="0.25"/>
<stop offset="0.54" stop-color="#808080" stop-opacity="0.12"/>
<stop offset="1" stop-color="#808080" stop-opacity="0.1"/>
</linearGradient>
<linearGradient id="paint1_linear" x1="129480" y1="269290" x2="129480" y2="86087.3" gradientUnits="userSpaceOnUse">
<stop stop-color="#808080" stop-opacity="0.25"/>
<stop offset="0.54" stop-color="#808080" stop-opacity="0.12"/>
<stop offset="1" stop-color="#808080" stop-opacity="0.1"/>
</linearGradient>
<clipPath id="clip0">
<rect width="641" height="454" fill="white"/>
</clipPath>
</defs>
</svg>
