<svg width="101" height="80" viewBox="0 0 101 80" fill="none" xmlns="http://www.w3.org/2000/svg">
<path d="M100.157 53.9149L84.1417 41.8378V36.9876C84.1417 36.3227 83.8297 35.6966 83.2989 35.2962L51.7759 11.5248C51.0205 10.9553 49.98 10.9553 49.2246 11.5248L17.7016 35.2962C17.1708 35.6966 16.8588 36.3227 16.8588 36.9876V41.8378L0.843357 53.9149C0.312516 54.3153 0.000488281 54.9415 0.000488281 55.6064V77.0101C0.000488281 78.1801 0.94898 79.1286 2.11901 79.1286H18.9773H35.8356H65.165H82.0232H98.8815C100.052 79.1286 101 78.1801 101 77.0101V55.6064C101 54.9415 100.688 54.3153 100.157 53.9149ZM52.791 74.8913H48.2092V64.2121H52.791V74.8913ZM57.028 74.8913V62.0936C57.028 60.9236 56.0795 59.9751 54.9095 59.9751H46.0907C44.9207 59.9751 43.9722 60.9236 43.9722 62.0936V74.8913H33.7167H21.0958V38.0433L50.5003 15.8693L79.9047 38.0433V74.8913H67.2835H57.028ZM4.23753 56.662L16.8588 47.1444V74.8913H4.23753V56.662ZM96.763 74.8913H84.1417V47.1444L96.763 56.662V74.8913Z" fill="#8884B4"/>
<path d="M3.3941 40.2938L50.5 4.77197L97.6056 40.2941C97.9878 40.5822 98.4354 40.7214 98.8797 40.7214C99.5216 40.7214 100.156 40.4306 100.573 39.8783C101.277 38.9443 101.091 37.6157 100.157 36.9114L51.7757 0.427184C51.0202 -0.142395 49.9798 -0.142395 49.2243 0.427184L0.843098 36.9111C-0.0911699 37.6157 -0.277297 38.944 0.427262 39.878C1.13152 40.8122 2.46044 40.9984 3.3941 40.2938Z" fill="#8884B4"/>
</svg>
