<svg width="74" height="65" viewBox="0 0 74 65" fill="none" xmlns="http://www.w3.org/2000/svg">
<path d="M21.2539 37.6967C23.3097 37.6967 25.2968 37.5639 27.1772 37.3167V16.7062C25.297 16.4592 23.3097 16.3264 21.2539 16.3264C9.51572 16.3264 0 20.6422 0 25.9662V28.0568C0 33.3806 9.51572 37.6967 21.2539 37.6967Z" fill="#8884B4"/>
<path d="M21.2539 48.4588C23.3097 48.4588 25.2968 48.326 27.1772 48.0792V42.0379C25.2964 42.2849 23.3102 42.4195 21.2539 42.4195C11.0077 42.4195 2.4558 39.1309 0.447006 34.7541C0.154466 35.3916 0 36.0518 0 36.7285V38.819C0 44.143 9.51572 48.4588 21.2539 48.4588Z" fill="#8884B4"/>
<path d="M27.1772 53.2696V52.8C25.2964 53.047 23.3102 53.1816 21.2539 53.1816C11.0077 53.1816 2.4558 49.893 0.447006 45.5162C0.154466 46.1535 0 46.8137 0 47.4904V49.5809C0 54.9051 9.51572 59.2209 21.2539 59.2209C23.6013 59.2209 25.8591 59.0478 27.9704 58.7291C27.4471 57.6586 27.1772 56.5296 27.1772 55.36V53.2696Z" fill="#8884B4"/>
<path d="M51.8994 0C40.1612 0 30.6455 4.31577 30.6455 9.63976V11.7303C30.6455 17.0543 40.1612 21.3701 51.8994 21.3701C63.6374 21.3701 73.1533 17.0543 73.1533 11.7303V9.63976C73.1533 4.31577 63.6374 0 51.8994 0Z" fill="#8884B4"/>
<path d="M51.8994 26.0931C41.6532 26.0931 33.1013 22.8046 31.0925 18.4277C30.8 19.065 30.6455 19.7252 30.6455 20.402V22.4926C30.6455 27.8166 40.1612 32.1324 51.8994 32.1324C63.6374 32.1324 73.1533 27.8166 73.1533 22.4926V20.402C73.1533 19.7252 72.9988 19.065 72.7063 18.4277C70.6975 22.8046 62.1456 26.0931 51.8994 26.0931Z" fill="#8884B4"/>
<path d="M51.8994 36.8552C41.6532 36.8552 33.1013 33.5666 31.0925 29.1898C30.8 29.8271 30.6455 30.4872 30.6455 31.1641V33.2547C30.6455 38.5789 40.1612 42.8946 51.8994 42.8946C63.6374 42.8946 73.1533 38.5789 73.1533 33.2547V31.1641C73.1533 30.4872 72.9988 29.8271 72.7063 29.1898C70.6975 33.5667 62.1456 36.8552 51.8994 36.8552Z" fill="#8884B4"/>
<path d="M51.8994 48.1986C41.6532 48.1986 33.1013 44.91 31.0925 40.5332C30.8 41.1707 30.6455 41.8307 30.6455 42.5074V44.5981C30.6455 49.9221 40.1612 54.2379 51.8994 54.2379C63.6374 54.2379 73.1533 49.9221 73.1533 44.5981V42.5074C73.1533 41.8307 72.9988 41.1704 72.7063 40.5332C70.6975 44.9098 62.1456 48.1986 51.8994 48.1986Z" fill="#8884B4"/>
<path d="M51.8994 58.9607C41.6532 58.9607 33.1013 55.6723 31.0925 51.2955C30.8 51.933 30.6455 52.5933 30.6455 53.2697V55.3602C30.6455 60.6842 40.1612 65 51.8994 65C63.6374 65 73.1533 60.6842 73.1533 55.3602V53.2695C73.1533 52.5928 72.9988 51.9325 72.7063 51.2953C70.6975 55.6721 62.1456 58.9607 51.8994 58.9607Z" fill="#8884B4"/>
</svg>
