<svg width="58" height="66" viewBox="0 0 58 66" fill="none" xmlns="http://www.w3.org/2000/svg">
<path d="M57.2153 61.9089L54.3594 45.1893C54.0516 43.3879 52.7737 41.9408 51.024 41.413L43.321 39.0888C43.1615 37.2058 42.3895 35.4294 41.1047 34.0233C40.0769 32.8986 38.7843 32.0796 37.3594 31.6277C37.6032 31.3571 37.8293 31.0874 38.0367 30.8237C39.8685 28.4939 40.8492 25.9273 41.0989 24.1758H41.6931C43.2387 24.1758 44.4962 22.9185 44.4962 21.3728V19.9359C44.4962 18.9044 43.9159 17.9697 43.0433 17.4846V14.0293C43.0433 13.5072 42.62 13.0839 42.0979 13.0839C41.5757 13.0839 41.1526 13.507 41.1526 14.0293V17.9083C40.7844 17.9722 40.3451 18.0826 39.8957 18.2719C39.8497 18.2887 39.805 18.3081 39.7626 18.3314C39.6611 18.3777 39.5595 18.4265 39.4582 18.4815V10.863C39.4582 8.75821 37.7459 7.04594 35.6412 7.04594H33.0318C32.1318 7.04594 31.2526 7.35952 30.5558 7.92918L30.2997 8.13849C29.8294 8.52306 29.2358 8.73488 28.6282 8.73488C28.0206 8.73488 27.4268 8.52306 26.9565 8.13849L26.7006 7.92918C26.0038 7.35965 25.1246 7.04594 24.2246 7.04594H21.6149C19.5102 7.04594 17.7979 8.75821 17.7979 10.863V18.4815C17.6966 18.4265 17.595 18.3777 17.4935 18.3314C17.4511 18.3081 17.4065 18.2887 17.3605 18.2719C16.9111 18.0826 16.4717 17.9722 16.1036 17.9083V8.10003C16.1036 5.03888 18.5941 2.5484 21.6553 2.5484H35.6007C38.662 2.5484 41.1523 5.03888 41.1523 8.10003V9.5861C41.1523 10.1082 41.5756 10.5315 42.0976 10.5315C42.6196 10.5315 43.043 10.1084 43.043 9.5861V8.10003C43.043 3.99639 39.7043 0.657715 35.6007 0.657715H21.6553C17.5515 0.657715 14.213 3.99639 14.213 8.10003V17.4847C13.3403 17.9698 12.7601 18.9044 12.7601 19.936V21.3729C12.7601 22.9186 14.0175 24.1759 15.5631 24.1759H16.1574C16.4069 25.9274 17.3877 28.4941 19.2195 30.8238C19.4267 31.0873 19.6526 31.3568 19.8962 31.6271C16.6205 32.6676 14.2316 35.6127 13.9352 39.0888L6.232 41.413C4.48228 41.9408 3.20426 43.3879 2.8966 45.1893L1.73685 51.979C1.64897 52.4937 1.99495 52.982 2.50952 53.0699C3.02395 53.1581 3.51254 52.812 3.60055 52.2973L4.76031 45.5076C4.94641 44.4177 5.71958 43.5424 6.77808 43.2231L13.9027 41.0734V42.9435C12.2696 43.244 10.88 44.3658 10.3077 45.9201C10.1557 46.3327 10.0613 46.7647 10.027 47.204L9.33842 56.0421C9.28647 56.7078 9.51683 57.3708 9.97012 57.8606C10.4234 58.3506 11.0663 58.6318 11.734 58.6318H12.9126C13.4348 58.6318 13.858 58.2086 13.858 57.6864C13.858 57.1641 13.4348 56.7411 12.9126 56.7411H11.734C11.5916 56.7411 11.4547 56.6813 11.358 56.5767C11.2614 56.4723 11.2123 56.3311 11.2234 56.1892L11.912 47.351C11.9328 47.0848 11.9899 46.8232 12.082 46.5734C12.4801 45.4922 13.5554 44.76 14.7579 44.7515L14.9136 44.7504C14.9209 44.7503 14.9281 44.7503 14.9353 44.7503C16.104 44.7503 17.1386 45.413 17.575 46.4433C17.6974 46.7321 17.7718 47.0375 17.7962 47.351L18.4851 56.1893C18.496 56.3311 18.447 56.4723 18.3504 56.5768C18.2538 56.6812 18.1168 56.7411 17.9744 56.7411H16.7957C16.2736 56.7411 15.8503 57.1642 15.8503 57.6864C15.8503 58.2085 16.2736 58.6318 16.7957 58.6318H17.9744C18.642 58.6318 19.2851 58.3507 19.7382 57.8606C20.1917 57.3705 20.422 56.7077 20.3701 56.0422L19.6813 47.204C19.6409 46.6867 19.518 46.1825 19.3159 45.7055C18.6931 44.2357 17.3615 43.2138 15.7932 42.9373V40.503L19.043 39.5224C19.3387 40.1452 19.9246 41.4909 21.0852 44.3918C22.255 47.3188 23.7089 51.0706 25.1033 54.7178C25.1132 54.7484 25.1247 54.7783 25.1376 54.8075C26.0681 57.2424 26.9708 59.6272 27.7428 61.6845C27.8812 62.0534 28.2339 62.2978 28.6279 62.2978C29.0219 62.2978 29.3746 62.0534 29.5131 61.6845C30.285 59.6272 31.1876 57.2424 32.1183 54.8075C32.1313 54.7783 32.1426 54.7483 32.1526 54.7178C33.546 51.0727 34.9991 47.3234 36.1683 44.3972C37.3305 41.4926 37.9169 40.1457 38.2127 39.5224L41.4625 40.503V46.0868C39.2108 46.5242 37.5052 48.5101 37.5052 50.8879C37.5052 53.585 39.6995 55.7794 42.3968 55.7794C45.0941 55.7794 47.2884 53.5851 47.2884 50.8879C47.2884 48.5179 45.594 46.5368 43.3532 46.0909V41.0736L50.4779 43.2232C51.5364 43.5425 52.3094 44.4178 52.4957 45.5077L55.3516 62.2273C55.399 62.5046 55.3252 62.7756 55.1438 62.9906C54.9624 63.2055 54.7076 63.324 54.4263 63.324H2.82953C2.54822 63.324 2.29353 63.2056 2.11209 62.9906C1.93077 62.7756 1.85689 62.5047 1.9043 62.2273L2.8468 56.7094C2.93468 56.1948 2.5887 55.7064 2.07414 55.6185C1.5597 55.5303 1.07111 55.8766 0.9831 56.3912L0.0405949 61.909C-0.0999927 62.7326 0.128352 63.5713 0.666998 64.2099C1.2059 64.8484 1.99407 65.2146 2.82953 65.2146H54.4263C55.2618 65.2146 56.0501 64.8484 56.5889 64.2098C57.1275 63.5711 57.3558 62.7325 57.2153 61.9089ZM41.1637 19.8342C41.6674 19.7087 42.0718 19.7109 42.0763 19.7111C42.2392 19.7132 42.3976 19.6751 42.5383 19.6014C42.5804 19.7061 42.6052 19.8187 42.6052 19.936V21.3729C42.6052 21.876 42.196 22.2853 41.6929 22.2853H41.1637V19.8342ZM16.0922 22.2853H15.563C15.0599 22.2853 14.6506 21.876 14.6506 21.3729V19.936C14.6506 19.8187 14.6756 19.7061 14.7176 19.6015C14.8582 19.6753 15.0165 19.7133 15.1796 19.7111C15.1867 19.7123 15.59 19.7101 16.0922 19.8348V22.2853ZM17.9829 23.3453V20.8616C18.2693 20.9475 18.5827 20.9357 18.8719 20.8151C19.3681 20.608 19.6886 20.1273 19.6886 19.59V10.863C19.6886 9.80083 20.5528 8.93663 21.6149 8.93663H24.2243C24.6893 8.93663 25.1436 9.09865 25.5036 9.39294L25.7596 9.60224C26.5666 10.2622 27.5853 10.6254 28.6279 10.6254C29.6705 10.6254 30.6892 10.2621 31.4963 9.60224L31.7523 9.39294C32.1121 9.09865 32.5665 8.93663 33.0315 8.93663H35.6409C36.7031 8.93663 37.5673 9.80083 37.5673 10.863V19.5901C37.5673 20.1273 37.8878 20.6082 38.3839 20.8152C38.5496 20.8843 38.7231 20.9178 38.8951 20.9178C39.0233 20.9178 39.1506 20.8991 39.273 20.8625V23.3453C39.273 24.7256 38.3188 27.4059 36.5503 29.6551C35.9645 30.4001 35.2115 31.2005 34.2843 31.9001C34.255 31.9197 34.2268 31.941 34.2 31.9637C32.7637 33.0257 30.9169 33.8392 28.6279 33.8392C26.3389 33.8392 24.4921 33.0257 23.0557 31.9636C23.0289 31.9411 23.0009 31.9197 22.9716 31.9002C22.0445 31.2005 21.2915 30.4001 20.7056 29.6551C18.9372 27.4061 17.9829 24.7256 17.9829 23.3453ZM34.8213 38.6189L28.6279 43.2481L22.4345 38.6189C23.0487 37.8383 23.3928 36.8363 23.3928 35.9421V34.4182C24.8492 35.2014 26.5871 35.73 28.6279 35.73C30.6688 35.73 32.4068 35.2014 33.8631 34.4182V35.9421C33.8631 36.8363 34.2072 37.8383 34.8213 38.6189ZM20.8568 37.5637C20.3519 37.3714 19.7922 37.3399 19.2628 37.4835C19.2396 37.4889 19.2169 37.4951 19.1948 37.5016L15.9288 38.4871C16.4812 35.771 18.6867 33.6091 21.5021 33.1903V35.9421C21.5021 36.5352 21.2373 37.1483 20.8568 37.5637ZM23.4225 45.1526C23.4208 45.1482 23.419 45.1438 23.4174 45.1395C23.3694 45.0184 23.3222 44.8988 23.2753 44.7807C23.2668 44.7592 23.2584 44.7379 23.2499 44.7168C23.204 44.6011 23.1585 44.4864 23.1136 44.3735C23.1105 44.3656 23.1073 44.3578 23.1042 44.3497C22.9641 43.9975 22.829 43.6598 22.6992 43.3361C22.6897 43.3126 22.6803 43.2888 22.6708 43.2655C22.6335 43.1727 22.5968 43.0813 22.5603 42.991C22.547 42.9578 22.5337 42.925 22.5205 42.8923C22.4852 42.8048 22.4501 42.7178 22.4156 42.6326C22.4053 42.6072 22.3952 42.5825 22.385 42.5571C22.3223 42.4025 22.261 42.2519 22.2012 42.105C22.1851 42.0653 22.1686 42.0248 22.1526 41.9856C22.1291 41.9283 22.1063 41.8726 22.0834 41.8165C22.0586 41.756 22.0339 41.6959 22.0097 41.6369C22.0006 41.6149 21.9912 41.5915 21.9821 41.5696C21.9748 41.5519 21.9681 41.5357 21.9609 41.5182C21.8517 41.2529 21.748 41.0028 21.6495 40.7677C21.6487 40.7658 21.6478 40.7639 21.6471 40.762C21.5946 40.6368 21.5433 40.5145 21.494 40.398C21.4684 40.3376 21.4432 40.2782 21.4185 40.22L26.7451 44.2011L24.5194 45.1466C24.5155 45.1482 24.5114 45.1499 24.5075 45.1516L23.5782 45.5464C23.5255 45.4131 23.474 45.2825 23.4225 45.1526ZM25.6782 50.9411C25.4915 50.4565 25.3034 49.9692 25.1149 49.4824C24.8201 48.7209 24.5385 47.9969 24.2691 47.3072L24.6219 47.1573L26.0633 48.8329L25.6782 50.9411ZM28.6462 58.6246C28.6191 58.5683 28.5868 58.5153 28.5495 58.4658C28.1223 57.3367 27.5801 55.908 26.9801 54.3361L27.8627 49.5038H29.3932L30.2758 54.3361C29.647 55.9829 29.0822 57.472 28.6462 58.6246ZM29.7477 47.6132H27.5081L26.4484 46.3814L28.6279 45.4555L30.8075 46.3814L29.7477 47.6132ZM32.141 49.4824C31.9525 49.9692 31.7644 50.4565 31.5776 50.9411L31.1925 48.8327L32.634 47.1572L32.9868 47.3071C32.7173 47.9968 32.4358 48.7209 32.141 49.4824ZM35.762 40.398C35.7152 40.5084 35.6665 40.6243 35.617 40.7426C35.6105 40.758 35.604 40.7735 35.5975 40.789C35.5485 40.9063 35.4986 41.026 35.4469 41.1507C35.4435 41.1589 35.4399 41.1676 35.4365 41.176C35.3919 41.2835 35.3461 41.3945 35.2996 41.5076C35.2909 41.5288 35.2827 41.5483 35.274 41.5696C35.2637 41.5949 35.2526 41.6218 35.2421 41.6474C35.2214 41.6978 35.2004 41.7493 35.1792 41.8007C35.1532 41.8641 35.1274 41.9273 35.1008 41.9922C35.0923 42.0129 35.0836 42.0345 35.075 42.0553C35.0092 42.2166 34.9416 42.3827 34.8725 42.5535C34.8617 42.5802 34.851 42.6064 34.8401 42.6335C34.806 42.7179 34.7712 42.804 34.7362 42.8906C34.7226 42.9245 34.7089 42.9583 34.6951 42.9926C34.6591 43.082 34.6226 43.1726 34.5858 43.2643C34.5755 43.2899 34.565 43.3162 34.5547 43.3419C34.4264 43.6611 34.2934 43.9941 34.1554 44.3411C34.1508 44.3526 34.1463 44.3638 34.1417 44.3754C34.0971 44.4875 34.052 44.6015 34.0063 44.7164C33.9979 44.7378 33.9893 44.7592 33.9807 44.7808C33.9336 44.8996 33.886 45.0196 33.8379 45.1415C33.837 45.1438 33.8361 45.1461 33.8352 45.1482C33.7833 45.2796 33.7311 45.4117 33.6779 45.5467L32.7477 45.1515C32.7444 45.1501 32.7412 45.1487 32.738 45.1473L30.511 44.2013L35.8376 40.2202C35.8126 40.2782 35.7874 40.3375 35.762 40.398ZM38.061 37.5018C38.0609 37.5018 38.0607 37.5016 38.0605 37.5016C38.0598 37.5014 38.0589 37.5013 38.0581 37.5009C37.5097 37.3363 36.9246 37.3636 36.3992 37.5637C36.0185 37.1483 35.7539 36.5352 35.7539 35.9421V33.1889C38.587 33.6065 40.7858 35.7481 41.331 38.4883L38.061 37.5018ZM45.3977 50.8879C45.3977 52.5426 44.0515 53.8887 42.3968 53.8887C40.7422 53.8887 39.3959 52.5426 39.3959 50.8879C39.3959 49.2331 40.7422 47.887 42.3968 47.887C44.0515 47.887 45.3977 49.2331 45.3977 50.8879Z" fill="#8884B4"/>
</svg>
