<svg width="65" height="59" viewBox="0 0 65 59" fill="none" xmlns="http://www.w3.org/2000/svg">
<path d="M60.3027 27.8189C59.3852 27.8189 58.5292 28.0842 57.8051 28.5408C56.9806 26.1916 54.7416 24.502 52.1143 24.502H22.0264C20.5589 24.502 19.2127 25.0294 18.166 25.9039C17.3362 23.6879 15.1973 22.106 12.6953 22.106C11.4711 22.106 10.3342 22.4853 9.39453 23.1318V11.5527C9.39453 8.96264 7.28736 6.85547 4.69727 6.85547C2.10717 6.85547 0 8.96264 0 11.5527V56.875C0 57.576 0.568369 58.1445 1.26953 58.1445H8.125C8.82616 58.1445 9.39453 57.576 9.39453 56.875V51.2891H27.8027C28.5039 51.2891 29.0723 50.7206 29.0723 50.0195C29.0723 49.3185 28.5039 48.75 27.8027 48.75H9.39453V33.7857H15.9961V39.8891C15.9961 40.9407 16.5698 41.9066 17.4931 42.4097C18.4166 42.9128 19.5391 42.8712 20.4238 42.3005L20.4557 42.28C21.5144 41.5968 22.8842 41.5943 23.9453 42.273L24.0496 42.3396C25.9457 43.5527 28.3928 43.5477 30.2839 42.3277L30.358 42.2798C31.4167 41.5967 32.7865 41.5942 33.8476 42.2729L33.952 42.3395C35.848 43.5525 38.2953 43.5476 40.1863 42.3276L40.2604 42.2797C41.3189 41.5966 42.6887 41.594 43.75 42.2727L43.8543 42.3394C44.7993 42.9439 45.881 43.2459 46.9625 43.2459C48.051 43.2458 49.1394 42.9399 50.0872 42.3282L50.1626 42.2796C51.2213 41.5966 52.5911 41.5939 53.6533 42.2734L53.7269 42.3203C54.294 42.6832 54.9586 42.8278 55.6052 42.7526V48.75H37.2409C36.5398 48.75 35.9714 49.3185 35.9714 50.0195C35.9714 50.7206 36.5398 51.2891 37.2409 51.2891H55.6055V56.875C55.6055 57.576 56.1738 58.1445 56.875 58.1445H63.7305C64.4316 58.1445 65 57.576 65 56.875V32.5161C65 29.9262 62.8928 27.8189 60.3027 27.8189ZM6.85547 32.5161V50.0195V55.6055H2.53906V11.5527C2.53906 10.3627 3.50721 9.39453 4.69727 9.39453C5.88732 9.39453 6.85547 10.3627 6.85547 11.5527V32.5161ZM12.6953 31.2466C10.8753 31.2466 9.39453 29.7659 9.39453 27.9458C9.39453 26.1258 10.8753 24.645 12.6953 24.645C14.5153 24.645 15.9961 26.1258 15.9961 27.9458C15.9961 29.7659 14.5153 31.2466 12.6953 31.2466ZM55.6056 30.5957H42.9618C42.2607 30.5957 41.6923 31.1642 41.6923 31.8652C41.6923 32.5663 42.2607 33.1348 42.9618 33.1348H55.6055V39.9028C55.6055 40.0651 55.5118 40.1505 55.4332 40.1935C55.3546 40.2367 55.2322 40.2695 55.0945 40.1813L55.0208 40.1343C53.1248 38.9213 50.6777 38.926 48.7866 40.1463L48.7124 40.1941C47.6539 40.8774 46.2842 40.8799 45.2229 40.2011L45.1185 40.1345C43.2225 38.9215 40.7753 38.9264 38.8842 40.1464L38.8101 40.1943C37.7515 40.8775 36.3817 40.8801 35.3205 40.2012L35.2162 40.1346C34.2714 39.5302 33.1897 39.2281 32.1083 39.2281C31.0195 39.2281 29.9307 39.5344 28.982 40.1464L28.9079 40.1943C27.8493 40.8775 26.4795 40.8801 25.4183 40.2012L25.3139 40.1346C23.4179 38.9218 20.9708 38.9265 19.0784 40.1474L19.0465 40.168C18.9098 40.2562 18.7873 40.2236 18.7082 40.1805C18.6294 40.1376 18.5353 40.0522 18.5353 39.8894V30.5322C18.5353 28.6071 20.1014 27.041 22.0265 27.041H52.1144C54.0395 27.041 55.6056 28.6071 55.6056 30.5322V30.5957ZM62.4609 55.6055H58.1445V50.0195V39.9028V32.5161C58.1445 31.3261 59.1127 30.3579 60.3027 30.3579C61.4928 30.3579 62.4609 31.3261 62.4609 32.5161V55.6055Z" fill="#8884B4"/>
<path d="M45.4928 6.85547H41.7022L46.3905 2.16722C46.7536 1.80413 46.8621 1.25798 46.6656 0.783682C46.4691 0.309258 46.0062 0 45.4927 0H38.6372C37.936 0 37.3677 0.568369 37.3677 1.26953C37.3677 1.97069 37.936 2.53906 38.6372 2.53906H42.4278L37.7395 7.22732C37.3764 7.5904 37.2679 8.13655 37.4644 8.61085C37.6609 9.08527 38.1238 9.39453 38.6373 9.39453H45.4928C46.194 9.39453 46.7623 8.82616 46.7623 8.125C46.7623 7.42384 46.194 6.85547 45.4928 6.85547Z" fill="#8884B4"/>
<path d="M32.5001 11.9336H30.4869L33.3978 9.02269C33.7609 8.6596 33.8694 8.11345 33.6729 7.63915C33.4764 7.16485 33.0134 6.85547 32.5 6.85547H27.4219C26.7207 6.85547 26.1523 7.42384 26.1523 8.125C26.1523 8.82616 26.7207 9.39453 27.4219 9.39453H29.4351L26.5242 12.3054C26.1611 12.6685 26.0526 13.2147 26.2491 13.689C26.4456 14.1634 26.9085 14.4727 27.422 14.4727H32.5001C33.2013 14.4727 33.7697 13.9043 33.7697 13.2031C33.7697 12.502 33.2013 11.9336 32.5001 11.9336Z" fill="#8884B4"/>
<path d="M21.8746 16.5039H20.877L22.7723 14.6086C23.1354 14.2455 23.244 13.6994 23.0474 13.2251C22.8509 12.7507 22.388 12.4414 21.8745 12.4414H17.812C17.1108 12.4414 16.5425 13.0098 16.5425 13.7109C16.5425 14.4121 17.1108 14.9805 17.812 14.9805H18.8096L16.9143 16.8758C16.5512 17.2388 16.4427 17.785 16.6392 18.2593C16.8357 18.7337 17.2986 19.043 17.8121 19.043H21.8746C22.5758 19.043 23.1442 18.4746 23.1442 17.7734C23.1442 17.0723 22.5758 16.5039 21.8746 16.5039Z" fill="#8884B4"/>
</svg>
