<svg width="47" height="48" viewBox="0 0 47 48" fill="none" xmlns="http://www.w3.org/2000/svg">
<path d="M32.5615 36.4519L36.0953 32.8145L46.9653 43.9995L43.4303 47.637L32.5615 36.4519Z" fill="white"/>
<path d="M17 33.4419C25.9746 33.4419 33.25 25.9557 33.25 16.7209C33.25 7.48622 25.9746 0 17 0C8.02537 0 0.75 7.48622 0.75 16.7209C0.75 25.9557 8.02537 33.4419 17 33.4419Z" fill="white"/>
<path d="M25.625 9.26093C23.5 6.68849 20.375 5.14502 17 5.14502C13.6249 5.14502 10.4999 6.68849 8.37494 9.26093C7.87494 9.77542 7.99994 10.6758 8.49994 11.0616C8.99994 11.5761 9.87494 11.4475 10.2499 10.933C11.9999 8.87507 14.375 7.71746 17 7.71746C19.625 7.71746 22 8.87507 23.75 10.933C24 11.1903 24.375 11.4475 24.75 11.4475C25 11.4475 25.375 11.3189 25.5 11.1903C26 10.6758 26 9.77542 25.625 9.26093Z" fill="black"/>
</svg>
