<svg width="58" height="72" viewBox="0 0 58 72" fill="none" xmlns="http://www.w3.org/2000/svg">
<path d="M42.243 25.1682H39.0814C38.8883 24.5555 38.6428 23.9622 38.3464 23.3931L40.5819 21.1575C40.8612 20.8781 41.0151 20.5066 41.0151 20.1114C41.0151 19.7161 40.8612 19.3446 40.5819 19.0652L37.951 16.4342C37.3742 15.8578 36.4357 15.8575 35.8587 16.4343L33.6231 18.6699C33.054 18.3736 32.4606 18.1279 31.848 17.935V14.7732C31.8479 13.9575 31.1842 13.2937 30.3684 13.2937H26.6476C25.8319 13.2937 25.1682 13.9574 25.1682 14.7732V17.935C24.5555 18.1281 23.9622 18.3736 23.3929 18.6699L21.1572 16.4342C20.5804 15.8577 19.6419 15.8578 19.0651 16.4343L16.4343 19.0651C16.1548 19.3445 16.0009 19.716 16.0009 20.1113C16.0009 20.5065 16.1548 20.878 16.4342 21.1573L18.6698 23.3929C18.3735 23.9621 18.1278 24.5555 17.9349 25.1681H14.7731C13.9574 25.1681 13.2937 25.8318 13.2937 26.6476V30.3684C13.2937 31.1841 13.9574 31.8477 14.7731 31.8477H17.9349C18.1279 32.4603 18.3735 33.0538 18.6698 33.6229L16.4342 35.8585C15.8574 36.4353 15.8574 37.3739 16.4342 37.9507L19.0651 40.5816C19.6419 41.1586 20.5807 41.1584 21.1573 40.5816L23.3929 38.346C23.9621 38.6424 24.5556 38.888 25.1682 39.081V42.2427C25.1682 43.0584 25.8319 43.7221 26.6476 43.7221H30.3684C31.184 43.7221 31.8479 43.0584 31.8479 42.2427V39.081C32.4603 38.888 33.0538 38.6424 33.623 38.346L35.8586 40.5816C36.4356 41.1586 37.3742 41.1584 37.951 40.5816L40.5817 37.9507C40.8611 37.6713 41.0149 37.2998 41.0149 36.9047C41.0149 36.5095 40.8611 36.138 40.5817 35.8585L38.3461 33.6229C38.6425 33.0537 38.8882 32.4603 39.0811 31.8477H42.2429C43.0586 31.8477 43.7224 31.1841 43.7224 30.3684V26.6476C43.7225 25.8319 43.0587 25.1682 42.243 25.1682ZM41.6348 29.7598H38.2859C37.8009 29.7598 37.3799 30.0937 37.2693 30.566C37.0468 31.5174 36.6732 32.4198 36.1589 33.2479C35.9029 33.6599 35.9645 34.1938 36.3074 34.537L38.6752 36.9048L36.9049 38.6751L34.5371 36.3072C34.1941 35.9643 33.6602 35.9025 33.2479 36.1586C32.4197 36.6729 31.5173 37.0465 30.5662 37.2692C30.0939 37.3796 29.76 37.8006 29.76 38.2857V41.6347H27.2565V38.2857C27.2565 37.8008 26.9226 37.3797 26.4503 37.2692C25.4992 37.0468 24.5968 36.6732 23.7685 36.1586C23.3566 35.903 22.8225 35.9643 22.4794 36.3072L20.1116 38.6751L18.3413 36.9048L20.7091 34.537C21.0521 34.194 21.1136 33.66 20.8578 33.2479C20.3435 32.4197 19.9699 31.5173 19.7473 30.566C19.6369 30.0937 19.2157 29.7598 18.7308 29.7598H15.3819V27.2564H18.7308C19.2157 27.2564 19.6368 26.9225 19.7473 26.4502C19.9699 25.4989 20.3435 24.5965 20.8578 23.7683C21.1136 23.3563 21.0521 22.8224 20.7091 22.4793L18.3413 20.1114L20.1116 18.3412L22.4794 20.709C22.8221 21.052 23.3563 21.1136 23.7685 20.8577C24.5965 20.3433 25.4989 19.9697 26.4503 19.7472C26.9226 19.6368 27.2565 19.2157 27.2565 18.7306V15.3816H29.76V18.7306C29.76 19.2156 30.0939 19.6366 30.5662 19.7472C31.5174 19.9697 32.4197 20.3433 33.248 20.8577C33.6598 21.1134 34.194 21.0517 34.5371 20.709L36.9049 18.3412L38.6752 20.1114L36.3074 22.4793C35.9644 22.8222 35.9029 23.3562 36.1589 23.7683C36.673 24.5963 37.0466 25.4987 37.2693 26.4502C37.3799 26.9225 37.8008 27.2564 38.2859 27.2564H41.6348V29.7598Z" fill="#2D135A"/>
<path d="M28.5081 22.9153C25.4241 22.9153 22.9153 25.4243 22.9153 28.5081C22.9153 31.592 25.4243 34.1009 28.5081 34.1009C31.592 34.1009 34.1009 31.592 34.1009 28.5081C34.1009 25.4243 31.5921 22.9153 28.5081 22.9153ZM28.5081 32.013C26.5755 32.013 25.0032 30.4407 25.0032 28.5081C25.0032 26.5755 26.5755 25.0032 28.5081 25.0032C30.4407 25.0032 32.013 26.5755 32.013 28.5081C32.013 30.4407 30.4407 32.013 28.5081 32.013Z" fill="#2D135A"/>
<path d="M4.50739 27.4641H1.04396C0.467414 27.4641 0 27.9315 0 28.5081C0 29.0846 0.467414 29.552 1.04396 29.552H4.50739C5.08393 29.552 5.55134 29.0846 5.55134 28.5081C5.55134 27.9315 5.08393 27.4641 4.50739 27.4641Z" fill="#2D135A"/>
<path d="M55.9725 27.4641H52.509C51.9324 27.4641 51.4651 27.9315 51.4651 28.5081C51.4651 29.0846 51.9324 29.552 52.509 29.552H55.9725C56.5492 29.552 57.0164 29.0846 57.0164 28.5081C57.0164 27.9315 56.549 27.4641 55.9725 27.4641Z" fill="#2D135A"/>
<path d="M12.2751 44.7411C11.8676 44.3334 11.2065 44.3334 10.7987 44.7411L8.34972 47.1901C7.94202 47.5978 7.94202 48.2588 8.34972 48.6665C8.75742 49.0742 9.41845 49.0742 9.82615 48.6665L12.2751 46.2175C12.6828 45.8098 12.6828 45.1488 12.2751 44.7411Z" fill="#2D135A"/>
<path d="M48.6664 8.34996C48.2585 7.94226 47.5977 7.94226 47.1898 8.34996L44.7408 10.7989C44.3331 11.2066 44.3331 11.8677 44.7408 12.2754C45.1487 12.6831 45.8096 12.6829 46.2174 12.2754L48.6664 9.8264C49.0741 9.41856 49.0741 8.75752 48.6664 8.34996Z" fill="#2D135A"/>
<path d="M28.5083 0C27.9316 0 27.4644 0.467414 27.4644 1.04396V4.50739C27.4644 5.08393 27.9316 5.55134 28.5083 5.55134C29.085 5.55134 29.5523 5.08393 29.5523 4.50739V1.04396C29.5523 0.467414 29.085 0 28.5083 0Z" fill="#2D135A"/>
<path d="M48.6664 47.1901L46.2174 44.7411C45.8096 44.3334 45.1487 44.3334 44.7408 44.7411C44.3331 45.1488 44.3331 45.81 44.7408 46.2175L47.1898 48.6665C47.5977 49.0742 48.2585 49.0742 48.6664 48.6665C49.0741 48.2588 49.0741 47.5978 48.6664 47.1901Z" fill="#2D135A"/>
<path d="M12.2751 10.7989L9.82615 8.34996C9.41845 7.94226 8.75742 7.94226 8.34972 8.34996C7.94202 8.75766 7.94202 9.4187 8.34972 9.8264L10.7987 12.2754C11.2064 12.6831 11.8674 12.6831 12.2751 12.2754C12.6828 11.8675 12.6828 11.2065 12.2751 10.7989Z" fill="#2D135A"/>
<path d="M49.3356 25.9505C48.2121 16.3635 40.6125 8.76327 31.0705 7.60016C30.4991 7.52987 29.9775 7.93785 29.9077 8.51008C29.8379 9.08244 30.2454 9.60303 30.8177 9.6729C39.4835 10.7291 46.2456 17.5228 47.2616 26.1936C47.3238 26.7249 47.7749 27.116 48.297 27.116C48.3377 27.116 48.3786 27.1137 48.4199 27.1089C48.9929 27.042 49.4027 26.5233 49.3356 25.9505Z" fill="#2D135A"/>
<path d="M48.4077 29.9082C47.8348 29.8353 47.3132 30.2408 47.2408 30.8129C46.5291 36.4346 43.356 41.3951 38.5352 44.4219C36.4569 45.7268 35.2162 47.9601 35.2162 50.3957V54.6922H21.8003V50.3006C21.8003 47.9421 20.5677 45.7139 18.5838 44.4858C12.9734 41.0129 9.62387 35.0057 9.62373 28.4164C9.62373 18.9022 16.7502 10.8448 26.2005 9.67414C26.7727 9.60329 27.179 9.08187 27.1082 8.50965C27.0373 7.93756 26.5162 7.53014 25.9437 7.60196C15.502 8.89549 7.53526 17.8749 7.5354 28.4164C7.5354 32.0539 8.4815 35.6379 10.2717 38.7809C12.007 41.8279 14.5012 44.4144 17.4844 46.2611C18.8584 47.1115 19.7118 48.6594 19.7118 50.3005V54.8442C18.6503 55.2131 17.8849 56.2211 17.8849 57.4066V58.8949C17.8849 59.525 18.1026 60.1042 18.4641 60.5653C18.1025 61.0265 17.8849 61.6055 17.8849 62.2358V63.7239C17.8849 65.2207 19.1027 66.4384 20.5993 66.4384H23.8815V68.7984C23.8815 70.1599 24.9891 71.2674 26.3504 71.2674H30.665C32.0265 71.2674 33.1339 70.1599 33.1339 68.7984V66.4384H36.4161C37.9129 66.4384 39.1305 65.2206 39.1305 63.7239V62.2358C39.1305 61.6057 38.9128 61.0265 38.5512 60.5653C38.9128 60.1042 39.1305 59.5252 39.1305 58.8949V57.4066C39.1305 56.221 38.3652 55.2131 37.3036 54.8442V50.3955C37.3036 48.6828 38.1787 47.1107 39.6449 46.1902C44.9974 42.8295 48.521 37.3202 49.3115 31.0751C49.3845 30.503 48.9796 29.9806 48.4077 29.9082ZM31.0463 68.7983C31.0463 69.0047 30.8719 69.1792 30.6654 69.1792H26.3508C26.1444 69.1792 25.97 69.0048 25.97 68.7983V66.4382H31.0463V68.7983ZM37.043 63.7238C37.043 64.0633 36.7562 64.3502 36.4167 64.3502C34.5737 64.3502 22.3388 64.3502 20.5997 64.3502C20.2603 64.3502 19.9734 64.0633 19.9734 63.7238V62.2357C19.9734 61.8962 20.2603 61.6093 20.5997 61.6093H36.4167C36.7562 61.6093 37.043 61.8962 37.043 62.2357V63.7238ZM37.043 58.8947C37.043 59.2342 36.7562 59.5211 36.4167 59.5211H20.5997C20.2603 59.5211 19.9734 59.2342 19.9734 58.8947V57.4065C19.9734 57.067 20.2603 56.7801 20.5997 56.7801H36.4167C36.7562 56.7801 37.043 57.067 37.043 57.4065V58.8947Z" fill="#2D135A"/>
</svg>
