<svg width="66" height="66" viewBox="0 0 66 66" fill="none" xmlns="http://www.w3.org/2000/svg">
<path d="M63.9339 32.5578C61.7273 30.7391 58.2394 30.5831 55.9502 33.0399L50.2672 39.1405C49.5325 36.7791 47.3271 35.0597 44.7274 35.0597H34.5859C33.8163 35.0597 33.5587 34.7658 32.2219 33.736C27.1254 29.2929 19.4703 29.3071 14.3892 33.7785L10.6616 37.0601C8.98597 36.1733 7.02935 36.1514 5.34459 36.9931L1.06912 39.1302C0.113951 39.6084 -0.272629 40.7697 0.204184 41.7249L11.8048 64.9261C12.2831 65.8812 13.4444 66.2678 14.3995 65.791L18.675 63.6526C20.7824 62.5996 21.9553 60.4495 21.8793 58.261H44.7272C48.964 58.261 53.0126 56.2373 55.5545 52.8474L64.8363 40.4709C66.6369 38.072 66.352 34.5544 63.9339 32.5578ZM16.9451 60.1943L14.3994 61.4677L4.52734 41.7249L7.07434 40.4515C8.02951 39.9745 9.18951 40.3599 9.66774 41.3164L17.81 57.601C18.287 58.556 17.9003 59.716 16.9451 60.1943ZM61.7427 38.1507L52.461 50.5272C50.6449 52.9491 47.7538 54.394 44.7274 54.394H20.5298L13.2845 39.9023L16.9438 36.6813C20.5851 33.4782 26.0761 33.4782 29.7174 36.6813C31.8622 38.5696 33.1962 38.9267 34.5858 38.9267H44.7272C45.7933 38.9267 46.6607 39.7942 46.6607 40.8601C46.6607 41.926 45.7931 42.7935 44.7272 42.7935H34.8526C33.7853 42.7935 32.9192 43.6597 32.9192 44.7269C32.9192 45.7941 33.7854 46.6603 34.8526 46.6603H46.0227C47.6274 46.6603 49.1743 45.9875 50.2672 44.8133L58.7795 35.6758C59.5581 34.8406 60.7516 34.9102 61.4838 35.5508C62.2493 36.221 62.3319 37.3669 61.7427 38.1507Z" fill="#2D135A"/>
<path d="M40.6545 13.1938C41.9782 11.8056 42.7942 9.9289 42.7942 7.86258C42.7942 3.60645 39.3553 0 35.0605 0C30.7979 0 27.1979 3.60001 27.1979 7.86258C27.1979 9.86561 27.9829 11.7565 29.4085 13.2092C25.8729 15.1916 23.3311 18.9966 23.3311 23.459V25.3924C23.3311 26.4596 24.1973 27.3258 25.2645 27.3258H44.7277C45.7949 27.3258 46.6611 26.4596 46.6611 25.3924V23.459C46.661 19.0843 44.2548 15.22 40.6545 13.1938ZM35.0605 3.86697C37.1563 3.86697 38.9273 5.69727 38.9273 7.86271C38.9273 9.99464 37.1924 11.7296 35.0605 11.7296C32.895 11.7296 31.0647 9.95855 31.0647 7.86271C31.0647 5.73465 32.9324 3.86697 35.0605 3.86697ZM27.1979 23.459C27.1979 19.1964 30.7979 15.5964 35.0605 15.5964C39.3243 15.5964 42.7942 19.1229 42.7942 23.459H27.1979Z" fill="#2D135A"/>
</svg>
