<svg width="66" height="66" viewBox="0 0 66 66" fill="none" xmlns="http://www.w3.org/2000/svg">
<path d="M1.93359 62.0034H13.4989L36.5389 65.9718C37.0318 66.0564 37.5535 65.9512 37.9921 65.638C37.9986 65.6334 38.0052 65.6294 38.0117 65.6244L65.2109 45.6439C66.0619 45.019 66.2542 43.8267 65.6424 42.9656C62.6363 38.7349 56.6512 37.6241 52.3007 40.4902L45.4067 45.0362C44.3498 43.6011 42.6493 42.668 40.7344 42.668H34.4592C33.3917 42.668 32.9562 41.8966 32.2739 41.3865C27.176 36.9005 19.488 36.9005 14.3902 41.3865L12.9344 42.668H1.93359C0.865585 42.668 0 43.5336 0 44.6016V60.0698C0 61.1378 0.865585 62.0034 1.93359 62.0034V62.0034ZM3.86719 46.5352H13.6641C14.1344 46.5352 14.5886 46.3635 14.9415 46.0528L16.9451 44.2899C20.5862 41.0854 26.0778 41.0854 29.7189 44.2899C30.2305 44.6348 31.6445 46.5352 34.4592 46.5352H40.7344C41.8003 46.5352 42.6679 47.4023 42.6679 48.4688C42.6679 49.5348 41.8003 50.4019 40.7344 50.4019H25.2656C24.1976 50.4019 23.332 51.268 23.332 52.3355C23.332 53.4035 24.1976 54.2691 25.2656 54.2691H40.7344C43.7747 54.2691 46.2743 51.9175 46.5145 48.9381L54.4291 43.7189C56.5047 42.3518 59.1931 42.4782 61.1267 43.8458L36.3848 62.0211C12.6509 57.9434 13.9788 58.1362 13.6641 58.1362H3.86719V46.5352Z" fill="#2D135A"/>
<path d="M50.4023 17.5312C50.4023 7.86428 42.5954 0 33 0C23.4045 0 15.5977 7.86428 15.5977 17.5312C15.5977 27.1267 23.4045 34.9336 33 34.9336C42.5954 34.9336 50.4023 27.1267 50.4023 17.5312ZM46.5351 17.5312C46.5351 24.3381 41.4841 29.9863 34.9336 30.9274V27.4258C37.1733 26.6216 38.7801 24.4776 38.7801 21.9649C38.7801 18.7664 36.1778 16.1641 32.9793 16.1641C31.9128 16.1641 31.0458 15.2965 31.0458 14.2305C31.0458 13.164 31.9128 12.2969 32.9793 12.2969C34.0453 12.2969 34.9129 13.164 34.9129 14.2305C34.9129 15.298 35.7785 16.1641 36.8465 16.1641C37.914 16.1641 38.7801 15.298 38.7801 14.2305C38.7801 11.7174 37.1733 9.5733 34.9336 8.76914V4.00717C41.4841 4.95735 46.5351 10.6594 46.5351 17.5312ZM19.4648 17.5312C19.4648 10.6594 24.5158 4.95735 31.0664 4.00717V8.75504C28.805 9.54762 27.1786 11.7018 27.1786 14.2305C27.1786 17.429 29.7809 20.0308 32.9793 20.0308C34.0453 20.0308 34.9129 20.8984 34.9129 21.9644C34.9129 23.0309 34.0453 23.898 32.9793 23.898C31.9128 23.898 31.0458 23.0309 31.0458 21.9644C31.0458 20.8969 30.1797 20.0308 29.1122 20.0308C28.0442 20.0308 27.1786 20.8969 27.1786 21.9644C27.1786 24.4932 28.805 26.6473 31.0664 27.4399V30.9274C24.5158 29.9863 19.4648 24.3381 19.4648 17.5312V17.5312Z" fill="#2D135A"/>
</svg>
