<svg width="71" height="68" viewBox="0 0 71 68" fill="none" xmlns="http://www.w3.org/2000/svg">
<path d="M71 34C71 29.724 67.9384 26.1504 63.8917 25.3517C62.0836 17.6905 58.4466 11.3033 53.3181 6.81134C48.3033 2.419 41.9754 0 35.4998 0C29.0241 0 22.6966 2.419 17.6817 6.81134C12.5532 11.3033 8.91644 17.6905 7.10811 25.3517C3.06159 26.1504 0 29.724 0 34C0 38.276 3.06159 41.8494 7.10825 42.6483C8.91644 50.3095 12.5534 56.6967 17.6819 61.1887C22.6967 65.581 29.0245 68 35.5002 68C41.9759 68 48.3037 65.581 53.3185 61.1887C58.4471 56.6967 62.0838 50.3095 63.8922 42.6483C67.9385 41.8494 71 38.276 71 34V34ZM20.4233 9.93908C24.6791 6.21141 30.0335 4.1585 35.5001 4.1585C40.9667 4.1585 46.3211 6.21141 50.5768 9.93908C54.8823 13.7101 57.9967 19.0779 59.6575 25.5533C58.4724 25.9077 57.3921 26.5049 56.473 27.2869C53.6268 18.4216 45.3017 11.9864 35.5001 11.9864C25.6984 11.9864 17.3733 18.4216 14.5271 27.2869C13.608 26.5049 12.5276 25.9077 11.3427 25.5533C13.0035 19.0779 16.1179 13.7101 20.4233 9.93908V9.93908ZM53.2396 36.0792C52.2059 44.9485 44.6453 51.8551 35.5001 51.8551C26.3548 51.8551 18.7943 44.9485 17.7605 36.0792H53.2396ZM17.7605 31.9208C18.7943 23.0515 26.3548 16.1449 35.5001 16.1449C44.6453 16.1449 52.2059 23.0517 53.2396 31.9208H17.7605ZM4.15995 34C4.15995 31.4317 6.25019 29.3422 8.81938 29.3422C11.3886 29.3422 13.4788 31.4317 13.4788 34C13.4788 36.5683 11.3886 38.6578 8.81938 38.6578C6.25019 38.6578 4.15995 36.5683 4.15995 34ZM50.5768 58.0609C46.3211 61.7886 40.9667 63.8415 35.5001 63.8415C30.0335 63.8415 24.6791 61.7886 20.4233 58.0609C16.1179 54.2899 13.0035 48.9221 11.3427 42.4467C12.5277 42.0923 13.608 41.4951 14.5271 40.7131C17.3733 49.5784 25.6984 56.0135 35.5001 56.0135C45.3017 56.0135 53.6268 49.5784 56.473 40.7131C57.3921 41.4951 58.4726 42.0923 59.6575 42.4467C57.9967 48.9219 54.8823 54.2897 50.5768 58.0609V58.0609ZM62.1806 38.6578C59.6114 38.6578 57.5212 36.5683 57.5212 34C57.5212 31.4317 59.6114 29.3422 62.1806 29.3422C64.7498 29.3422 66.84 31.4317 66.84 34C66.84 36.5683 64.7499 38.6578 62.1806 38.6578Z" fill="#2D135A"/>
</svg>
