<svg width="100" height="59" viewBox="0 0 100 59" fill="none" xmlns="http://www.w3.org/2000/svg">
<path d="M42.2226 58.7546C41.4072 58.7546 40.663 58.2286 40.3863 57.4626C40.1097 56.6972 40.3523 55.8079 40.9837 55.2921C41.6351 54.7599 42.5742 54.7095 43.2816 55.161C43.9437 55.5837 44.2918 56.3968 44.1425 57.1677C43.9662 58.0774 43.1502 58.7546 42.2226 58.7546Z" fill="#2D135A"/>
<path d="M98.0469 24.2199H84.375V7.78027C84.375 3.49023 80.8848 0 76.5949 0H7.78008C3.49023 0 0 3.49023 0 7.78027V50.975C0 55.265 3.49023 58.7551 7.78008 58.7551H33.3582C34.4369 58.7551 35.3113 57.8805 35.3113 56.8019C35.3113 55.7234 34.4369 54.8488 33.3582 54.8488H7.78008C5.64395 54.8488 3.90625 53.1111 3.90625 50.975V7.78027C3.90625 5.64394 5.64395 3.90625 7.78008 3.90625H76.5949C78.7311 3.90625 80.4688 5.64414 80.4688 7.78027V24.2199H75.7812V21.3182C75.7812 20.2396 74.9068 19.365 73.8281 19.365C68.9658 19.365 65.01 15.4092 65.01 10.5469C65.01 9.46836 64.1355 8.59375 63.0568 8.59375H21.3182C20.2395 8.59375 19.365 9.46836 19.365 10.5469C19.365 15.4094 15.4092 19.365 10.5469 19.365C9.46816 19.365 8.59375 20.2396 8.59375 21.3182V37.4367C8.59375 38.5152 9.46816 39.3898 10.5469 39.3898C15.4092 39.3898 19.365 43.3457 19.365 48.208C19.365 49.2865 20.2395 50.1611 21.3182 50.1611H61.0363V54.8486H51.0168C49.9381 54.8486 49.0637 55.7232 49.0637 56.8017C49.0637 57.8803 49.9381 58.7549 51.0168 58.7549H98.0469C99.1256 58.7549 100 57.8803 100 56.8017V26.1729C100 25.0943 99.1256 24.2199 98.0469 24.2199ZM64.9426 38.3357H96.0938V44.6391H64.9426V38.3357ZM96.0938 34.4295H64.9426V28.1262H96.0938V34.4295ZM12.5 35.6334V23.1217C17.9551 22.2777 22.2775 17.9553 23.1217 12.5H61.2533C62.0975 17.9553 66.4199 22.2777 71.875 23.1217V24.2199H62.9895C61.9107 24.2199 61.0363 25.0943 61.0363 26.173V46.2551H23.1217C22.2775 40.7998 17.9551 36.4775 12.5 35.6334V35.6334ZM96.0938 54.8488H64.9426V48.5455H96.0938V54.8488Z" fill="#2D135A"/>
<path d="M42.1874 42.5508C34.9237 42.5508 29.0142 36.6413 29.0142 29.3776C29.0142 22.1139 34.9237 16.2043 42.1874 16.2043C49.4511 16.2043 55.3606 22.1139 55.3606 29.3776C55.3606 36.6413 49.4511 42.5508 42.1874 42.5508ZM42.1874 20.1106C37.0776 20.1106 32.9204 24.2678 32.9204 29.3776C32.9204 34.4874 37.0776 38.6446 42.1874 38.6446C47.2972 38.6446 51.4544 34.4874 51.4544 29.3776C51.4544 24.2678 47.2972 20.1106 42.1874 20.1106Z" fill="#2D135A"/>
</svg>
