<svg width="56" height="66" viewBox="0 0 56 66" fill="none" xmlns="http://www.w3.org/2000/svg">
<path d="M10.2126 22.043C10.2126 15.5745 15.4235 10.3125 21.8293 10.3125V15.4688C18.2395 15.4688 15.3188 18.418 15.3188 22.043H10.2126ZM35.5569 33.3439C37.2619 33.8983 39.068 34.2226 40.9395 34.2795C39.7257 36.5349 38.2906 38.4443 36.9298 40.2525C34.2071 43.8709 32.0558 46.729 32.0558 51.487V58.2656C32.0558 62.5306 28.6201 66 24.3964 66H19.517C15.2939 66 11.8576 62.5306 11.8576 58.2656V51.487C11.8576 46.729 9.70691 43.8709 6.98423 40.2525C3.72848 35.9261 0.04089 31.0261 0.00049866 22.1719H0L0.00049866 22.0243C0.0792869 9.86636 9.8984 0 21.957 0C23.9112 0 25.8066 0.260834 27.6113 0.74675C26.2968 2.09674 25.1733 3.63556 24.2842 5.3194C23.5233 5.21265 22.7469 5.15625 21.957 5.15625C12.6869 5.15625 5.14118 12.7537 5.10628 22.1064C5.12822 29.2637 8.00499 33.0866 11.0498 37.1326C13.4125 40.2721 15.8404 43.4983 16.6677 48.082H27.2463C28.0736 43.4983 30.5015 40.2721 32.8642 37.1326C33.8042 35.8833 34.7282 34.6551 35.5569 33.3439ZM26.9496 58.2656V53.2383H16.9639V58.2656C16.9639 59.6871 18.1093 60.8438 19.517 60.8438H24.3964C25.8046 60.8438 26.9496 59.6871 26.9496 58.2656ZM51.4208 17.1445C51.1795 18.0892 50.8065 18.9804 50.3257 19.8007L53.5675 23.0742L49.9572 26.7204L46.715 23.4468C45.8907 23.9393 44.9931 24.319 44.0416 24.5627V29.1328H38.9354V24.54C38.0158 24.2958 37.1477 23.9242 36.3483 23.4468L33.1065 26.7204L29.4957 23.0742L32.7375 19.8007C32.2568 18.9804 31.8838 18.0892 31.6425 17.1445H27.0633V11.9883H31.6425C31.8838 11.0436 32.2568 10.1524 32.7375 9.33211L29.4957 6.05859L33.1065 2.41246L36.3483 5.68597C37.1846 5.18646 38.0966 4.80377 39.063 4.56056V0H44.1693V4.60437C45.0734 4.84859 45.9276 5.21567 46.715 5.68597L49.9572 2.41246L53.5675 6.05859L50.3257 9.33211C50.8065 10.1524 51.1795 11.0436 51.4208 11.9883H56V17.1445H51.4208ZM41.5319 19.7227C44.3473 19.7227 46.6382 17.4094 46.6382 14.5664C46.6382 11.7234 44.3473 9.41016 41.5319 9.41016C40.4353 9.41016 39.4196 9.76213 38.5868 10.3578L37.3641 11.5925C36.7737 12.4334 36.4256 13.4591 36.4256 14.5664C36.4256 17.4094 38.716 19.7227 41.5319 19.7227Z" fill="#2D135A"/>
</svg>
