<svg width="73" height="54" viewBox="0 0 73 54" fill="none" xmlns="http://www.w3.org/2000/svg">
<path d="M37.6401 38.1918C39.2787 38.1918 40.6101 36.8541 40.6101 35.2138C40.6101 33.577 39.2787 32.2487 37.6401 32.2487L24.1836 22.3513L34.6699 35.4049C34.7672 36.9588 36.0618 38.1918 37.6401 38.1918Z" fill="#2D135A"/>
<path d="M51.1973 46.9609H21.5356V53.9999H51.1973V46.9609Z" fill="#2D135A"/>
<path d="M62.0811 10.6514C55.2122 3.78272 46.0798 0 36.3662 0C26.6525 0 17.52 3.78272 10.6513 10.6514C3.78255 17.5201 0 26.6525 0 36.3663C0 42.6383 1.58013 48.666 4.54693 54H11.3439L16.3153 51.1295L14.1198 47.3266L7.72737 51.0176C5.46899 46.6206 4.19322 41.6397 4.19322 36.3663C4.19322 35.433 4.23561 34.5094 4.31378 33.596L11.9358 34.9399L12.6984 30.6154L4.9866 29.2557C6.36461 23.1714 9.47163 17.7363 13.7622 13.4955L18.9872 19.7226L22.3511 16.9001L17.0864 10.626C21.914 7.00097 27.7904 4.7019 34.1708 4.27003V12.5983H38.5617V4.27003C44.9421 4.70224 50.8185 7.00114 55.6463 10.6262L50.3814 16.9001L53.7451 19.7226L58.9703 13.4953C63.2607 17.7363 66.3677 23.1714 67.7457 29.2556L60.0341 30.6156L60.7968 34.9397L68.4184 33.5956C68.4965 34.5092 68.5389 35.4327 68.5389 36.3659C68.5389 41.6397 67.2637 46.6207 65.005 51.0174L58.6124 47.3268L56.4171 51.1295L61.3882 53.9997H68.1856C71.1525 48.6656 72.7325 42.6379 72.7325 36.3659C72.7327 26.6523 68.9496 17.5198 62.0811 10.6514Z" fill="#2D135A"/>
</svg>
