<svg width="48" height="48" viewBox="0 0 48 48" fill="none" xmlns="http://www.w3.org/2000/svg">
<path d="M7.00702 30.7572C6.73529 31.2992 6.84113 31.9544 7.26923 32.3828L7.6131 32.7267C8.60663 31.5493 9.76459 30.2716 11.169 28.8676C11.2683 28.7683 11.3704 28.7203 11.47 28.6288L9.25776 26.4161C7.97162 28.7423 7.22162 30.3317 7.00702 30.7572Z" fill="white"/>
<path d="M19.1237 36.8225C17.7159 38.2302 16.4415 39.3904 15.2708 40.3846L15.7366 40.8505C16.1687 41.2826 16.8301 41.3866 17.3739 41.1068C18.1023 40.7315 19.2478 40.1924 21.6795 38.8381L19.3628 36.5215C19.2712 36.6215 19.2233 36.7233 19.1237 36.8225Z" fill="white"/>
<path d="M18.3741 29.6191C17.3578 28.6029 14.4999 29.514 13.1574 30.8561C8.66617 35.3474 6.63773 38.5316 5.72696 40.4117C5.46585 40.9504 5.57462 41.5953 5.99796 42.0186C6.42203 42.4431 7.06803 42.5507 7.60709 42.2896C9.4451 41.3972 12.5905 39.3783 17.1352 34.8339C18.6114 33.357 19.3398 30.5852 18.3752 29.6202L18.3741 29.6191Z" fill="white"/>
<path d="M4.38934 18.7228L0.411913 22.7002C-0.0377943 23.1499 -0.13008 23.8461 0.188524 24.3976C0.499438 24.9418 1.15056 25.219 1.77019 25.0531C3.91985 24.4767 5.81133 24.2332 7.08502 24.5599C8.89703 21.3383 10.8442 18.3727 12.9063 15.6789C11.7136 14.9142 7.77203 15.3401 4.38934 18.7228Z" fill="white"/>
<path d="M23.8022 47.849C24.3438 48.1229 24.9997 48.0171 25.4285 47.5879L29.4063 43.6105C32.4858 40.5303 33.0278 36.5562 32.3291 35.296C29.3247 37.5603 26.2811 39.4723 23.4415 41.073C23.6374 42.1793 23.507 43.2527 23.0438 46.3875C22.9533 46.9943 23.2668 47.5813 23.8022 47.849Z" fill="white"/>
<path d="M27.9186 14.1062C26.2739 15.7512 26.2739 18.4271 27.9186 20.0722C29.5636 21.7172 32.2398 21.7172 33.8849 20.0722C35.5299 18.4271 35.5299 15.7512 33.8849 14.1062C32.2398 12.4612 29.5636 12.4612 27.9186 14.1062Z" fill="white"/>
<path d="M47.9173 1.37171C47.8667 0.676271 47.313 0.126587 46.6198 0.0745854C43.166 -0.185425 39.7258 0.239381 36.3538 1.27063C36.6075 3.58729 37.8058 6.09437 39.8514 8.14003C41.9216 10.2099 44.4968 11.4077 46.8549 11.6319C47.7631 8.44911 48.1937 5.04041 47.9173 1.37171Z" fill="white"/>
<path d="M37.8631 10.1288C35.523 7.7887 34.094 4.98206 33.6355 2.24939C25.1911 5.71265 17.1073 13.2756 10.7195 23.9002L13.8931 27.0738C16.0614 26.1934 18.6937 25.9608 20.3633 27.63C22.035 29.3022 21.7981 31.9334 20.9181 34.0988L24.1961 37.3768C32.3706 32.4501 41.8877 24.6883 45.9347 14.3615C43.1354 13.9385 40.2412 12.507 37.8631 10.1288ZM35.8738 22.0611C33.1327 24.8022 28.6719 24.8022 25.9304 22.0611C23.189 19.3196 23.189 14.8584 25.9304 12.1173C28.6719 9.37623 33.1327 9.37623 35.8738 12.1173C38.6153 14.8588 38.6153 19.3196 35.8738 22.0611Z" fill="white"/>
</svg>
