<svg width="26" height="26" viewBox="0 0 26 26" fill="none" xmlns="http://www.w3.org/2000/svg">
<path d="M13 7.22222C9.80778 7.22222 7.22222 9.80778 7.22222 13C7.22222 16.1922 9.80778 18.7778 13 18.7778C16.1922 18.7778 18.7778 16.1922 18.7778 13C18.7778 9.80778 16.1922 7.22222 13 7.22222ZM2.88889 17.3333H0V23.1111C0 24.7 1.3 26 2.88889 26H8.66667V23.1111H2.88889V17.3333ZM2.88889 2.88889H8.66667V0H2.88889C1.3 0 0 1.3 0 2.88889V8.66667H2.88889V2.88889ZM23.1111 0H17.3333V2.88889H23.1111V8.66667H26V2.88889C26 1.3 24.7 0 23.1111 0ZM23.1111 23.1111H17.3333V26H23.1111C24.7 26 26 24.7 26 23.1111V17.3333H23.1111V23.1111Z" fill="#450B19"/>
</svg>
