<svg width="28" height="28" viewBox="0 0 28 28" fill="none" xmlns="http://www.w3.org/2000/svg">
<path d="M13.898 1.1C20.969 1.1 26.702 6.832 26.702 13.904C26.702 20.976 20.97 26.71 13.898 26.71C6.826 26.71 1.093 20.977 1.093 13.905C1.1 6.836 6.829 1.107 13.898 1.1ZM13.898 0C6.222 0 0 6.222 0 13.898C0 21.573 6.222 27.795 13.898 27.795C21.573 27.795 27.795 21.573 27.795 13.898C27.795 10.2122 26.3309 6.67734 23.7247 4.07098C21.1186 1.46463 17.5838 0.000265204 13.898 0V0Z" fill="white"/>
<path d="M4.56912 13.8839L3.59912 12.9139C4.94932 11.5588 6.55375 10.4836 8.32041 9.74998C10.0871 9.01633 11.9812 8.63867 13.8941 8.63867C15.8071 8.63867 17.7012 9.01633 19.4678 9.74998C21.2345 10.4836 22.8389 11.5588 24.1891 12.9139L23.2191 13.8839C21.9963 12.655 20.5426 11.6798 18.9418 11.0144C17.3409 10.349 15.6243 10.0064 13.8906 10.0064C12.157 10.0064 10.4404 10.349 8.83948 11.0144C7.2386 11.6798 5.78498 12.655 4.56212 13.8839H4.56912V13.8839Z" fill="white"/>
<path d="M20.5502 16.4791C19.6788 15.6029 18.6429 14.9077 17.5019 14.4332C16.3609 13.9588 15.1374 13.7146 13.9017 13.7146C12.666 13.7146 11.4425 13.9588 10.3015 14.4332C9.16055 14.9077 8.12459 15.6029 7.2532 16.4791L6.2832 15.4821C7.28193 14.4797 8.46871 13.6845 9.77546 13.1418C11.0822 12.5992 12.4833 12.3198 13.8982 12.3198C15.3132 12.3198 16.7142 12.5992 18.0209 13.1418C19.3277 13.6845 20.5145 14.4797 21.5132 15.4821L20.5492 16.4791H20.5502Z" fill="white"/>
<path d="M9.99114 19.1011L8.99414 18.1591C9.62376 17.4902 10.3836 16.9571 11.2268 16.5928C12.0701 16.2285 12.979 16.0405 13.8976 16.0405C14.8163 16.0405 15.7252 16.2285 16.5684 16.5928C17.4117 16.9571 18.1715 17.4902 18.8011 18.1591L17.8041 19.1011C17.3028 18.5666 16.6971 18.1405 16.0246 17.8493C15.3521 17.5581 14.627 17.4078 13.8941 17.4078C13.1613 17.4078 12.4362 17.5581 11.7637 17.8493C11.0912 18.1405 10.4855 18.5666 9.98414 19.1011H9.99114V19.1011Z" fill="white"/>
</svg>
