<svg width="25" height="27" viewBox="0 0 25 27" fill="none" xmlns="http://www.w3.org/2000/svg">
<path fill-rule="evenodd" clip-rule="evenodd" d="M12.4719 16.66L9.66895 15.078V11.914L12.4719 10.332L15.2739 11.914V15.078L12.4719 16.659" fill="white"/>
<path fill-rule="evenodd" clip-rule="evenodd" d="M15.2599 18.251C14.7599 18.534 14.2539 18.797 13.7479 19.041C14.3119 19.242 14.8729 19.417 15.4229 19.562C16.18 19.1551 16.9175 18.7126 17.6329 18.236C17.4428 19.1579 17.1824 20.0639 16.8539 20.946C14.6069 20.567 12.0359 19.656 9.53886 18.246C9.02831 17.9579 8.52737 17.6531 8.03686 17.332C8.13386 17.906 8.25286 18.464 8.39186 19.001C9.15993 19.4565 9.94915 19.8753 10.7569 20.256C9.79686 20.57 8.85486 20.806 7.94786 20.956C7.15686 18.864 6.67686 16.229 6.67686 13.405C6.67686 12.827 6.69686 12.257 6.73586 11.698C6.27586 12.072 5.83986 12.456 5.43386 12.846C5.41602 13.708 5.43971 14.5703 5.50486 15.43C4.78001 14.8085 4.10433 14.1318 3.48386 13.406C4.97986 11.64 7.08186 9.95 9.53886 8.563C10.0439 8.277 10.5519 8.013 11.0589 7.769C10.507 7.57252 9.94715 7.39903 9.38086 7.249C8.62116 7.65889 7.88102 8.10404 7.16286 8.583C7.36786 7.601 7.63286 6.684 7.94786 5.853C10.2599 6.236 12.8069 7.173 15.2609 8.558C15.7789 8.85 16.2779 9.156 16.7589 9.472C16.6641 8.90985 16.5453 8.352 16.4029 7.8C15.6429 7.3499 14.862 6.9361 14.0629 6.56C14.9749 6.25988 15.9077 6.02726 16.8539 5.864C17.6429 7.955 18.1209 10.586 18.1209 13.404C18.1209 13.982 18.1009 14.552 18.0609 15.111C18.5111 14.7468 18.9459 14.3638 19.3639 13.963C19.3819 13.1027 19.3586 12.242 19.2939 11.384C20.0559 12.045 20.7339 12.725 21.3119 13.404C19.8519 15.119 17.7599 16.841 15.2609 18.251H15.2599ZM19.0979 9.62C18.9075 8.28593 18.5859 6.97391 18.1379 5.703C18.4609 5.678 18.7749 5.663 19.0779 5.663C21.0349 5.663 22.5369 6.203 23.1939 7.315C23.8289 8.391 23.5939 9.868 22.6919 11.463C22.9969 11.797 23.2819 12.133 23.5459 12.469C24.8619 10.332 25.1989 8.269 24.2759 6.705C22.6629 3.976 17.7929 3.738 12.4009 5.845C11.12 5.33915 9.79406 4.95578 8.44086 4.7C9.47686 2.56 10.8809 1.22 12.3989 1.22C13.6749 1.22 14.8689 2.166 15.8329 3.737C16.2819 3.647 16.7219 3.574 17.1529 3.52C15.9149 1.325 14.2519 0 12.3979 0C9.17386 0 6.52586 4.008 5.69786 9.632C4.61499 10.4599 3.61437 11.3902 2.70986 12.41L2.65786 12.337C1.27786 10.346 0.894863 8.514 1.60586 7.31C2.21486 6.28 3.63286 5.7 5.56586 5.662C5.70986 5.239 5.86586 4.832 6.03186 4.442C3.36986 4.38 1.42686 5.171 0.524863 6.7C-0.449137 8.349 -0.0591367 10.593 1.62486 13.02C2.62686 14.466 4.02486 15.885 5.69786 17.176C5.90886 18.606 6.23786 19.932 6.66286 21.115L6.58286 21.121C4.13186 21.294 2.31686 20.703 1.60586 19.499C1.00086 18.474 1.18886 16.994 2.10986 15.349C1.81364 15.0259 1.52977 14.6916 1.25886 14.347C-0.110137 16.559 -0.374137 18.587 0.524863 20.109C1.39486 21.583 3.23186 22.372 5.74886 22.372C6.04886 22.372 6.35686 22.361 6.67386 22.339C8.45886 22.213 10.4169 21.737 12.3999 20.964C13.7669 21.498 15.0999 21.883 16.3559 22.113C15.3189 24.252 13.9159 25.589 12.3989 25.589C11.1229 25.589 9.92886 24.644 8.96486 23.073C8.51686 23.163 8.07586 23.237 7.64586 23.291C8.88186 25.485 10.5459 26.809 12.3989 26.809C15.6219 26.809 18.2689 22.806 19.0989 17.189C20.1849 16.3619 21.1882 15.4316 22.0949 14.411C23.4689 16.356 23.9519 18.21 23.1939 19.494C22.5539 20.577 21.1139 21.116 19.2319 21.144C19.0879 21.569 18.9309 21.977 18.7629 22.369L19.0219 22.372C21.4689 22.372 23.3769 21.624 24.2749 20.104C25.8869 17.375 23.6619 13.132 19.0979 9.62V9.62Z" fill="white"/>
</svg>
