<svg width="25" height="25" viewBox="0 0 25 25" fill="none" xmlns="http://www.w3.org/2000/svg">
<path d="M0 5C0 3.11875 0.975 1.15 2.5 0C2.5 1.05625 3.3625 2.5 5 2.5C5.99456 2.5 6.94839 2.89509 7.65165 3.59835C8.35491 4.30161 8.75 5.25544 8.75 6.25C8.75 6.7325 8.65 7.19 8.485 7.6125C9.41 8.355 10.33 9.1 11.2225 9.875L8.625 12.475C7.85535 11.5756 7.10231 10.6621 6.36625 9.735C5.94125 9.9 5.48375 10 5 10C2.2375 10 0 7.7625 0 5ZM15.19 13.56L16.865 11.885C17.642 12.2835 18.5017 12.4941 19.375 12.5C20.8668 12.5 22.2976 11.9074 23.3525 10.8525C24.4074 9.79758 25 8.36684 25 6.875C25 5.96875 24.765 5.125 24.3838 4.36625L20 8.75L17.5 6.25L21.8838 1.86625C21.1074 1.4668 20.248 1.25569 19.375 1.25C17.8832 1.25 16.4524 1.84263 15.3975 2.89752C14.3426 3.95242 13.75 5.38316 13.75 6.875C13.75 7.78125 13.985 8.625 14.3663 9.38375L1.25 22.5L3.75 25L12.31 16.44C14.6645 18.8555 17.1593 21.1303 19.7812 23.2525L21.5625 24.6875L23.4375 22.8125L22 21.0312C19.8794 18.4087 17.6054 15.9139 15.19 13.56Z" fill="black"/>
</svg>
