<svg width="28" height="28" viewBox="0 0 28 28" fill="none" xmlns="http://www.w3.org/2000/svg">
<path d="M21.8085 12.6327C21.4273 11.0158 19.9681 9.81958 18.2723 9.81958C17.9306 9.81958 17.6019 9.87216 17.2864 9.95104C16.2348 8.34728 14.447 7.37451 12.5146 7.37451C10.2273 7.37451 8.15028 8.75479 7.26953 10.8449C5.49488 11.2919 4.23291 12.8956 4.23291 14.7623C4.23291 16.9839 6.04699 18.798 8.26859 18.798H9.91178C10.0301 19.6787 10.4245 20.5201 11.0949 21.1905C11.9099 22.0055 12.9747 22.413 14.0395 22.413C15.1043 22.413 16.1822 22.0055 16.9841 21.1905C17.2076 20.967 17.2076 20.5989 16.9841 20.3623C16.7606 20.1388 16.3925 20.1388 16.1559 20.3623C14.986 21.5323 13.0799 21.5323 11.8968 20.3623C10.7268 19.1924 10.7268 17.2862 11.8968 16.1031C13.0667 14.9332 14.9728 14.9332 16.1559 16.1031C16.3794 16.3266 16.7475 16.3266 16.9841 16.1031C17.2076 15.8797 17.2076 15.5116 16.9841 15.275C15.354 13.6449 12.7118 13.6449 11.0817 15.275C10.4113 15.9454 10.0169 16.7867 9.89864 17.6675H8.25544C6.65169 17.6675 5.33714 16.3529 5.33714 14.7492C5.33714 13.3163 6.36249 12.1069 7.76906 11.8703L8.08455 11.8177L8.18972 11.5154C8.84699 9.70127 10.5822 8.49188 12.5146 8.49188C14.1972 8.49188 15.7484 9.41207 16.5503 10.8975L16.8 11.3445L17.2733 11.1341C17.5888 10.9895 17.9306 10.9238 18.2855 10.9238C19.5475 10.9238 20.6123 11.8571 20.7831 13.106L20.8357 13.4609L21.1775 13.5661C22.0714 13.829 22.6892 14.6571 22.6892 15.5773C22.6892 16.7341 21.7559 17.6675 20.5991 17.6675H15.2226C15.0123 17.2074 14.5522 16.8919 14.0132 16.8919C13.277 16.8919 12.6855 17.4834 12.6855 18.2196C12.6855 18.9557 13.277 19.5473 14.0132 19.5473C14.5522 19.5473 14.9991 19.2318 15.2226 18.7717H20.5991C22.3738 18.7717 23.8066 17.3257 23.8066 15.5642C23.7803 14.3022 22.9916 13.1323 21.8085 12.6327Z" fill="white"/>
<path d="M14 0C6.28357 0 0 6.28357 0 14C0 21.7164 6.28357 28 14 28C21.7164 28 28 21.7164 28 14C28 6.28357 21.7164 0 14 0ZM14 26.8826C6.90141 26.8826 1.11737 21.0986 1.11737 14C1.11737 6.90141 6.90141 1.11737 14 1.11737C21.1117 1.11737 26.8826 6.90141 26.8826 14C26.8826 21.1117 21.1117 26.8826 14 26.8826Z" fill="white"/>
</svg>
