<svg width="45" height="45" viewBox="0 0 45 45" fill="none" xmlns="http://www.w3.org/2000/svg">
<mask id="mask0" mask-type="alpha" maskUnits="userSpaceOnUse" x="0" y="0" width="45" height="45">
<path d="M0 0.225098H44.55V44.7751H0V0.225098Z" fill="white"/>
</mask>
<g mask="url(#mask0)">
<path fill-rule="evenodd" clip-rule="evenodd" d="M22.274 42.9931C19.5819 43.0004 16.915 42.4737 14.4278 41.4435C11.9406 40.4132 9.68243 38.8999 7.784 36.9911C5.87494 35.0924 4.36147 32.8339 3.33122 30.3464C2.30097 27.8588 1.7744 25.1916 1.782 22.4991C1.782 17.0261 3.913 11.8791 7.784 8.0091C9.68261 6.10025 11.941 4.58691 14.4283 3.55667C16.9157 2.52642 19.5827 1.99974 22.275 2.0071C33.575 2.0071 42.767 11.2001 42.768 22.4991C42.768 33.7991 33.575 42.9931 22.274 42.9931V42.9931ZM22.275 0.225098C9.973 0.225098 0 10.1981 0 22.4991C0 34.8031 9.972 44.7761 22.275 44.7751H22.277C34.577 44.7751 44.549 34.8011 44.55 22.4991C44.55 10.1981 34.578 0.225098 22.275 0.225098Z" fill="white"/>
</g>
<path fill-rule="evenodd" clip-rule="evenodd" d="M32.6609 31.5501C32.6609 32.2861 32.0609 32.8861 31.3249 32.8861H25.9219V34.6681H31.3249C33.0439 34.6681 34.4429 33.2691 34.4429 31.5501V26.1471H32.6609V31.5501V31.5501ZM32.6609 13.4501V18.8531H34.4429V13.4511C34.4429 11.7311 33.0439 10.3311 31.3249 10.3311H25.9219V12.1141H31.3249C32.0619 12.1141 32.6609 12.7141 32.6609 13.4511V13.4501ZM11.8889 13.4501C11.8889 12.7131 12.4889 12.1141 13.2249 12.1141H18.6279V10.3321H13.2249C11.5049 10.3321 10.1069 11.7321 10.1069 13.4511V18.8531H11.8889V13.4511V13.4501ZM11.8889 31.5501V26.1471H10.1069V31.5501C10.108 32.3767 10.4368 33.1691 11.0213 33.7536C11.6059 34.3382 12.3983 34.667 13.2249 34.6681H18.6279V32.8861H13.2249C12.4889 32.8861 11.8889 32.2861 11.8889 31.5501" fill="white"/>
<path fill-rule="evenodd" clip-rule="evenodd" d="M27.0501 26.1473C26.8901 26.3573 26.7201 26.5613 26.5281 26.7523C26.3381 26.9423 26.1331 27.1143 25.9221 27.2753C24.9189 28.0458 23.6966 28.4769 22.4321 28.5063C22.3803 28.4967 22.3277 28.4917 22.2751 28.4913C22.2227 28.4918 22.1705 28.4968 22.1191 28.5063C20.8543 28.4776 19.6315 28.0467 18.6281 27.2763C18.4148 27.1155 18.2124 26.9408 18.0221 26.7533C17.8349 26.5631 17.6605 26.3606 17.5001 26.1473C16.6947 25.1023 16.2586 23.8197 16.2601 22.5003C16.2601 21.1633 16.7001 19.8963 17.5001 18.8533C17.6611 18.6433 17.8321 18.4383 18.0221 18.2473C18.2131 18.0573 18.4181 17.8873 18.6281 17.7253C19.6733 16.9204 20.9558 16.4847 22.2751 16.4863C23.6121 16.4863 24.8791 16.9253 25.9221 17.7243C26.1321 17.8863 26.3371 18.0573 26.5281 18.2473C26.7201 18.4393 26.8901 18.6433 27.0501 18.8533C27.8483 19.9016 28.2805 21.1828 28.2805 22.5003C28.2805 23.8179 27.8483 25.0991 27.0501 26.1473V26.1473ZM39.3701 21.7013H30.0281C29.8486 19.9349 29.07 18.2831 27.8216 17.0205C26.5732 15.758 24.9303 14.9607 23.1661 14.7613V5.39832C23.1661 5.16202 23.0722 4.93539 22.9051 4.76829C22.738 4.6012 22.5114 4.50732 22.2751 4.50732C22.0387 4.50732 21.8121 4.6012 21.645 4.76829C21.4779 4.93539 21.3841 5.16202 21.3841 5.39832V14.7593C20.4205 14.8678 19.4857 15.1558 18.6281 15.6083C17.4958 16.2082 16.5288 17.0779 15.8126 18.1404C15.0964 19.203 14.6532 20.4257 14.5221 21.7003H5.22205C4.98575 21.7003 4.75912 21.7942 4.59202 21.9613C4.42493 22.1284 4.33105 22.355 4.33105 22.5913C4.33105 22.8276 4.42493 23.0543 4.59202 23.2214C4.75912 23.3885 4.98575 23.4823 5.22205 23.4823H14.5491C14.6651 24.4023 14.9391 25.3073 15.3831 26.1463C16.1149 27.5289 17.2455 28.6595 18.6281 29.3913C19.4857 29.8437 20.4205 30.1313 21.3841 30.2393V39.3713C21.3841 39.6076 21.4779 39.8343 21.645 40.0014C21.8121 40.1685 22.0387 40.2623 22.2751 40.2623C22.5114 40.2623 22.738 40.1685 22.9051 40.0014C23.0722 39.8343 23.1661 39.6076 23.1661 39.3713V30.2403C24.1296 30.132 25.0643 29.8444 25.9221 29.3923C27.3049 28.6609 28.4357 27.5302 29.1671 26.1473C29.6121 25.3073 29.8851 24.4043 30.0021 23.4833H39.3701C39.6064 23.4833 39.833 23.3895 40.0001 23.2224C40.1672 23.0553 40.2611 22.8286 40.2611 22.5923C40.2611 22.356 40.1672 22.1294 40.0001 21.9623C39.833 21.7952 39.6064 21.7013 39.3701 21.7013" fill="white"/>
<path fill-rule="evenodd" clip-rule="evenodd" d="M20.2379 20.4633C19.9646 20.7295 19.7469 21.0474 19.5974 21.3984C19.448 21.7494 19.3697 22.1266 19.3672 22.5081C19.3648 22.8896 19.4381 23.2678 19.5829 23.6208C19.7277 23.9737 19.9412 24.2944 20.211 24.5642C20.4808 24.8339 20.8014 25.0474 21.1544 25.1923C21.5073 25.3371 21.8855 25.4104 22.267 25.4079C22.6486 25.4054 23.0258 25.3272 23.3768 25.1777C23.7278 25.0283 24.0456 24.8106 24.3119 24.5373C24.8405 23.9947 25.1341 23.2657 25.1291 22.5081C25.1242 21.7506 24.821 21.0255 24.2854 20.4898C23.7497 19.9542 23.0246 19.651 22.267 19.6461C21.5095 19.6411 20.7805 19.9347 20.2379 20.4633Z" fill="white"/>
</svg>
