<svg width="31" height="26" viewBox="0 0 31 26" fill="none" xmlns="http://www.w3.org/2000/svg">
<path d="M24.6171 2.36282C24.3725 1.67176 23.9198 1.07349 23.3212 0.650347C22.7226 0.227206 22.0075 0 21.2745 0C20.5414 0 19.8264 0.227206 19.2278 0.650347C18.6292 1.07349 18.1764 1.67176 17.9319 2.36282H0V4.72665H17.9319C18.1764 5.41771 18.6292 6.01598 19.2278 6.43912C19.8264 6.86226 20.5414 7.08947 21.2745 7.08947C22.0075 7.08947 22.7226 6.86226 23.3212 6.43912C23.9198 6.01598 24.3725 5.41771 24.6171 4.72665H30.7298V2.36282H24.6171Z" fill="#450B19"/>
<path d="M9.45532 9.45435C8.72237 9.45539 8.00768 9.68312 7.40925 10.1063C6.81082 10.5295 6.35794 11.1275 6.11271 11.8182H0V14.182H6.11271C6.35728 14.8731 6.81001 15.4713 7.40862 15.8945C8.00722 16.3176 8.72226 16.5448 9.45532 16.5448C10.1884 16.5448 10.9034 16.3176 11.502 15.8945C12.1006 15.4713 12.5534 14.8731 12.7979 14.182H30.7298V11.8182H12.7979C12.5527 11.1275 12.0998 10.5295 11.5014 10.1063C10.9029 9.68312 10.1883 9.45539 9.45532 9.45435Z" fill="#450B19"/>
<path d="M21.2745 18.9094C20.5415 18.9105 19.8268 19.1382 19.2284 19.5614C18.63 19.9846 18.1771 20.5825 17.9319 21.2733H0V23.6371H17.9319C18.1764 24.3281 18.6292 24.9264 19.2278 25.3496C19.8264 25.7727 20.5414 25.9999 21.2745 25.9999C22.0075 25.9999 22.7226 25.7727 23.3212 25.3496C23.9198 24.9264 24.3725 24.3281 24.6171 23.6371H30.7298V21.2733H24.6171C24.3718 20.5825 23.919 19.9846 23.3205 19.5614C22.7221 19.1382 22.0074 18.9105 21.2745 18.9094Z" fill="#450B19"/>
</svg>
