<svg width="28" height="28" viewBox="0 0 28 28" fill="none" xmlns="http://www.w3.org/2000/svg">
<path d="M14 0C6.268 0 0 6.268 0 14C0 21.732 6.268 28 14 28C21.732 28 28 21.732 28 14C28 6.268 21.732 0 14 0ZM10.224 18.6V9.31H26.016C27.1883 12.2957 27.1883 15.6143 26.016 18.6H10.224ZM25.508 8.212H18.84V2.032C21.7365 3.21673 24.1067 5.40931 25.513 8.205L25.507 8.212H25.508ZM14 1.105C15.266 1.105 16.524 1.293 17.735 1.662V8.212H2.492C3.56366 6.07723 5.20697 4.2819 7.23883 3.02602C9.2707 1.77014 11.6113 1.10303 14 1.099V1.105ZM1.998 9.345H9.125V18.635H1.964C0.791747 15.6493 0.791747 12.3307 1.964 9.345H1.998V9.345ZM2.451 19.733H17.742V26.373C14.8131 27.2677 11.6611 27.0877 8.853 25.8655C6.04494 24.6434 3.76522 22.4592 2.424 19.706L2.451 19.733V19.733ZM18.847 25.981V19.733H25.563C24.1479 22.5431 21.7586 24.7423 18.841 25.92L18.847 25.981Z" fill="white"/>
</svg>
