<svg width="31" height="31" viewBox="0 0 31 31" fill="none" xmlns="http://www.w3.org/2000/svg">
<path d="M17.2571 15.4978L16.6723 6.28663C16.6723 5.97645 16.5491 5.67897 16.3297 5.45965C16.1104 5.24032 15.8129 5.1171 15.5027 5.1171C15.1925 5.1171 14.8949 5.24032 14.6756 5.45965C14.4562 5.67897 14.333 5.97645 14.333 6.28663L13.7891 14.8745L10.2755 17.1667C10.0069 17.322 9.81093 17.5776 9.73076 17.8773C9.65059 18.177 9.69277 18.4963 9.84803 18.7649C10.0033 19.0335 10.2589 19.2295 10.5586 19.3096C10.8584 19.3898 11.1777 19.3476 11.4463 19.1924L15.3132 17.2299C15.3763 17.2393 15.4395 17.251 15.5062 17.251C16.477 17.251 17.2606 16.4674 17.2606 15.4967L17.2571 15.4978ZM19.5262 22.4624C19.3258 22.5775 19.164 22.7496 19.0613 22.9567C18.9587 23.1638 18.9198 23.3968 18.9496 23.626C18.9794 23.8552 19.0765 24.0705 19.2287 24.2445C19.3809 24.4185 19.5813 24.5435 19.8045 24.6036C20.0278 24.6637 20.2638 24.6562 20.4828 24.5822C20.7018 24.5081 20.8939 24.3707 21.0348 24.1874C21.1757 24.0041 21.259 23.7832 21.2743 23.5525C21.2895 23.3218 21.236 23.0918 21.1204 22.8916C20.9655 22.6231 20.7104 22.4271 20.411 22.3466C20.1116 22.2661 19.7926 22.3078 19.5239 22.4624H19.5262ZM20.6935 6.50767C20.4244 6.35304 20.1049 6.31164 19.8053 6.39258C19.5056 6.47351 19.2504 6.67014 19.0958 6.93922C18.9412 7.2083 18.8998 7.52779 18.9807 7.82739C19.0616 8.12699 19.2583 8.38218 19.5274 8.5368C19.7967 8.69142 20.1163 8.73276 20.4161 8.65172C20.7158 8.57068 20.9711 8.37389 21.1257 8.10466C21.2803 7.83542 21.3217 7.51579 21.2406 7.21608C21.1596 6.91637 20.9628 6.66112 20.6935 6.5065V6.50767ZM22.8983 21.1174C23.0315 21.1941 23.1784 21.2437 23.3308 21.2636C23.4832 21.2834 23.6379 21.2731 23.7863 21.2331C23.9347 21.1931 24.0737 21.1243 24.1955 21.0306C24.3173 20.9369 24.4194 20.8202 24.496 20.687C24.5727 20.5539 24.6223 20.4069 24.6422 20.2546C24.662 20.1022 24.6517 19.9475 24.6117 19.7991C24.5717 19.6508 24.5029 19.5117 24.4092 19.39C24.3155 19.2682 24.1988 19.1661 24.0656 19.0895C23.7967 18.9347 23.4772 18.8931 23.1776 18.9738C22.878 19.0545 22.6227 19.2509 22.4679 19.5198C22.3131 19.7888 22.2715 20.1082 22.3522 20.4078C22.4329 20.7074 22.6294 20.9626 22.8983 21.1174ZM24.0679 11.905C24.201 11.8282 24.3177 11.7258 24.4112 11.6039C24.5048 11.482 24.5734 11.3428 24.6131 11.1943C24.6529 11.0459 24.663 10.891 24.6429 10.7387C24.6228 10.5863 24.5729 10.4394 24.496 10.3063C24.4192 10.1732 24.3168 10.0566 24.1949 9.96304C24.0729 9.86951 23.9337 9.80091 23.7852 9.76116C23.6368 9.72141 23.4819 9.7113 23.3295 9.73139C23.1772 9.75148 23.0302 9.80138 22.8971 9.87825C22.6283 10.0333 22.4322 10.2888 22.3518 10.5886C22.2714 10.8883 22.3134 11.2076 22.4685 11.4764C22.6236 11.7452 22.8791 11.9413 23.1788 12.0217C23.4786 12.1021 23.798 12.0601 24.0668 11.905H24.0679ZM25.8867 15.4978C25.8867 14.8546 25.3627 14.3283 24.7171 14.3283C24.4858 14.3283 24.2596 14.3969 24.0673 14.5254C23.8749 14.6539 23.725 14.8366 23.6365 15.0503C23.548 15.264 23.5248 15.4991 23.5699 15.726C23.6151 15.9529 23.7265 16.1613 23.89 16.3248C24.0536 16.4884 24.262 16.5998 24.4889 16.6449C24.7158 16.69 24.951 16.6669 25.1647 16.5783C25.3784 16.4898 25.5611 16.3399 25.6896 16.1476C25.8181 15.9553 25.8867 15.7291 25.8867 15.4978ZM8.53862 11.477C8.62324 11.3439 8.68007 11.195 8.70567 11.0394C8.73127 10.8837 8.72513 10.7245 8.6876 10.5713C8.65007 10.4181 8.58193 10.2741 8.48729 10.1479C8.39264 10.0217 8.27345 9.91597 8.13688 9.83703C8.0003 9.75809 7.84917 9.7076 7.69258 9.68858C7.53598 9.66956 7.37715 9.68241 7.22565 9.72635C7.07415 9.7703 6.93311 9.84444 6.811 9.9443C6.6889 10.0442 6.58826 10.1677 6.51514 10.3075C6.37857 10.5743 6.3497 10.8834 6.43449 11.171C6.51928 11.4585 6.71126 11.7025 6.97079 11.8526C7.23031 12.0027 7.53756 12.0474 7.8291 11.9775C8.12064 11.9076 8.37421 11.7284 8.53745 11.477H8.53862ZM5.12093 15.4978C5.12124 15.8083 5.24489 16.106 5.46468 16.3253C5.68446 16.5446 5.98239 16.6677 6.29291 16.6674C6.60342 16.6671 6.9011 16.5434 7.12045 16.3236C7.3398 16.1039 7.46286 15.806 7.46255 15.4955C7.46224 15.185 7.33859 14.8874 7.1188 14.668C6.89901 14.4487 6.60109 14.3257 6.29057 14.326C5.98005 14.3263 5.68237 14.4499 5.46302 14.6697C5.24367 14.8894 5.12062 15.1873 5.12093 15.4978ZM8.10936 21.1174C8.41978 21.1171 8.71736 20.9935 8.9367 20.7739C9.15603 20.5543 9.27915 20.2565 9.279 19.9461C9.27884 19.6357 9.15542 19.3381 8.93587 19.1187C8.71632 18.8993 8.41861 18.776 8.10819 18.776C7.79777 18.776 7.50006 18.8993 7.28051 19.1187C7.06095 19.3381 6.93753 19.6357 6.93738 19.9461C6.93722 20.2565 7.06035 20.5543 7.27968 20.7739C7.49901 20.9935 7.7966 21.1171 8.10702 21.1174H8.10936ZM11.4803 8.53329C11.6134 8.45661 11.7301 8.35443 11.8237 8.23259C11.9173 8.11076 11.9859 7.97167 12.0257 7.82328C12.0654 7.67489 12.0755 7.52011 12.0554 7.36781C12.0353 7.21552 11.9853 7.06868 11.9084 6.93572C11.7929 6.73548 11.6207 6.57396 11.4135 6.47161C11.2062 6.36925 10.9733 6.33066 10.7441 6.3607C10.5149 6.39074 10.2998 6.48807 10.126 6.64038C9.95212 6.79269 9.82735 6.99313 9.76744 7.21635C9.70754 7.43957 9.71519 7.67554 9.78944 7.89442C9.86368 8.11329 10.0012 8.30523 10.1845 8.44595C10.3679 8.58668 10.5889 8.66987 10.8195 8.685C11.0501 8.70013 11.2801 8.64652 11.4803 8.53095V8.53329ZM14.3342 24.7102C14.327 24.868 14.3518 25.0257 14.4072 25.1736C14.4626 25.3216 14.5474 25.4568 14.6565 25.5711C14.7655 25.6854 14.8967 25.7764 15.0419 25.8386C15.1871 25.9009 15.3434 25.933 15.5014 25.9332C15.6594 25.9333 15.8158 25.9015 15.9612 25.8395C16.1065 25.7776 16.2378 25.6869 16.3471 25.5728C16.4565 25.4587 16.5415 25.3237 16.5972 25.1758C16.6529 25.028 16.678 24.8704 16.6711 24.7125C16.658 24.4117 16.5293 24.1275 16.3118 23.9192C16.0944 23.7109 15.8049 23.5944 15.5038 23.5941C15.2026 23.5938 14.913 23.7097 14.6951 23.9176C14.4772 24.1255 14.348 24.4094 14.3342 24.7102ZM9.88253 22.8916C9.56088 23.453 9.75387 24.1664 10.3106 24.488C10.511 24.6038 10.7412 24.6576 10.9721 24.6425C11.203 24.6275 11.4242 24.5443 11.6079 24.4034C11.7915 24.2626 11.9292 24.0705 12.0036 23.8514C12.0779 23.6323 12.0857 23.3961 12.0257 23.1726C11.9658 22.9491 11.8409 22.7484 11.6669 22.5959C11.4928 22.4434 11.2775 22.3459 11.048 22.3159C10.8186 22.2858 10.5854 22.3244 10.3779 22.4269C10.1705 22.5294 9.99806 22.6911 9.88253 22.8916ZM30.9103 13.8453L27.0856 12.4582C27.4248 13.7517 27.5652 15.1189 27.4482 16.5282C26.8716 23.122 21.0737 27.9989 14.4745 27.4422C11.3082 27.1665 8.38049 25.646 6.33396 23.2144C4.28742 20.7829 3.28918 17.6388 3.55829 14.4722C4.13492 7.87602 9.93049 2.99674 16.5273 3.55461C19.2513 3.79348 21.8098 4.96358 23.772 6.86788L21.8573 8.47832L30.0799 11.4583L28.55 2.84587L26.4797 4.59198C23.9837 2.07749 20.635 0.385187 16.8302 0.0577189C8.30352 -0.674406 0.794423 5.64339 0.0575492 14.1716C-0.673476 22.6974 5.64493 30.2058 14.1704 30.9426C22.7006 31.6724 30.2097 25.3558 30.9454 16.8299C31.032 15.8171 31.0121 14.8207 30.9103 13.8476V13.8453Z" fill="black"/>
</svg>
