<svg width="40" height="39" viewBox="0 0 40 39" fill="none" xmlns="http://www.w3.org/2000/svg">
<path d="M30.9011 7.52625C30.8171 7.3268 30.6393 7.18232 30.4269 7.14104C30.2144 7.09975 29.9954 7.16709 29.8429 7.32058L26.58 10.6003H24.7049V8.7045L27.9698 5.41631C28.1216 5.26327 28.1875 5.0448 28.1456 4.83332C28.1037 4.62184 27.9595 4.44497 27.7608 4.36135C25.6064 3.45203 23.1187 3.89377 21.409 5.48925C19.6993 7.08472 19.0869 9.53598 19.8453 11.7481L19.4619 12.1374L16.5948 9.25209L16.6052 9.24171C16.7362 9.11018 16.8046 8.92879 16.7931 8.74347C16.7815 8.55815 16.6912 8.38666 16.5448 8.27239L12.3509 4.99588C12.0922 4.79342 11.723 4.81627 11.4912 5.04909L9.62717 6.92091C9.39737 7.15196 9.3746 7.51763 9.57397 7.7754L12.8362 11.9927C12.9512 12.1414 13.1251 12.2328 13.3128 12.2434C13.5005 12.254 13.6836 12.1826 13.8146 12.0478L16.6791 14.9273L10.0794 21.5601C9.05817 22.5914 9.05817 24.2529 10.0794 25.2843C10.5678 25.7846 11.2374 26.0668 11.9366 26.0668C12.6358 26.0668 13.3055 25.7846 13.7938 25.2843L19.458 19.5948L25.4738 25.6353C26.0878 26.2544 26.9236 26.6026 27.7955 26.6026C28.6675 26.6026 29.5033 26.2544 30.1173 25.6353C31.3947 24.3456 31.3947 22.2677 30.1173 20.9781L24.919 15.7519C26.9941 15.9356 29.0133 15.0172 30.2385 13.3324C31.4637 11.6477 31.7152 9.4437 30.9011 7.52625V7.52625ZM14.2753 10.673C14.0409 10.4437 13.6738 10.421 13.413 10.6198L10.9475 7.43542L12.0038 6.37396L15.1713 8.84983C15.1508 8.88135 15.133 8.91456 15.1181 8.9491C15.0694 9.02025 15.043 9.10426 15.0422 9.19046C15 9.61154 15.0019 9.49475 18.5399 13.0574L17.5926 14.0092L14.2753 10.673ZM12.8738 24.372C12.351 24.8896 11.5076 24.8854 10.99 24.3626C10.4724 23.8398 10.4766 22.9964 10.9994 22.4788C15.7669 17.6841 6.44669 27.0555 19.8687 13.5602C19.8771 13.5537 19.881 13.5427 19.8888 13.5356C20.0367 13.4058 19.5332 13.908 21.0567 12.3677C21.2415 12.181 21.2956 11.9013 21.1936 11.6592C20.5267 10.0892 20.7738 8.28008 21.8374 6.94652C22.9009 5.61295 24.6097 4.96948 26.2887 5.27033L23.5955 7.98042C23.4748 8.10207 23.4072 8.2665 23.4073 8.43783V11.2465C23.4073 11.6049 23.6978 11.8954 24.0561 11.8954H26.8499C27.0226 11.8953 27.1882 11.8264 27.3099 11.704L29.9973 9.00295C30.3094 10.6776 29.677 12.3885 28.3506 13.4574C27.0243 14.5264 25.2181 14.7809 23.648 14.1201C23.404 14.0164 23.1214 14.0717 22.9343 14.2596L21.7944 15.4061C20.4085 16.7978 18.9273 18.2803 18.9954 18.2122C18.3699 18.8402 21.2656 15.9323 12.8738 24.3688V24.372ZM29.1973 24.723C28.4143 25.4755 27.1768 25.4755 26.3938 24.723L20.3741 18.6774L23.1861 15.8525L29.1973 21.8955C29.9694 22.6786 29.9694 23.9367 29.1973 24.7198V24.723Z" fill="white"/>
<path d="M35.2616 0H5.4162C2.90908 0.00286038 0.877372 2.03457 0.874512 4.54169V26.6013C0.877372 29.1084 2.90908 31.1401 5.4162 31.143H11.929C11.929 32.2985 11.6753 34.9425 9.59845 36.6443C9.15659 36.9973 8.99424 37.5958 9.19715 38.1237C9.40006 38.6516 9.92149 38.9872 10.486 38.9534C13.697 38.7341 19.2164 37.4034 20.8365 31.143H35.2616C37.7687 31.1401 39.8004 29.1084 39.8033 26.6013V4.54169C39.8004 2.03457 37.7687 0.00286038 35.2616 0ZM38.5056 26.6013C38.5035 28.3921 37.0523 29.8432 35.2616 29.8454C19.4954 29.8454 20.335 29.8246 20.1442 29.8843C19.9877 29.9323 19.8562 30.04 19.7783 30.1841C19.7524 30.2301 19.7024 30.3586 19.7024 30.3586C18.4437 36.2414 13.3317 37.4579 10.4211 37.6474C13.6652 34.9872 13.2182 30.6077 13.1981 30.4228C13.1981 30.4157 13.1449 30.2399 13.1332 30.2126C13.0924 30.1422 13.0434 30.0768 12.9872 30.018C12.7283 29.7805 13.0813 29.8454 5.4162 29.8454C3.62544 29.8432 2.17428 28.3921 2.17214 26.6013V4.54169C2.17428 2.75093 3.62544 1.29977 5.4162 1.29763H35.2616C37.0523 1.29977 38.5035 2.75093 38.5056 4.54169V26.6013Z" fill="white"/>
<path d="M5.41628 2.59521H4.76746C4.40914 2.59521 4.11865 2.8857 4.11865 3.24403C4.11865 3.60236 4.40914 3.89284 4.76746 3.89284H5.41628C5.77461 3.89284 6.06509 3.60236 6.06509 3.24403C6.06509 2.8857 5.77461 2.59521 5.41628 2.59521Z" fill="white"/>
<path d="M11.9045 3.24403C11.9045 2.8857 11.614 2.59521 11.2557 2.59521H8.01161C7.65328 2.59521 7.36279 2.8857 7.36279 3.24403C7.36279 3.60236 7.65328 3.89284 8.01161 3.89284H11.2557C11.614 3.89284 11.9045 3.60236 11.9045 3.24403Z" fill="white"/>
<path d="M30.0711 27.25H29.4223C29.0639 27.25 28.7734 27.5405 28.7734 27.8988C28.7734 28.2571 29.0639 28.5476 29.4223 28.5476H30.0711C30.4294 28.5476 30.7199 28.2571 30.7199 27.8988C30.7199 27.5405 30.4294 27.25 30.0711 27.25Z" fill="white"/>
<path d="M35.9105 27.25H32.6664C32.3081 27.25 32.0176 27.5405 32.0176 27.8988C32.0176 28.2571 32.3081 28.5476 32.6664 28.5476H35.9105C36.2688 28.5476 36.5593 28.2571 36.5593 27.8988C36.5593 27.5405 36.2688 27.25 35.9105 27.25Z" fill="white"/>
</svg>
