<svg width="28" height="28" viewBox="0 0 28 28" fill="none" xmlns="http://www.w3.org/2000/svg">
<path d="M17.5 15.3127C17.5 18.2121 19.8506 20.5627 22.75 20.5627C25.6494 20.5627 28 18.2117 28 15.3127H27.2183L23.8093 6.63413C24.0235 6.47239 24.1973 6.26326 24.3171 6.02312C24.4369 5.78299 24.4995 5.51837 24.5 5.25C24.5 4.284 23.716 3.5 22.75 3.5C22.4943 3.5 22.2535 3.55787 22.0346 3.65587C21.6775 3.51687 21.3214 3.37516 20.9664 3.23073C19.628 2.68193 18.0707 2.05007 16.4491 1.68607C16.2593 1.19032 15.9236 0.763789 15.4863 0.462769C15.0491 0.161749 14.5308 0.000393345 14 0C13.4691 0.00042953 12.9508 0.161854 12.5136 0.462961C12.0763 0.764069 11.7407 1.1907 11.5509 1.68653C9.9288 2.05007 8.37153 2.68193 7.03313 3.2312C6.7284 3.35627 6.29953 3.5252 5.96493 3.65633C5.74044 3.55401 5.49671 3.50072 5.25 3.5C4.78587 3.5 4.34075 3.68437 4.01256 4.01256C3.68437 4.34075 3.5 4.78587 3.5 5.25C3.50059 5.5183 3.5632 5.78283 3.68292 6.02294C3.80265 6.26304 3.97626 6.47222 4.1902 6.63413L0.7812 15.3127H0C0 18.2121 2.3506 20.5627 5.25 20.5627C8.1494 20.5627 10.5 18.2121 10.5 15.3127H9.71833L6.30933 6.6346C6.52337 6.47264 6.69707 6.2634 6.81687 6.02321C6.93668 5.78303 6.99936 5.51841 7 5.25C7 5.2094 6.9902 5.17113 6.98787 5.131L7.4242 4.95413C8.652 4.44967 10.0739 3.8696 11.5332 3.5154C11.6652 3.88044 11.8764 4.2117 12.1517 4.48533C12.4271 4.75895 12.7596 4.96815 13.1255 5.09787V7.7728H12.5888V16.1877H12.0055V20.3079C9.11073 20.8451 7 22.5176 7 24.5H6.125V26.25H4.375V28H23.625V26.25H21.875V24.5H21C21 22.5176 18.8883 20.8451 15.995 20.3079V16.1877H15.4117V7.77233H14.875V5.0974C15.2408 4.9676 15.5732 4.75836 15.8484 4.48474C16.1237 4.21112 16.3348 3.87991 16.4668 3.51493C17.9265 3.86913 19.3475 4.4492 20.5763 4.95367C20.7256 5.01527 20.8665 5.07173 21.0121 5.131C21.0093 5.17113 21 5.2094 21 5.25C21.0006 5.5183 21.0632 5.78283 21.1829 6.02294C21.3027 6.26304 21.4763 6.47222 21.6902 6.63413L18.2812 15.3123H17.5V15.3127ZM5.25 4.375C5.36664 4.37234 5.48263 4.39302 5.59117 4.43582C5.6997 4.47862 5.79858 4.54269 5.88201 4.62425C5.96543 4.70581 6.03171 4.80322 6.07695 4.91076C6.12219 5.0183 6.14547 5.1338 6.14544 5.25047C6.14541 5.36714 6.12206 5.48263 6.07677 5.59014C6.03147 5.69766 5.96514 5.79504 5.88167 5.87655C5.7982 5.95807 5.69929 6.02208 5.59073 6.06483C5.48218 6.10757 5.36617 6.12819 5.24953 6.12547C5.02091 6.12013 4.80345 6.02554 4.64366 5.86193C4.48387 5.69833 4.39445 5.47869 4.39451 5.25001C4.39457 5.02132 4.48411 4.80173 4.64399 4.63821C4.80386 4.47469 5.02137 4.38022 5.25 4.375ZM8.81487 15.3127H1.68373L4.96067 6.97107C5.0554 6.98693 5.15107 7 5.25 7C5.34893 7 5.44413 6.98693 5.5384 6.9706L8.81487 15.3127ZM22.75 4.375C22.8666 4.37234 22.9826 4.39302 23.0912 4.43582C23.1997 4.47862 23.2986 4.54269 23.382 4.62425C23.4654 4.70581 23.5317 4.80322 23.5769 4.91076C23.6222 5.0183 23.6455 5.1338 23.6454 5.25047C23.6454 5.36714 23.6221 5.48263 23.5768 5.59014C23.5315 5.69766 23.4651 5.79504 23.3817 5.87655C23.2982 5.95807 23.1993 6.02208 23.0907 6.06483C22.9822 6.10757 22.8662 6.12819 22.7495 6.12547C22.5209 6.12013 22.3034 6.02554 22.1437 5.86193C21.9839 5.69833 21.8944 5.47869 21.8945 5.25001C21.8946 5.02132 21.9841 4.80173 22.144 4.63821C22.3039 4.47469 22.5214 4.38022 22.75 4.375ZM22.4611 6.97107C22.5564 6.9888 22.6531 6.99848 22.75 7C22.8485 7 22.9441 6.98693 23.0384 6.9706L26.3149 15.3123H19.1833L22.4611 6.97107Z" fill="#2D135A"/>
</svg>
