<svg width="26" height="28" viewBox="0 0 26 28" fill="none" xmlns="http://www.w3.org/2000/svg">
<path d="M5.52347 7.76393V6.42087C7.42467 5.94627 8.83447 4.28727 8.83447 2.31047L8.8354 0L6.62807 0.000933377L6.6276 2.3114C6.62713 3.108 6.1628 3.7954 5.4866 4.15893C5.22947 3.1612 3.60593 3.16073 3.35113 4.15987C2.67447 3.79633 2.2106 3.10847 2.21153 2.3114L2.20967 0H0.000933266V2.3114C0.00139993 4.28773 1.4126 5.9486 3.31427 6.42133V7.76347C1.41213 8.2376 0.000466667 9.898 0 11.8739L0.000933266 16.1247C0.000933266 18.1011 1.41073 19.7619 3.31287 20.237L3.31333 21.5791C1.41167 22.0528 0.00140009 23.7132 0.00186675 25.6895L0.0013999 28L2.20827 27.9991L2.2092 25.6895C2.2092 24.8925 2.67353 24.2046 3.35067 23.8411C3.60733 24.8393 5.23133 24.8393 5.4852 23.8401C6.16187 24.2032 6.6262 24.8911 6.6262 25.6877V28L8.83493 27.9991V25.6886C8.83447 23.7127 7.42327 22.0514 5.5216 21.5787V20.237C7.4242 19.7629 8.8354 18.102 8.8354 16.1257V11.8748C8.83587 9.898 7.4256 8.23807 5.52347 7.76393ZM5.48567 17.9741C5.22993 16.9759 3.6064 16.9759 3.34927 17.9737C2.67307 17.6097 2.20967 16.9213 2.20967 16.1252V11.8753C2.21013 11.0782 2.67447 10.3899 3.35113 10.0268C3.60873 11.0255 5.23087 11.025 5.4866 10.0273C6.16327 10.3908 6.62713 11.0782 6.6262 11.8753L6.62713 16.1252C6.6262 16.9223 6.16233 17.6101 5.48567 17.9741Z" fill="black"/>
<path d="M21.8876 14.6762V13.3238C23.7888 12.8464 25.1981 11.1743 25.1981 9.184L25.1991 4.90327C25.2009 2.91387 23.7893 1.24133 21.8853 0.763933V0.000933377L19.6775 0V0.763933C17.7758 1.2404 16.3651 2.9134 16.3651 4.90327V9.18493C16.366 11.1748 17.7758 12.8478 19.6775 13.3247V14.6762C17.7763 15.1531 16.3651 16.8252 16.3641 18.8151L16.3651 23.0967C16.3651 25.0875 17.7753 26.7596 19.6779 27.237L19.6775 27.9991L21.8862 28V27.237C23.7888 26.7596 25.2 25.0875 25.2 23.0977V18.8169C25.2 16.8257 23.7902 15.1541 21.8876 14.6762ZM18.5752 9.18493L18.5743 4.90327C18.5738 4.10947 19.0269 3.423 19.6915 3.05387C19.8385 4.2364 21.7261 4.23547 21.8722 3.0534C22.5372 3.42253 22.9908 4.10947 22.9922 4.90513L22.9913 9.1854C22.9908 9.9876 22.5269 10.6797 21.8507 11.046C21.5936 10.0417 19.9696 10.0417 19.7143 11.0465C19.0381 10.6797 18.5747 9.98713 18.5752 9.18493ZM21.8713 24.9475C21.7252 23.7645 19.8385 23.7645 19.691 24.9466C19.0269 24.577 18.5733 23.8901 18.5738 23.0967V18.8169C18.5743 18.0138 19.0381 17.3213 19.7148 16.9554C19.9733 17.9601 21.595 17.9597 21.8507 16.9549C22.5269 17.3213 22.9908 18.0143 22.9894 18.8169L22.9903 23.0967C22.9908 23.891 22.5363 24.5784 21.8713 24.9475Z" fill="black"/>
</svg>
