<svg xmlns="http://www.w3.org/2000/svg" width="15" height="18" viewBox="0 0 15 18">
    <g fill="none" fill-rule="evenodd">
        <path fill="#757575" d="M7 12v2c1.103 0 2-.449 2-1 0-.551-.897-1-2-1M3 12H2v2h1a1 1 0 0 0 0-2"/>
        <path fill="#EF0D0D" d="M10 4.91V.817l4.167 4.091H10zm4 6.954h-2.75v.818h2.083v1.227H11.25v1.636H10v-3.681c0-.677.56-1.228 1.25-1.228H14v1.228zm-6.917 3.681h-1.25v-4.909h1.25c1.379 0 2.5 1.1 2.5 2.455 0 1.354-1.121 2.454-2.5 2.454zm-3.958-1.227H2.5v1.227H1.25v-4.909h1.875c1.033 0 1.875.826 1.875 1.841 0 1.016-.842 1.841-1.875 1.841zM11.178 0H1.667C.747 0 0 .735 0 1.636v14.728C0 17.267.748 18 1.667 18h11.666c.92 0 1.667-.733 1.667-1.636V3.752L11.178 0z"/>
    </g>
</svg>
