<svg width="57" height="56" viewBox="0 0 57 56" fill="none" xmlns="http://www.w3.org/2000/svg">
<path d="M42.3704 22.3543L45.7194 22.145C45.725 22.1445 45.7311 22.1441 45.7372 22.1437C48.1238 21.945 50.266 20.7116 51.615 18.7588L54.2626 14.9268C56.567 11.5908 57.4598 7.56151 56.7757 3.58155C56.6413 2.79989 56.236 2.07958 55.635 1.55404C55.0336 1.02807 54.2604 0.717459 53.4576 0.679706C49.3689 0.48665 45.4223 1.84448 42.3417 4.50136L38.8026 7.55379C36.9992 9.10896 36.0146 11.3548 36.1007 13.7166C36.1011 13.7221 36.1011 13.7281 36.1016 13.7342L36.2925 17.0388C36.3669 18.3272 35.8881 19.5983 34.9813 20.5241L7.33262 48.5447C6.59245 49.3062 6.2102 50.3509 6.25673 51.4865C6.30804 52.7366 6.88948 53.9644 7.81229 54.7714C8.64595 55.5003 9.79186 55.9156 10.9373 55.9156C11.06 55.9156 11.1826 55.9109 11.3048 55.901C12.4533 55.8105 13.4592 55.3111 14.1402 54.49L39.0183 24.0584C39.8433 23.057 41.0653 22.4358 42.3704 22.3543ZM37.6902 22.9978L12.8143 53.4269C12.4342 53.8851 11.8497 54.1674 11.1687 54.221C10.3585 54.2849 9.52789 54.0189 8.94602 53.5101C8.36415 53.0009 7.99711 52.2192 7.9645 51.4183C7.93666 50.7451 8.15019 50.1389 8.56159 49.7159L36.2081 21.6975C37.4475 20.4323 38.0998 18.6996 37.999 16.9432L37.808 13.6471C37.7432 11.7984 38.5152 10.0408 39.9272 8.82281L43.4663 5.77038C46.2129 3.4018 49.7329 2.19241 53.3763 2.36315C53.7911 2.38289 54.1904 2.54334 54.5013 2.81533C54.8122 3.0869 55.0214 3.45928 55.091 3.86298C55.7007 7.41135 54.9049 11.0031 52.8505 13.977L50.203 17.8094C49.1466 19.3384 47.4702 20.3049 45.6019 20.4632L42.2621 20.6717C40.4826 20.7833 38.817 21.6301 37.6902 22.9978Z" fill="#8884B4"/>
<path d="M55.4215 48.3318L36.883 31.6745C36.5343 31.3609 35.9941 31.3857 35.6758 31.7298C35.3584 32.0739 35.3836 32.6071 35.7324 32.9207L54.266 49.5742C54.707 49.9762 54.957 50.5686 54.9705 51.2422C54.9866 52.0436 54.6678 52.8454 54.1177 53.3881C53.568 53.9304 52.7565 54.2457 51.9425 54.2294C51.2597 54.2161 50.6591 53.9694 50.256 53.5391L33.7367 35.6476C33.4188 35.3031 32.8782 35.2786 32.5295 35.5918C32.1807 35.9054 32.1555 36.4387 32.4734 36.7827L48.9966 54.6786C49.7228 55.4534 50.757 55.8927 51.909 55.915C51.939 55.9154 51.9685 55.9159 51.9986 55.9159C53.2367 55.9159 54.4748 55.4204 55.3258 54.5803C56.1982 53.7197 56.7039 52.4597 56.6787 51.2092C56.6561 50.0727 56.2112 49.0525 55.4215 48.3318Z" fill="#8884B4"/>
<path d="M10.31 22.1947C11.7243 23.48 13.5616 24.2128 15.4838 24.2582C15.4899 24.2587 15.496 24.2587 15.5016 24.2587L18.8571 24.269C20.1653 24.2728 21.4225 24.8207 22.3049 25.7692L23.783 27.3699C23.9517 27.5526 24.1827 27.6453 24.4149 27.6453C24.6202 27.6453 24.8263 27.5728 24.9898 27.4256C25.339 27.112 25.3642 26.5788 25.0463 26.2347L23.566 24.6319C22.3605 23.3354 20.6462 22.5889 18.8628 22.5829L15.5164 22.5726C14.0296 22.5353 12.6079 21.9737 11.5064 20.99L1.78207 9.58598C1.68291 9.46929 1.69031 9.30025 1.79946 9.19257C1.87426 9.11835 1.96211 9.10763 2.00777 9.10763C2.05343 9.10763 2.14128 9.11835 2.21651 9.19257L11.068 17.9251C11.943 18.7883 13.3668 18.7883 14.2418 17.9247L15.282 16.8989V16.8985L17.1289 15.0765C17.1289 15.0765 17.1294 15.0765 17.1294 15.0761L17.1298 15.0756L18.1696 14.0499C19.0446 13.1867 19.0446 11.7821 18.1696 10.9189L9.31808 2.18678C9.20327 2.07353 9.20327 1.88862 9.31808 1.77536C9.42723 1.66768 9.59858 1.66039 9.71686 1.7582L21.2768 11.3518C22.2744 12.4381 22.8437 13.8409 22.8815 15.3073L22.8915 18.609C22.8976 20.3679 23.6547 22.0591 24.9707 23.2509L26.5545 24.6739C26.9037 24.9876 27.4438 24.9627 27.7617 24.6186C28.0792 24.2741 28.054 23.7413 27.7052 23.4277L26.124 22.0068C25.1598 21.1342 24.6049 19.8934 24.6006 18.6034L24.5902 15.2931C24.5902 15.2871 24.5902 15.2811 24.5897 15.2751C24.5436 13.3789 23.8008 11.5663 22.4979 10.1712C22.4736 10.145 22.4475 10.1201 22.4197 10.0969L10.8167 0.468158C10.0148 -0.197671 8.85102 -0.147905 8.10999 0.583134C7.32851 1.35407 7.32851 2.60808 8.10999 3.37858L16.9615 12.1111C17.1702 12.3171 17.1702 12.6521 16.9615 12.8581L16.5253 13.2879L6.6601 3.5562C6.32655 3.22671 5.78556 3.22671 5.45201 3.5562C5.11846 3.88525 5.11846 4.41894 5.45201 4.74799L15.3172 14.4802L14.678 15.1104L4.81274 5.37864C4.47918 5.04959 3.9382 5.04959 3.60464 5.37864C3.27066 5.7077 3.27066 6.24139 3.60464 6.57044L13.4694 16.3026L13.0337 16.7329C12.8249 16.9388 12.4853 16.9388 12.2766 16.7329L3.4246 8.00077C3.04626 7.62753 2.5431 7.42161 2.00777 7.42161C1.47243 7.42161 0.969279 7.62753 0.590934 8.00077C-0.150099 8.73181 -0.20011 9.87985 0.474387 10.6714L10.2352 22.1175C10.2583 22.1449 10.2835 22.1707 10.31 22.1947Z" fill="#8884B4"/>
</svg>
