<svg width="64" height="64" viewBox="0 0 64 64" fill="none" xmlns="http://www.w3.org/2000/svg">
<path d="M15.7212 19.2378C7.06868 19.2378 0.0292969 26.2772 0.0292969 34.9297C0.0292969 40.3018 2.5848 46.0779 7.62494 52.0974C8.37381 52.9917 9.12006 53.8205 9.83619 54.5766C6.58193 55.4649 4.62806 57.0607 4.62806 58.9234C4.62806 62.2208 10.3433 64 15.7207 64C21.0982 64 26.8133 62.2206 26.8133 58.9234C26.8133 57.0622 24.8601 55.466 21.608 54.5774C22.9072 53.2057 24.3052 51.592 25.6317 49.792C25.9392 49.3746 25.8502 48.7872 25.433 48.4797C25.016 48.1726 24.4282 48.2614 24.1207 48.6786C22.5192 50.852 20.7857 52.762 19.2731 54.2791C19.0997 54.3676 18.9547 54.5081 18.8638 54.6852C17.5088 56.0169 16.3686 57.0047 15.7216 57.5445C15.0817 57.01 13.9588 56.0355 12.6212 54.7212C12.5252 54.5109 12.3566 54.3459 12.1508 54.2539C7.89994 49.9782 1.90618 42.5912 1.90618 34.9299C1.90618 27.3124 8.10356 21.115 15.7211 21.115C23.3386 21.115 29.536 27.3124 29.536 34.9299C29.536 38.2566 28.4025 41.8491 26.167 45.6077C25.9021 46.0533 26.0483 46.6292 26.4938 46.8941C26.9393 47.159 27.5154 47.0127 27.7802 46.5672C30.1907 42.5142 31.413 38.599 31.413 34.9299C31.4131 26.2772 24.3737 19.2378 15.7212 19.2378ZM15.1468 59.4965C15.3158 59.6274 15.5186 59.6927 15.7212 59.6927C15.9238 59.6927 16.1265 59.6274 16.2956 59.4965C16.4107 59.4074 17.979 58.1844 20.0693 56.1405C23.2346 56.786 24.9366 58.0289 24.9366 58.9235C24.9366 59.5916 24.0208 60.3799 22.5467 60.9805C20.7387 61.7174 18.3146 62.1233 15.7208 62.1233C10.0951 62.1233 6.50506 60.228 6.50506 58.9235C6.50506 58.0276 8.20756 56.7854 11.3746 56.1399C13.4766 58.1959 15.0471 59.4193 15.1468 59.4965Z" fill="#8884B4"/>
<path d="M15.7211 28.1068C14.2367 28.1068 12.8252 28.5754 11.6392 29.4621C11.2242 29.7724 11.1392 30.3606 11.4494 30.7757C11.7599 31.1907 12.3481 31.2756 12.7631 30.9654C13.6219 30.3233 14.6448 29.9838 15.721 29.9838C18.4481 29.9838 20.6667 32.2024 20.6667 34.9297C20.6667 37.6568 18.4481 39.8755 15.721 39.8755C12.9938 39.8755 10.7752 37.6567 10.7752 34.9297C10.7752 34.4643 10.8396 34.0042 10.9664 33.5624C11.1094 33.0643 10.8216 32.5446 10.3234 32.4014C9.82544 32.2589 9.30556 32.5464 9.16244 33.0446C8.98731 33.6549 8.89844 34.2891 8.89844 34.9297C8.89844 38.6917 11.9591 41.7525 15.7212 41.7525C19.4832 41.7525 22.544 38.6918 22.544 34.9297C22.5438 31.1676 19.4831 28.1068 15.7211 28.1068Z" fill="#8884B4"/>
<path d="M56.6199 27.2652C57.0974 26.7528 57.5893 26.2008 58.0826 25.6116C61.9898 20.9449 63.9709 16.4588 63.9709 12.2774C63.9709 5.50776 58.4633 0 51.6935 0C46.7482 0 42.3078 2.94326 40.3814 7.49827C40.1794 7.97564 40.4028 8.52639 40.88 8.72814C41.3573 8.92989 41.9081 8.70677 42.1099 8.22952C43.7421 4.37051 47.5039 1.87688 51.6935 1.87688C57.4284 1.87688 62.0941 6.54264 62.0941 12.2775C62.0941 20.0329 53.9518 27.4631 51.6932 29.3744C51.1954 28.9538 50.4119 28.2653 49.4933 27.3648C49.4017 27.1832 49.2537 27.0392 49.0759 26.9501C45.8355 23.6874 41.293 18.079 41.293 12.2775C41.293 11.7591 40.873 11.339 40.3545 11.339C39.8363 11.339 39.416 11.7591 39.416 12.2775C39.416 16.4588 41.3971 20.9449 45.3045 25.6117C45.7977 26.2006 46.2892 26.7523 46.7664 27.2646C44.3472 27.9914 42.9505 29.2287 42.9505 30.7186C42.9505 31.9751 43.9698 33.0824 45.8208 33.8366C47.4045 34.4819 49.4902 34.8374 51.6934 34.8374C53.8965 34.8374 55.9822 34.4819 57.5661 33.8366C59.4167 33.0823 60.4359 31.9749 60.4359 30.7184C60.4358 29.2313 59.0382 27.9929 56.6199 27.2652ZM51.6933 32.9603C47.2509 32.9603 44.8275 31.4793 44.8275 30.7183C44.8275 30.2226 45.9299 29.3153 48.2839 28.8148C49.8678 30.3559 51.0434 31.2717 51.1193 31.3306C51.2884 31.4614 51.491 31.5268 51.6937 31.5268C51.8963 31.5268 52.0988 31.4614 52.268 31.3306C52.3439 31.2719 53.5193 30.3561 55.1032 28.8151C56.1519 29.0387 57.0604 29.3663 57.6962 29.7533C58.2366 30.0826 58.5592 30.4433 58.5592 30.7183C58.5589 31.4793 56.1355 32.9603 51.6933 32.9603Z" fill="#8884B4"/>
<path d="M51.6939 6.81653C48.6828 6.81653 46.2329 9.26628 46.2329 12.2777C46.2329 15.2888 48.6827 17.7386 51.6939 17.7386C54.7052 17.7386 57.1549 15.2889 57.1549 12.2777C57.1549 9.26641 54.7052 6.81653 51.6939 6.81653ZM51.694 15.8615C49.7175 15.8615 48.1099 14.2538 48.1099 12.2775C48.1099 10.3013 49.7177 8.69341 51.694 8.69341C53.6703 8.69341 55.2782 10.3012 55.2782 12.2775C55.2781 14.2538 53.6703 15.8615 51.694 15.8615Z" fill="#8884B4"/>
<path d="M39.5193 29.7799H39.0908C38.7788 29.7799 38.4653 29.8005 38.1585 29.8414C37.6449 29.9098 37.2838 30.3815 37.352 30.8955C37.4149 31.3674 37.8179 31.7104 38.2812 31.7104C38.3224 31.7104 38.3642 31.7078 38.4062 31.7022C38.631 31.6723 38.8614 31.6572 39.0909 31.6572H39.5193V31.657C40.0377 31.657 40.4578 31.237 40.4578 30.7185C40.4578 30.2 40.0377 29.7799 39.5193 29.7799Z" fill="#8884B4"/>
<path d="M36.4169 57.937C36.4154 57.937 36.414 57.937 36.4125 57.937L35.173 57.9426C34.6548 57.945 34.2365 58.3671 34.2388 58.8854C34.241 59.4023 34.6609 59.8196 35.1772 59.8196C35.1787 59.8196 35.18 59.8196 35.1815 59.8196L36.421 59.814C36.9393 59.8116 37.3575 59.3895 37.3553 58.8713C37.353 58.3543 36.9333 57.937 36.4169 57.937Z" fill="#8884B4"/>
<path d="M40.6336 41.9362H39.3941C38.8757 41.9362 38.4556 42.3564 38.4556 42.8747C38.4556 43.393 38.8756 43.8132 39.3941 43.8132H40.6336C41.1519 43.8132 41.5721 43.3932 41.5721 42.8747C41.5721 42.3564 41.1521 41.9362 40.6336 41.9362Z" fill="#8884B4"/>
<path d="M35.6607 31.692C35.3093 31.3113 34.7158 31.2873 34.3346 31.6385C33.9847 31.9612 33.6664 32.3208 33.3887 32.7075C33.0863 33.1287 33.1826 33.715 33.6036 34.0174C33.7692 34.1364 33.9607 34.1937 34.1503 34.1937C34.4422 34.1937 34.7299 34.0578 34.9133 33.8026C35.1171 33.5189 35.3506 33.2549 35.6072 33.0182C35.9882 32.6668 36.0121 32.073 35.6607 31.692Z" fill="#8884B4"/>
<path d="M41.3753 57.9143C41.3738 57.9143 41.3724 57.9143 41.3709 57.9143L40.1315 57.9199C39.6133 57.9222 39.195 58.3444 39.1973 58.8627C39.1995 59.3796 39.6194 59.7969 40.1356 59.7969C40.1371 59.7969 40.1385 59.7969 40.14 59.7969L41.3794 59.7913C41.8977 59.7891 42.3159 59.3668 42.3137 58.8486C42.3113 58.3317 41.8915 57.9143 41.3753 57.9143Z" fill="#8884B4"/>
<path d="M31.4589 57.9595C31.4574 57.9595 31.456 57.9595 31.4545 57.9595L30.215 57.9651C29.6968 57.9675 29.2785 58.3896 29.2808 58.9079C29.2831 59.4247 29.7026 59.8421 30.2191 59.8421C30.2206 59.8421 30.222 59.8421 30.2235 59.8421L31.463 59.8365C31.9813 59.8341 32.3995 59.412 32.3973 58.8937C32.395 58.3767 31.9753 57.9595 31.4589 57.9595Z" fill="#8884B4"/>
<path d="M36.3537 41.1473C36.0588 40.9613 35.7814 40.744 35.5296 40.5019C35.1559 40.1425 34.5617 40.1544 34.2026 40.5277C33.8432 40.9012 33.8548 41.4953 34.2283 41.8545C34.5718 42.1849 34.9499 42.481 35.3522 42.7348C35.5077 42.8329 35.6808 42.8797 35.8521 42.8797C36.1636 42.8797 36.4682 42.7248 36.6468 42.4417C36.9234 42.0034 36.7921 41.4238 36.3537 41.1473Z" fill="#8884B4"/>
<path d="M34.0467 37.786C33.9837 37.4625 33.9517 37.1298 33.9517 36.7968L33.952 36.7447C33.9581 36.2264 33.5428 35.8014 33.0245 35.7954C33.0208 35.7953 33.0171 35.7953 33.0133 35.7953C32.5001 35.7953 32.0811 36.2083 32.0751 36.7229L32.0747 36.7969C32.0747 37.2502 32.1183 37.7038 32.2043 38.1452C32.2916 38.5933 32.6843 38.9042 33.1245 38.9042C33.1838 38.9042 33.2443 38.8986 33.3048 38.8867C33.8137 38.7876 34.1457 38.2948 34.0467 37.786Z" fill="#8884B4"/>
<path d="M45.5916 41.9362H44.3521C43.8337 41.9362 43.4136 42.3564 43.4136 42.8747C43.4136 43.393 43.8337 43.8132 44.3521 43.8132H45.5916C46.11 43.8132 46.5301 43.3932 46.5301 42.8747C46.5301 42.3564 46.11 41.9362 45.5916 41.9362Z" fill="#8884B4"/>
<path d="M60.6596 43.847C60.2979 43.5616 59.9114 43.3024 59.5106 43.0767C59.0594 42.8222 58.4868 42.9821 58.2323 43.4337C57.9779 43.8852 58.1377 44.4577 58.5893 44.712C58.9056 44.8904 59.2108 45.0949 59.4962 45.3202C59.6687 45.4564 59.8734 45.5222 60.0772 45.5222C60.3544 45.5222 60.6292 45.3997 60.8144 45.1652C61.1357 44.7584 61.0664 44.1681 60.6596 43.847Z" fill="#8884B4"/>
<path d="M57.176 58.5868C57.1048 58.0734 56.6303 57.7141 56.1179 57.7856C55.8105 57.8281 55.4958 57.8504 55.1819 57.8517L55.0063 57.8526C54.4879 57.8552 54.0698 58.2774 54.0723 58.7956C54.0749 59.3123 54.4945 59.7296 55.0106 59.7296C55.0123 59.7296 55.0138 59.7296 55.0153 59.7296L55.1905 59.7287C55.5869 59.7269 55.9854 59.6988 56.3748 59.6449C56.8884 59.5739 57.247 59.1001 57.176 58.5868Z" fill="#8884B4"/>
<path d="M61.3176 55.9477C60.9599 55.5722 60.3658 55.5578 59.9908 55.9154C59.7274 56.1663 59.4424 56.3986 59.1436 56.6058C58.7177 56.9011 58.6118 57.4858 58.9069 57.9119C59.0893 58.1748 59.3817 58.3158 59.6791 58.3158C59.8636 58.3158 60.0498 58.2616 60.2129 58.1486C60.5912 57.8862 60.9521 57.5922 61.2854 57.2746C61.6608 56.9169 61.6751 56.3228 61.3176 55.9477Z" fill="#8884B4"/>
<path d="M63.1441 51.3898C62.6355 51.2939 62.1442 51.6289 62.0482 52.1383C61.9809 52.4954 61.8851 52.8498 61.7632 53.1918C61.5892 53.6799 61.8439 54.2168 62.3321 54.3909C62.4362 54.428 62.5427 54.4457 62.6474 54.4457C63.0329 54.4457 63.3944 54.2062 63.5314 53.8222C63.686 53.3884 63.8076 52.9388 63.893 52.4857C63.9886 51.9763 63.6534 51.4855 63.1441 51.3898Z" fill="#8884B4"/>
<path d="M63.7017 48.3731C63.5745 47.93 63.4112 47.4935 63.216 47.0751C62.9967 46.6054 62.4387 46.4024 61.9686 46.6214C61.499 46.8406 61.2959 47.399 61.515 47.8687C61.6687 48.1981 61.7975 48.5421 61.8976 48.8909C62.0157 49.3025 62.3912 49.5707 62.7992 49.5707C62.8851 49.5707 62.9721 49.5589 63.0586 49.5341C63.5567 49.391 63.8446 48.8712 63.7017 48.3731Z" fill="#8884B4"/>
<path d="M50.5501 41.9362H49.3106C48.7922 41.9362 48.3721 42.3564 48.3721 42.8747C48.3721 43.393 48.7921 43.8132 49.3106 43.8132H50.5501C51.0684 43.8132 51.4886 43.3932 51.4886 42.8747C51.4886 42.3564 51.0684 41.9362 50.5501 41.9362Z" fill="#8884B4"/>
<path d="M46.3334 57.8918C46.3319 57.8918 46.3305 57.8918 46.329 57.8918L45.0895 57.8975C44.5713 57.8997 44.153 58.322 44.1553 58.8402C44.1577 59.3571 44.5774 59.7745 45.0937 59.7745C45.0952 59.7745 45.0965 59.7745 45.098 59.7745L46.3375 59.7689C46.8558 59.7665 47.274 59.3444 47.2718 58.8261C47.2695 58.3092 46.8497 57.8918 46.3334 57.8918Z" fill="#8884B4"/>
<path d="M55.5495 41.9453C55.4167 41.9393 55.2822 41.9364 55.15 41.9364H54.2686C53.7502 41.9364 53.3301 42.3567 53.3301 42.8749C53.3301 43.3933 53.7501 43.8134 54.2686 43.8134H55.15V43.8133C55.2561 43.8133 55.3616 43.8157 55.4665 43.8203C55.4806 43.821 55.4947 43.8213 55.5087 43.8213C56.0078 43.8213 56.4233 43.428 56.4455 42.9244C56.4683 42.4064 56.0672 41.9682 55.5495 41.9453Z" fill="#8884B4"/>
<path d="M51.2914 57.8695C51.2899 57.8695 51.2885 57.8695 51.287 57.8695L50.0475 57.8751C49.5293 57.8774 49.111 58.2996 49.1133 58.8179C49.1157 59.3348 49.5354 59.7521 50.0517 59.7521C50.0532 59.7521 50.0547 59.7521 50.056 59.7521L51.2955 59.7465C51.8138 59.7441 52.232 59.322 52.2298 58.8038C52.2275 58.2868 51.8078 57.8695 51.2914 57.8695Z" fill="#8884B4"/>
</svg>
