<svg width="61" height="61" viewBox="0 0 61 61" fill="none" xmlns="http://www.w3.org/2000/svg">
<path d="M30.5 61C47.2942 61 61 47.2928 61 30.5C61 13.7058 47.2928 0 30.5 0C13.7058 0 0 13.7072 0 30.5C0 47.2942 13.7072 61 30.5 61ZM13.0031 50.9484C17.3922 46.0255 23.8114 43.1289 30.5 43.1289C37.1886 43.1289 43.6078 46.0255 47.9969 50.9484C43.2876 54.9839 37.1737 57.4258 30.5 57.4258C23.8263 57.4258 17.7124 54.9839 13.0031 50.9484ZM10.8041 28.7129C11.1746 24.5997 12.8085 20.8454 15.3156 17.8432L17.744 20.2716L20.2716 17.744L17.8432 15.3156C20.8454 12.8085 24.5997 11.1746 28.7129 10.8041V14.2969H32.2871V10.8041C36.4003 11.1746 40.1546 12.8085 43.1568 15.3156L40.7284 17.744L43.256 20.2716L45.6844 17.8432C48.191 20.8454 49.8254 24.5997 50.1959 28.7129H46.7031V32.2857H50.195C49.8059 36.5915 48.0225 40.6781 45.1389 43.8531C40.6856 40.9862 35.5588 39.5547 30.5 39.5547C25.4519 39.5547 20.3237 40.9802 15.8611 43.8531C12.9775 40.6781 11.1941 36.5925 10.805 32.2871H14.2969V28.7129H10.8041ZM30.5 3.57422C45.347 3.57422 57.4258 15.653 57.4258 30.5C57.4258 37.3883 54.8247 43.6795 50.5543 48.4465C49.7673 47.5748 48.9193 46.7548 48.0207 45.9911C51.7461 41.7579 53.8516 36.2188 53.8516 30.5C53.8516 17.6761 43.3253 7.14844 30.5 7.14844C17.6761 7.14844 7.14844 17.6747 7.14844 30.5C7.14844 36.2188 9.25388 41.7579 12.9793 45.9911C12.0807 46.7548 11.2327 47.5748 10.4457 48.4465C6.1753 43.6795 3.57422 37.3883 3.57422 30.5C3.57422 15.653 15.653 3.57422 30.5 3.57422Z" fill="#8884B4"/>
<path d="M25.1387 46.7031H35.8613V50.2773H25.1387V46.7031Z" fill="#8884B4"/>
<path d="M25.9201 33.2878C26.9021 34.8995 28.6142 35.8614 30.5 35.8614C33.4562 35.8614 35.8613 33.4563 35.8613 30.5001C35.8613 28.6143 34.8994 26.9022 33.2877 25.9202L33.1956 25.8639L19.7518 19.7523L25.8638 33.1957L25.9201 33.2878ZM31.5034 29.0206C31.9958 29.3548 32.2871 29.9011 32.2871 30.5001C32.2871 31.4853 31.4852 32.2872 30.5 32.2872C29.901 32.2872 29.3547 31.9959 29.0205 31.5035L26.9514 26.951L31.5034 29.0206Z" fill="#8884B4"/>
</svg>
