<svg width="54" height="53" viewBox="0 0 54 53" fill="none" xmlns="http://www.w3.org/2000/svg">
<path fill-rule="evenodd" clip-rule="evenodd" d="M6.6676 52.7233C5.31802 52.7283 4.01116 52.2504 2.98315 51.3761C1.95513 50.5017 1.27376 49.2884 1.06214 47.9555C0.850529 46.6226 1.12263 45.258 1.82928 44.1082C2.53593 42.9584 3.63052 42.0993 4.91529 41.6861L5.97529 41.3316L5.65729 40.2683C4.72647 37.1247 5.38897 34.0342 7.42616 32.0069L9.51304 29.93L12.534 32.9311L11.1262 34.329C8.7611 36.6842 8.95654 39.5727 11.6529 42.2657C13.0905 43.6901 14.5447 44.4122 15.9923 44.4122C17.2809 44.4122 18.4535 43.8657 19.5897 42.7427L32.472 29.9167L35.4996 32.9278L21.925 46.4296C20.5271 47.8208 18.6489 48.5562 16.4759 48.5562C15.4987 48.5562 14.5083 48.4038 13.5145 48.0991L12.4413 47.7711L12.0769 48.8278C11.7788 49.699 11.325 50.4443 10.7254 51.0439C10.1938 51.5783 9.56137 52.002 8.86482 52.2903C8.16827 52.5786 7.42144 52.7257 6.6676 52.7233Z" fill="#8884B4"/>
<path fill-rule="evenodd" clip-rule="evenodd" d="M42.5621 19.956L43.2081 19.31C44.0031 18.525 44.6291 17.1238 44.8014 15.7391C45.0366 13.8775 44.4734 12.1683 43.2147 10.9128C42.1116 9.80645 40.6409 9.22345 38.978 9.22345C37.3151 9.22345 35.5231 9.84952 34.6221 10.7571L22.4817 22.8312L19.4011 19.7671L32.9029 6.33495C34.3206 4.93045 36.2286 4.18845 38.4182 4.18845C39.4186 4.18845 40.4355 4.34745 41.4491 4.65883L42.5356 4.99339L42.8901 3.92345C43.1816 3.04233 43.642 2.29039 44.2548 1.67758C45.3248 0.608024 46.7744 0.00499529 48.2873 3.08947e-05C49.8002 -0.0049335 51.2537 0.588569 52.3307 1.65108C52.8584 2.17949 53.2764 2.80698 53.5608 3.49748C53.8452 4.18798 53.9904 4.92788 53.9879 5.67465C53.9854 6.42142 53.8354 7.16034 53.5465 7.84895C53.2575 8.53756 52.8353 9.16228 52.3042 9.6872C51.6754 10.3047 50.9108 10.7664 50.0716 11.0354L48.9983 11.3931L49.3362 12.4763C50.3796 15.759 49.7502 18.9556 47.6733 21.0292L45.656 23.0333L42.5621 19.956Z" fill="#8884B4"/>
<path fill-rule="evenodd" clip-rule="evenodd" d="M7.39387 20.6283C5.38319 18.6243 4.69419 15.59 5.55875 12.5061L5.84694 11.4693L4.82669 11.1115C3.92013 10.7977 3.10905 10.2569 2.47074 9.54066C1.83244 8.82448 1.38816 7.95676 1.18026 7.0202C0.972357 6.08364 1.00775 5.10945 1.28307 4.19045C1.55839 3.27145 2.06446 2.43826 2.75306 1.77028C3.8218 0.698315 5.27183 0.0936209 6.78552 0.0886539C8.29922 0.0836869 9.75319 0.678852 10.8289 1.74378C11.4053 2.31684 11.8392 3.01247 12.1307 3.81741L12.4984 4.84428L13.5452 4.54284C14.4826 4.26791 15.43 4.12547 16.3608 4.12547C18.5305 4.12547 20.4252 4.86747 21.8331 6.26534L24.1154 8.54434L21.1242 11.5256L19.8621 10.2635C19.3288 9.73684 17.8746 8.50791 15.8142 8.50791C14.2673 8.50791 12.7966 9.1969 11.4351 10.555C9.43106 12.5492 9.27537 14.4273 9.50062 15.6497C9.76562 17.0773 10.607 18.1605 11.2662 18.8164L23.8636 31.3476L21.0149 34.1765L7.39387 20.6283Z" fill="#8884B4"/>
<path fill-rule="evenodd" clip-rule="evenodd" d="M48.1961 52.7032C46.6756 52.7032 45.2513 52.1136 44.178 51.0536C43.539 50.4064 43.0682 49.6126 42.8066 48.7415L42.4688 47.6649L41.3823 47.9763C40.5187 48.22 39.6262 48.3459 38.7289 48.3506C36.5427 48.3506 34.5353 47.5523 33.0811 46.1047L31.1599 44.1868L33.9987 41.3646L34.7142 42.0801C35.539 42.8982 37.2317 43.4448 38.9178 43.4448C40.5541 43.4448 41.9918 42.9214 42.9491 41.9641C43.9594 40.9604 44.5159 39.4301 44.5159 37.6512C44.5159 35.9652 44.0124 34.3785 43.2273 33.6067L31.0804 21.5161L34.0649 18.5447L47.4309 31.8378C49.4747 33.875 50.1339 37.0053 49.1865 40.1952L48.8652 41.2884L49.9583 41.6296C51.1114 41.9732 52.1224 42.6805 52.8405 43.6458C53.5587 44.6111 53.9455 45.7827 53.9433 46.9859C53.9433 48.5129 53.3338 49.9472 52.2506 51.0304C51.7182 51.5626 51.086 51.9843 50.3902 52.2714C49.6944 52.5584 48.9488 52.7052 48.1961 52.7032Z" fill="#8884B4"/>
</svg>
