<svg width="59" height="59" viewBox="0 0 59 59" fill="none" xmlns="http://www.w3.org/2000/svg">
<path d="M59 4.01871C59.0045 2.94138 58.5887 1.92997 57.8293 1.17058C57.0699 0.411183 56.0565 -0.00389048 54.9813 2.74851e-05C53.9071 0.00452162 52.8958 0.426625 52.1337 1.18855C51.8111 1.51121 51.2242 2.20815 50.9031 2.59499C50.566 3.00119 50.6217 3.60387 51.0279 3.94093C51.434 4.2781 52.0367 4.22233 52.3739 3.81613C52.8768 3.21046 53.2924 2.7335 53.4854 2.54037C53.8885 2.13739 54.4225 1.91407 54.9892 1.91165C54.9923 1.91165 54.9952 1.91165 54.9983 1.91165C55.5586 1.91165 56.0837 2.12829 56.4776 2.52228C56.8737 2.91834 57.0906 3.44692 57.0882 4.01064C57.0858 4.57725 56.8625 5.11125 56.4595 5.51445C56.0987 5.87525 54.8586 6.859 53.0818 8.10019C52.0307 6.30323 50.0814 5.09269 47.8536 5.09269H33.8568C31.9674 5.09269 30.1912 5.82846 28.855 7.16438L0.877279 35.1425C0.311594 35.7081 0 36.4603 0 37.2602C0 38.0602 0.311594 38.8124 0.877279 39.378L19.6221 58.1228C20.2061 58.7067 20.9729 58.9986 21.7399 58.9986C22.5069 58.9986 23.2739 58.7066 23.8576 58.1228L51.8356 30.145C53.1715 28.8089 53.9073 27.0327 53.9073 25.1432V11.1465C53.9073 10.7334 53.8655 10.3301 53.7862 9.94002C55.8087 8.54834 57.2933 7.38413 57.8112 6.86626C58.5734 6.10433 58.9955 5.09304 59 4.01871ZM51.9957 25.1432C51.9957 26.522 51.4587 27.8183 50.4839 28.793L22.506 56.7711C22.0837 57.1935 21.3962 57.1935 20.9739 56.7711L2.22909 38.0263C2.02455 37.8218 1.91174 37.5497 1.91174 37.2602C1.91174 36.9708 2.02444 36.6988 2.22909 36.4943L30.2069 8.51642C31.1819 7.54154 32.4781 7.00466 33.8568 7.00466H47.8535C49.4253 7.00466 50.7954 7.8847 51.4969 9.17786C50.3679 9.9255 49.1036 10.7205 47.7624 11.5023C47.7206 11.4564 47.6778 11.411 47.6335 11.3666C46.0681 9.80128 43.5212 9.80128 41.9559 11.3666C40.3905 12.932 40.3905 15.4789 41.9559 17.0442C42.7386 17.8269 43.7667 18.2181 44.7947 18.2181C45.8227 18.2181 46.8508 17.8269 47.6335 17.0442C48.6783 15.9994 49.0246 14.5176 48.6747 13.1819C49.8413 12.5028 50.9615 11.8088 51.9952 11.1373C51.9953 11.1405 51.9956 11.1435 51.9956 11.1466V25.1432H51.9957ZM43.941 14.6349C44.1089 14.9687 44.4459 15.1614 44.7957 15.1614C44.9401 15.1614 45.0868 15.1286 45.2246 15.0592C45.7849 14.7773 46.3432 14.4842 46.896 14.1839C46.9015 14.7295 46.6976 15.2769 46.282 15.6924C45.462 16.5123 44.1281 16.5123 43.308 15.6924C42.4882 14.8724 42.4882 13.5384 43.308 12.7184C43.7181 12.3084 44.2565 12.1035 44.795 12.1035C45.2214 12.1035 45.6465 12.2342 46.0091 12.4911C45.4681 12.7852 44.919 13.0731 44.3656 13.3517C43.8937 13.5887 43.7036 14.1634 43.941 14.6349Z" fill="#8884B4"/>
<path d="M28.4813 19.4692C27.9534 19.4692 27.5254 19.8971 27.5254 20.4251V40.6117C27.5254 41.1396 27.9534 41.5676 28.4813 41.5676C29.0091 41.5676 29.4371 41.1396 29.4371 40.6117V20.4251C29.4371 19.8971 29.0091 19.4692 28.4813 19.4692Z" fill="#8884B4"/>
<path d="M24.111 27.6798C22.5457 26.1142 19.9987 26.1143 18.4336 27.6797C16.8682 29.245 16.8682 31.7919 18.4336 33.3572C19.2164 34.14 20.2443 34.5313 21.2724 34.5311C22.3003 34.5311 23.3285 34.1397 24.1111 33.3572C24.8694 32.5989 25.287 31.5908 25.287 30.5184C25.287 29.4461 24.8693 28.4379 24.111 27.6798ZM22.7593 32.0053C21.9392 32.8253 20.6053 32.8252 19.7854 32.0053C18.9655 31.1853 18.9655 29.8514 19.7854 29.0313C20.1954 28.6213 20.7339 28.4165 21.2724 28.4165C21.8109 28.4165 22.3494 28.6213 22.7594 29.0313C23.1566 29.4286 23.3753 29.9566 23.3753 30.5183C23.3752 31.0801 23.1565 31.6081 22.7593 32.0053Z" fill="#8884B4"/>
<path d="M38.5296 27.6797C36.9642 26.1142 34.4172 26.1143 32.8522 27.6797C31.2869 29.245 31.2869 31.7919 32.8522 33.3573C33.6349 34.1399 34.6629 34.5312 35.691 34.5312C36.719 34.5312 37.7472 34.1399 38.5297 33.3573C40.0949 31.7919 40.0949 29.245 38.5296 27.6797ZM37.1778 32.0053C36.3578 32.8253 35.0238 32.8252 34.2039 32.0053C33.384 31.1853 33.384 29.8514 34.2039 29.0314C34.6139 28.6214 35.1524 28.4165 35.6909 28.4165C36.2294 28.4165 36.7679 28.6214 37.1779 29.0314C37.9978 29.8514 37.9978 31.1853 37.1778 32.0053Z" fill="#8884B4"/>
</svg>
