<svg width="59" height="68" viewBox="0 0 59 68" fill="none" xmlns="http://www.w3.org/2000/svg">
<path d="M58.7146 32.9111C58.3563 32.3197 57.7133 31.9585 57.0203 31.9585C51.1732 31.9585 45.8201 34.9535 42.7718 39.8506H19.2896C16.6456 39.8506 14.1593 40.8766 12.2896 42.7402L0.579488 54.4088C-0.192905 55.179 -0.19342 56.4286 0.579488 57.1993C5.38812 61.9905 10.4345 66.9822 10.485 67.0315C11.2579 67.7966 12.5052 67.7945 13.2765 67.03L20.7865 59.5808H37.3733C42.5465 59.5808 47.251 56.7451 49.6491 52.1804C49.7094 52.0658 55.7065 40.6614 58.7724 34.8497C59.0952 34.2377 59.0735 33.503 58.7146 32.9111ZM46.1414 50.3497C44.4285 53.6098 41.0687 55.6347 37.3733 55.6347H19.9692C19.4454 55.6347 18.9431 55.8413 18.5724 56.2092L11.8782 62.8491C10.3009 61.2871 7.5867 58.5963 4.78021 55.8033L15.0894 45.5302C16.2114 44.4122 17.7031 43.7966 19.2896 43.7966H40.6464L39.1269 46.6858C38.784 47.3378 38.1122 47.7427 37.3733 47.7427H23.9291C22.8355 47.7427 21.9492 48.6259 21.9492 49.7157C21.9492 50.8055 22.8355 51.6887 23.9291 51.6887H37.3733C39.5894 51.6887 41.6055 50.4735 42.6347 48.5175C42.6362 48.5139 45.6907 42.7063 45.6907 42.7063C47.3489 39.5803 50.1786 37.337 53.4842 36.3963C50.3251 42.3934 46.1919 50.2541 46.1414 50.3497Z" fill="#8884B4"/>
<path d="M17.9545 35.6458H41.6598C42.7504 35.6458 43.6353 34.7626 43.6353 33.6728V9.86508C43.6353 8.7753 42.7504 7.89207 41.6598 7.89207H35.7335V5.91905C35.7335 2.65535 33.0748 0 29.8071 0C26.5394 0 23.8808 2.65535 23.8808 5.91905V7.89207H17.9545C16.8633 7.89207 15.979 8.7753 15.979 9.86508V33.6728C15.979 34.7626 16.8633 35.6458 17.9545 35.6458ZM27.8317 5.91905C27.8317 4.83132 28.7175 3.94603 29.8071 3.94603C30.8962 3.94603 31.7826 4.83132 31.7826 5.91905V7.89207H27.8317V5.91905ZM19.9299 11.8381H23.8808V13.8111C23.8808 14.9009 24.7651 15.7841 25.8562 15.7841C26.9468 15.7841 27.8317 14.9009 27.8317 13.8111V11.8381H31.7826V13.8111C31.7826 14.9009 32.6669 15.7841 33.758 15.7841C34.8486 15.7841 35.7335 14.9009 35.7335 13.8111V11.8381H39.6844V31.6998H19.9299V11.8381Z" fill="#8884B4"/>
</svg>
