<svg width="54" height="67" viewBox="0 0 54 67" fill="none" xmlns="http://www.w3.org/2000/svg">
<path d="M52.8261 54.0076C52.178 54.0076 51.6526 54.4447 51.6526 54.984V64.1641C51.6526 64.4613 51.3619 64.7032 51.0047 64.7032H44.6962V45.4748C44.6962 44.9356 44.1707 44.4984 43.5226 44.4984C42.8745 44.4984 42.3491 44.9356 42.3491 45.4748V64.7033H29.6459L33.3297 61.3314C33.7321 60.963 33.9219 60.4382 33.8373 59.9271C33.8357 59.9172 33.8338 59.9073 33.8318 59.8974L30.3232 42.6518L31.2685 41.4679C31.7911 41.7767 32.1937 42.074 32.9487 42.074C33.7167 42.074 34.4347 41.7164 34.788 41.1277V41.1276L38.4886 34.9566L46.9187 37.673C47.2237 37.7819 51.6523 39.4412 51.6523 43.8228V50.4273C51.6521 50.9664 52.1776 51.4037 52.8258 51.4037C53.4739 51.4037 53.9994 50.9665 53.9994 50.4273V43.8228C53.9994 38.0498 48.0583 35.9513 47.8054 35.8647C47.7981 35.8621 47.7906 35.8596 47.783 35.8573L33.7525 31.3364V28.5985C35.981 27.1566 37.5261 25.019 37.914 22.5803C39.0251 22.5152 40.0561 22.17 40.8981 21.5676C41.9976 20.7809 42.6285 19.6359 42.6285 18.4267C42.6285 17.4232 42.1934 16.465 41.4179 15.7184V12.1014C41.4177 5.42871 34.8932 0 26.8733 0C18.8535 0 12.3289 5.42871 12.3289 12.1014V15.8132C11.5452 16.5522 11.1189 17.462 11.1189 18.4265C11.1189 19.6361 11.7495 20.781 12.8493 21.5679C13.6907 22.17 14.7211 22.5148 15.8319 22.5801C16.2229 25.0644 17.8131 27.2817 20.2314 28.743V31.3364L6.21602 35.8572C6.20866 35.8595 6.20131 35.862 6.19396 35.8644C5.94094 35.951 0 38.0495 0 43.8226V64.1638C0 65.5379 1.34363 66.6559 2.99519 66.6559H14.1762C14.8243 66.6559 15.3498 66.2187 15.3498 65.6795C15.3498 65.1402 14.8243 64.703 14.1762 64.703H11.6512V45.4748C11.6512 44.9356 11.1258 44.4984 10.4777 44.4984C9.82959 44.4984 9.30416 44.9356 9.30416 45.4748V64.7033H2.99535C2.63812 64.7033 2.3474 64.4614 2.3474 64.1642V43.8227C2.3474 39.4264 6.80576 37.7708 7.07959 37.6734L15.5031 34.9564L19.204 41.1276C19.5581 41.7177 20.2771 42.074 21.0435 42.074C21.7947 42.074 22.1934 41.7812 22.7237 41.4679L23.6689 42.6518L20.1607 59.8975C20.1586 59.9073 20.1569 59.9171 20.1552 59.927C20.0704 60.4378 20.2602 60.9629 20.6628 61.3316L24.3466 64.7034H19.6532C19.0051 64.7034 18.4797 65.1406 18.4797 65.6798C18.4797 66.2191 19.0051 66.6562 19.6532 66.6562H51.0048C52.6564 66.6562 54 65.5382 54 64.1642V54.9841C53.9997 54.4447 53.4743 54.0076 52.8261 54.0076ZM36.2903 34.2484L32.8402 40.0014C32.7545 39.9508 30.9261 38.87 28.6911 37.5495C29.6609 36.5534 28.5263 37.7186 32.9526 33.1729L36.2903 34.2484ZM29.3536 40.3365L28.4589 41.4571H25.5324L24.6377 40.3365L26.9957 38.9431L29.3536 40.3365ZM22.5783 31.6514V29.8241C24.0041 30.3023 25.5278 30.524 27.0159 30.524C28.5545 30.524 30.0633 30.2511 31.4052 29.7629V31.6594L26.9957 36.188L22.5783 31.6514ZM40.2813 18.4267C40.2811 19.0663 39.9482 19.6715 39.3676 20.087C38.9838 20.3617 38.5202 20.5373 38.0124 20.606V16.2477C39.3612 16.43 40.2813 17.3608 40.2813 18.4267ZM15.7349 20.606C14.3707 20.4218 13.466 19.4834 13.466 18.4265C13.466 17.3827 14.5061 16.5331 15.7349 16.2968V20.606ZM15.7979 14.3071C15.4241 14.3428 14.9957 14.427 14.6763 14.5174V12.1014C14.6763 6.50549 20.1478 1.95295 26.8735 1.95295C33.5991 1.95295 39.0707 6.50549 39.0707 12.1014V14.4503C38.7296 14.364 38.3758 14.307 38.0126 14.2802C38.0126 13.338 38.0225 13.5198 34.318 10.2061C33.6367 9.59707 32.5098 9.46948 31.6522 9.93569C27.5635 12.1579 22.576 13.2742 17.9741 12.9993C16.9647 12.9364 16.0453 13.4896 15.7979 14.3071ZM18.0821 21.3748V15.283V14.9621C23.1479 15.209 28.459 13.9568 32.7497 11.6706C34.4486 13.1883 35.3687 13.9844 35.6654 14.2872C35.6654 15.0532 35.6654 20.4978 35.6654 21.3747C35.6654 25.3385 31.7808 28.5709 27.016 28.5709C21.6656 28.5711 18.0821 25.1177 18.0821 21.3748ZM21.1513 40.0014L17.7012 34.2484L21.033 33.1748L25.2955 37.5523C23.1279 38.833 21.348 39.8852 21.1513 40.0014ZM22.4977 60.1081L25.8946 43.4098H28.0963L31.4932 60.1081L26.9955 64.225L22.4977 60.1081Z" fill="#8884B4"/>
</svg>
