<svg width="58" height="34" viewBox="0 0 58 34" fill="none" xmlns="http://www.w3.org/2000/svg">
<path d="M28.6703 6.14485C34.4488 6.14485 39.1501 10.8461 39.1501 16.6247C39.1501 22.4032 34.4488 27.1045 28.6703 27.1045C22.8917 27.1045 18.1904 22.4032 18.1904 16.6247C18.1904 10.8461 22.8917 6.14485 28.6703 6.14485ZM28.6703 21.1803C31.1823 21.1803 33.2258 19.1367 33.2258 16.6247C33.2258 14.1126 31.1823 12.0691 28.6703 12.0691C26.1582 12.0691 24.1147 14.1126 24.1147 16.6247C24.1147 19.1367 26.1582 21.1803 28.6703 21.1803Z" fill="white"/>
<path d="M57.2002 17.3091C57.112 17.4736 54.9851 21.3866 50.4104 25.3116C46.19 28.9323 38.9954 33.2485 28.6864 33.2485C18.3773 33.2485 11.1826 28.9323 6.96214 25.3116C2.38723 21.3868 0.260398 17.4738 0.172118 17.3091C-0.0569855 16.8822 -0.0573719 16.3691 0.170959 15.9416C0.258852 15.7768 2.37815 11.8631 6.94959 7.93728C11.1662 4.31645 18.3601 0 28.6864 0C39.0126 0 46.2064 4.31645 50.423 7.93748C54.9944 11.8629 57.1135 15.777 57.2014 15.9418C57.4297 16.3691 57.4293 16.8822 57.2002 17.3091ZM28.6701 30.0021C36.0464 30.0021 42.0476 24.0012 42.0476 16.6247C42.0476 9.24815 36.0464 3.24724 28.6701 3.24724C21.2936 3.24724 15.2927 9.24835 15.2927 16.6247C15.2927 24.001 21.2936 30.0021 28.6701 30.0021Z" fill="white"/>
</svg>
